<svg id="Icon" xmlns="http://www.w3.org/2000/svg" viewBox="0 0 16 16"><title>2g</title><path d="M6.19,12.35h-3L6.11,8.49a3.85,3.85,0,0,0,1-2.6A2.84,2.84,0,0,0,4,2.89a3.2,3.2,0,0,0-2.29.84A2.94,2.94,0,0,0,.84,5.65.85.85,0,0,0,1,6.24a.83.83,0,0,0,.66.32.78.78,0,0,0,.63-.3,1.25,1.25,0,0,0,.27-.63A1.31,1.31,0,0,1,4,4.55,1.27,1.27,0,0,1,5.38,5.91a2.42,2.42,0,0,1-.6,1.59L1.12,12.29a1.27,1.27,0,0,0-.38.86.82.82,0,0,0,.22.61v0a1.13,1.13,0,0,0,1,.27H6.19a1.07,1.07,0,0,0,.62-.12.79.79,0,0,0,.37-.7.77.77,0,0,0-.37-.7A1.08,1.08,0,0,0,6.19,12.35Z"/><path d="M14.15,8H11.79a.85.85,0,0,0,0,1.7H13.3v.94a1.8,1.8,0,0,1-3.59,0V6.26a1.68,1.68,0,0,1,1.68-1.67,1.89,1.89,0,0,1,1.88,1.6A.86.86,0,0,0,15,5.92a3.59,3.59,0,0,0-3.57-3A3.38,3.38,0,0,0,8,6.26v4.36a3.5,3.5,0,0,0,7,0V8.84A.85.85,0,0,0,14.15,8Z"/></svg>