<svg xmlns="http://www.w3.org/2000/svg" viewBox="0 0 16 16"><title>2g</title><g id="Icon"><path d="M6.76,12.87H1V11.68L3.19,9.16A20.62,20.62,0,0,0,4.48,7.55a4,4,0,0,0,.46-.89,2.72,2.72,0,0,0,.15-.9,1.48,1.48,0,0,0-.35-1,1.23,1.23,0,0,0-1-.38,2.27,2.27,0,0,0-.94.21,4.36,4.36,0,0,0-1.06.75L1,4.26a4.7,4.7,0,0,1,1.38-1A3.58,3.58,0,0,1,3.85,3a2.58,2.58,0,0,1,1.9.71,2.56,2.56,0,0,1,.72,1.91,3.77,3.77,0,0,1-.21,1.25,5.29,5.29,0,0,1-.63,1.22A15.87,15.87,0,0,1,4.2,9.79L2.73,11.42v.07h4Z"/><path d="M11.87,7.59H15v4.88a8.11,8.11,0,0,1-1.47.41A9.14,9.14,0,0,1,12,13a3.59,3.59,0,0,1-3-1.31A5.77,5.77,0,0,1,8,8,5.34,5.34,0,0,1,9.16,4.33,4.13,4.13,0,0,1,12.41,3a5.65,5.65,0,0,1,2.52.59l-.49,1.32a4.4,4.4,0,0,0-2.07-.55,2.62,2.62,0,0,0-2.15,1A4.14,4.14,0,0,0,9.43,8a4.4,4.4,0,0,0,.71,2.71,2.43,2.43,0,0,0,2,.93,5.93,5.93,0,0,0,1.44-.19V9H11.87Z"/></g></svg>