<svg id="Icon" xmlns="http://www.w3.org/2000/svg" viewBox="0 0 16 16"><title>3g</title><path d="M6,8.29A2.73,2.73,0,0,0,7,6a3,3,0,0,0-3.2-3.12,3,3,0,0,0-2.25.83A2.91,2.91,0,0,0,.74,5.3a1.35,1.35,0,0,0,0,.54.75.75,0,0,0,.78.58.9.9,0,0,0,.63-.27,1.11,1.11,0,0,0,.25-.56,1.19,1.19,0,0,1,1.34-1A1.37,1.37,0,0,1,5.2,6,1.33,1.33,0,0,1,3.78,7.56a1,1,0,0,0-.57.12.84.84,0,0,0,0,1.38.87.87,0,0,0,.57.12,1.46,1.46,0,0,1,1.59,1.63,1.58,1.58,0,0,1-1.62,1.64,1.36,1.36,0,0,1-1.5-1.14,1.28,1.28,0,0,0-.3-.64.7.7,0,0,0-.57-.21.88.88,0,0,0-.63.25,1,1,0,0,0-.23.74,2.53,2.53,0,0,0,.77,1.8,3.16,3.16,0,0,0,2.47.86,3.22,3.22,0,0,0,3.38-3.26A2.74,2.74,0,0,0,6,8.29Z"/><path d="M14.15,8H11.79a.85.85,0,0,0,0,1.7H13.3v.94a1.8,1.8,0,0,1-3.59,0V6.26a1.68,1.68,0,0,1,1.68-1.67,1.89,1.89,0,0,1,1.88,1.6A.86.86,0,0,0,15,5.92a3.59,3.59,0,0,0-3.57-3A3.38,3.38,0,0,0,8,6.26v4.36a3.5,3.5,0,0,0,7,0V8.84A.85.85,0,0,0,14.15,8Z"/></svg>