<svg xmlns="http://www.w3.org/2000/svg" viewBox="0 0 16 16"><title>3g</title><g id="Icon"><path d="M6.46,5.38A2.46,2.46,0,0,1,6,6.92a2.3,2.3,0,0,1-1.32.83V7.8a2.41,2.41,0,0,1,1.53.73,2.26,2.26,0,0,1,.51,1.55,2.73,2.73,0,0,1-.86,2.17A3.61,3.61,0,0,1,3.38,13,4.94,4.94,0,0,1,1,12.47V11.08a5,5,0,0,0,1.14.47,4.37,4.37,0,0,0,1.16.17,2.21,2.21,0,0,0,1.47-.42A1.62,1.62,0,0,0,5.27,10a1.28,1.28,0,0,0-.54-1.14A3.08,3.08,0,0,0,3,8.5H2.29V7.22H3q2,0,2-1.61a1.27,1.27,0,0,0-.35-1,1.45,1.45,0,0,0-1-.34,2.79,2.79,0,0,0-.93.16,4.2,4.2,0,0,0-1.06.61L1,4A4.08,4.08,0,0,1,3.73,3a2.93,2.93,0,0,1,2,.63A2.2,2.2,0,0,1,6.46,5.38Z"/><path d="M11.88,7.59H15v4.88a8.09,8.09,0,0,1-1.47.41A9.11,9.11,0,0,1,12,13a3.58,3.58,0,0,1-3-1.31A5.77,5.77,0,0,1,8,8,5.35,5.35,0,0,1,9.17,4.33,4.12,4.12,0,0,1,12.41,3a5.63,5.63,0,0,1,2.52.59l-.49,1.32a4.39,4.39,0,0,0-2.07-.55,2.61,2.61,0,0,0-2.15,1A4.14,4.14,0,0,0,9.44,8a4.4,4.4,0,0,0,.71,2.71,2.42,2.42,0,0,0,2,.93,5.91,5.91,0,0,0,1.44-.19V9H11.88Z"/></g></svg>