<svg xmlns="http://www.w3.org/2000/svg" viewBox="0 0 16 16"><title>4g</title><g id="Icon"><path d="M7.23,10.74H6.11v2.12H4.8V10.74H1V9.54L4.8,3.11h1.3V9.45H7.23ZM4.8,9.45V7q0-1.3.06-2.14h0a8,8,0,0,1-.5,1.06L2.25,9.45Z"/><path d="M11.94,7.59H15v4.88a7.82,7.82,0,0,1-1.44.41,8.77,8.77,0,0,1-1.49.12,3.49,3.49,0,0,1-2.92-1.31A5.86,5.86,0,0,1,8.12,8,5.41,5.41,0,0,1,9.28,4.33,4,4,0,0,1,12.46,3a5.44,5.44,0,0,1,2.47.59l-.48,1.32a4.24,4.24,0,0,0-2-.55,2.54,2.54,0,0,0-2.11,1A4.2,4.2,0,0,0,9.55,8a4.46,4.46,0,0,0,.7,2.71,2.36,2.36,0,0,0,2,.93,5.69,5.69,0,0,0,1.41-.19V9H11.94Z"/></g></svg>