<svg id="Icon" xmlns="http://www.w3.org/2000/svg" viewBox="0 0 16 16"><title>4g</title><path d="M6.82,11H6.7V3.75a.85.85,0,0,0-.85-.85H4.1a.85.85,0,0,0-.79.53L.06,11.53a.85.85,0,0,0,.09.79.83.83,0,0,0,.7.38H5v.77a.85.85,0,0,0,1.7,0V12.7h.12a.85.85,0,1,0,0-1.7ZM5,11H2.11L4.67,4.6H5Z"/><path d="M14.15,8H11.79a.85.85,0,0,0,0,1.7H13.3v.94a1.8,1.8,0,0,1-3.59,0V6.26a1.68,1.68,0,0,1,1.68-1.67,1.89,1.89,0,0,1,1.88,1.6A.86.86,0,0,0,15,5.92a3.59,3.59,0,0,0-3.57-3A3.38,3.38,0,0,0,8,6.26v4.36a3.5,3.5,0,0,0,7,0V8.84A.85.85,0,0,0,14.15,8Z"/></svg>