<svg xmlns="http://www.w3.org/2000/svg" viewBox="0 0 16 16"><defs><style>.cls-1{fill-rule:evenodd;}</style></defs><title>accessibility-hac</title><g id="Icon"><path class="cls-1" d="M12.23,2a5.26,5.26,0,0,0-4-2A5,5,0,0,0,2.69,4.16.68.68,0,0,0,4,4.45c.46-2.15,1.84-3.18,4.14-3.08a3.92,3.92,0,0,1,3,1.48,4.39,4.39,0,0,1,.7,3.61,6.55,6.55,0,0,1-1.79,3.27,11.09,11.09,0,0,0-1.81,2.61c-.63,1.32-1.38,2.12-2.12,2.27a1.56,1.56,0,0,1-1.34-.48,2.35,2.35,0,0,1-.45-2.62.68.68,0,1,0-1.24-.57,3.67,3.67,0,0,0,.78,4.2,3,3,0,0,0,2,.85,2.62,2.62,0,0,0,.5,0c1.18-.23,2.24-1.28,3.08-3a9.83,9.83,0,0,1,1.61-2.3,7.86,7.86,0,0,0,2.1-3.88A5.75,5.75,0,0,0,12.23,2Z"/><path class="cls-1" d="M8.62,8.68a1.81,1.81,0,1,0-1.8,2c1.05,0,3.4-1,3.77-4.32A3.14,3.14,0,0,0,8.71,3.15a3.36,3.36,0,0,0-2.46.2,2,2,0,0,0-1,1.26.5.5,0,0,0,.36.61.49.49,0,0,0,.61-.36,1,1,0,0,1,.54-.63,2.35,2.35,0,0,1,1.66-.14,2.08,2.08,0,0,1,1.22,2.2A4.5,4.5,0,0,1,8.62,8.68Z"/></g></svg>