<svg id="icon" xmlns="http://www.w3.org/2000/svg" viewBox="0 0 32 32"><title>airplane-mode-off</title><path d="M6,15.73a1.62,1.62,0,0,0-.93,1.89l.2.79a.82.82,0,0,0,1,.58l7.85-1.7-3.55-3.55Z"/><path d="M19.68,25.27l-2.13-1,.18-3.36L14.1,17.29l.36,7-2.12,1c-.32.14-.57.25-.57.57v.73a.42.42,0,0,0,.42.43h7.64a.42.42,0,0,0,.42-.43v-.73C20.25,25.52,20,25.41,19.68,25.27Z"/><path d="M26,15.72l-7.89-3.43.25-4.6C18.39,6.12,17.57,4,16,4s-2.39,2.12-2.39,3.69l.16,2.91L21.19,18l4.54,1a.82.82,0,0,0,1-.57l.21-.8A1.62,1.62,0,0,0,26,15.72Z"/><path d="M7.76,6a1.24,1.24,0,0,0-.88-.36A1.28,1.28,0,0,0,6,6,1.25,1.25,0,0,0,6,7.76L24.23,26A1.23,1.23,0,0,0,26,26a1.24,1.24,0,0,0,0-1.76Z"/></svg>