<svg id="icon" xmlns="http://www.w3.org/2000/svg" viewBox="0 0 32 32"><defs><style>.cls-1{fill-rule:evenodd;}</style></defs><title>airplane-mode</title><path class="cls-1" d="M12.19,27a.42.42,0,0,1-.42-.43v-.73c0-.32.25-.43.57-.57l2.12-1-.36-7L6.25,19a.82.82,0,0,1-1-.58l-.2-.79A1.62,1.62,0,0,1,6,15.73l7.9-3.44-.26-4.6C13.62,6.12,14.45,4,16,4s2.38,2.12,2.38,3.69l-.25,4.6L26,15.72a1.62,1.62,0,0,1,.91,1.91l-.21.8a.82.82,0,0,1-1,.57l-7.81-1.7-.37,7,2.13,1c.32.14.57.25.57.57v.73a.42.42,0,0,1-.42.43Z"/></svg>