<svg id="icon" xmlns="http://www.w3.org/2000/svg" viewBox="0 0 32 32"><title>alarm-clock-mute</title><path d="M11.39,6.45a.5.5,0,0,0,.06-.7,3,3,0,0,0-4.23-.37L5.69,6.67a3,3,0,0,0-.37,4.22A.49.49,0,0,0,6,11Z"/><path d="M26.31,6.67,24.78,5.38a3,3,0,0,0-4.23.37.49.49,0,0,0,.06.7L26,11a.49.49,0,0,0,.7-.06A3,3,0,0,0,26.31,6.67Z"/><path d="M16,7A10,10,0,1,0,26,17,10,10,0,0,0,16,7Zm3.88,12.18a1.2,1.2,0,0,1-1.7,1.7L16,18.69l-2.19,2.19a1.2,1.2,0,1,1-1.7-1.7L14.3,17,12.11,14.8a1.2,1.2,0,0,1,1.7-1.7L16,15.29l2.19-2.19a1.2,1.2,0,0,1,1.7,1.7L17.7,17Z"/></svg>