<svg id="icon" xmlns="http://www.w3.org/2000/svg" viewBox="0 0 32 32"><title>alarm-clock</title><path d="M16,7A10,10,0,1,0,26,17,10,10,0,0,0,16,7Zm6.71,7.36L16.5,18a1,1,0,0,1-1,0l-4-2.39a1,1,0,0,1-.35-1.41,1,1,0,0,1,1.4-.35L16,15.9l5.68-3.31a1,1,0,0,1,1.39.38A1,1,0,0,1,22.7,14.36Z"/><path d="M27.48,8.24,24.36,5.36a1.5,1.5,0,0,0-2.12.08l-.7.76a.7.7,0,0,0,0,1l4.29,4a.7.7,0,0,0,1,0l.7-.76A1.5,1.5,0,0,0,27.48,8.24Z"/><path d="M10.38,7.18a.7.7,0,0,0,0-1l-.7-.76A1.5,1.5,0,0,0,7.6,5.36L4.48,8.24a1.5,1.5,0,0,0-.08,2.12l.7.76a.7.7,0,0,0,1,0Z"/></svg>