<svg xmlns="http://www.w3.org/2000/svg" viewBox="0 0 16 16"><title>alarm</title><g id="Icon"><path d="M8,3a6,6,0,1,0,6,6A6,6,0,0,0,8,3Zm4.08,4.47L8.37,9.61a.75.75,0,0,1-.76,0L5.1,8.09a.75.75,0,0,1,.77-1.29L8,8.09l3.32-1.92a.75.75,0,0,1,.75,1.3Z"/><path d="M15.24,3.31l-2.13-2a.8.8,0,0,0-1.12,0l-.48.52a.5.5,0,0,0,0,.71L14.1,5a.5.5,0,0,0,.71,0l.48-.52A.8.8,0,0,0,15.24,3.31Z"/><path d="M4.49,1.91,4,1.39a.8.8,0,0,0-1.12,0l-2.13,2a.8.8,0,0,0,0,1.12L1.19,5A.5.5,0,0,0,1.9,5L4.46,2.62A.5.5,0,0,0,4.49,1.91Z"/></g></svg>