<svg id="Icon" xmlns="http://www.w3.org/2000/svg" viewBox="0 0 16 16"><defs><style>.cls-1{fill-rule:evenodd;}</style></defs><title>alarm</title><path class="cls-1" d="M8,2.45a6.28,6.28,0,1,0,6.28,6.28A6.28,6.28,0,0,0,8,2.45Zm3.75,4L8.6,9.29a.14.14,0,0,1-.08.05l-.08.06-.18.06-.1,0H8l-.11,0-.16-.07-.06,0L5.06,7.53a.76.76,0,0,1,.88-1.25L8,7.76l2.69-2.48a.77.77,0,0,1,1.08,0A.76.76,0,0,1,11.75,6.4Z"/><path class="cls-1" d="M5.11,1.91a.31.31,0,0,0,0-.44,1.87,1.87,0,0,0-2.65-.23l-1,.8A1.88,1.88,0,0,0,1.3,4.69a.31.31,0,0,0,.44,0Z"/><path class="cls-1" d="M14.47,2l-1-.8a1.87,1.87,0,0,0-2.65.23.31.31,0,0,0,0,.44l3.37,2.82a.31.31,0,0,0,.44,0A1.88,1.88,0,0,0,14.47,2Z"/></svg>