<svg id="icon" xmlns="http://www.w3.org/2000/svg" viewBox="0 0 32 32"><defs><style>.cls-1{fill-rule:evenodd;}</style></defs><title>alarm-clock</title><path class="cls-1" d="M16,7A10,10,0,1,0,26,17,10,10,0,0,0,16,7Zm5.63,6.38-4.7,4.32a1.25,1.25,0,0,1-.12.08l-.13.07a.88.88,0,0,1-.27.1l-.14,0H16l-.16,0a1.22,1.22,0,0,1-.24-.1l-.09,0-3.86-2.73A1.14,1.14,0,0,1,13,13.2l3.12,2.21,4-3.7a1.13,1.13,0,1,1,1.53,1.67Z"/><path class="cls-1" d="M11.38,6.45a.49.49,0,0,0,.06-.7,3,3,0,0,0-4.23-.37L5.68,6.67a3,3,0,0,0-.37,4.22A.51.51,0,0,0,6,11Z"/><path class="cls-1" d="M26.3,6.67,24.77,5.38a3,3,0,0,0-4.22.37.49.49,0,0,0,.06.7L26,11a.49.49,0,0,0,.7-.06A3,3,0,0,0,26.3,6.67Z"/></svg>