<svg xmlns="http://www.w3.org/2000/svg" viewBox="0 0 16 16"><title>all-day</title><g id="Icon"><path d="M1.8,9.71l.86-.78a12.05,12.05,0,0,0,1.2-1.16,3.18,3.18,0,0,0,.5-.8,2.14,2.14,0,0,0,.16-.83,1.59,1.59,0,0,0-.26-.91,1.75,1.75,0,0,0-.74-.62A2.63,2.63,0,0,0,2.41,4.4a3.77,3.77,0,0,0-.86.09,3.07,3.07,0,0,0-.71.26A5,5,0,0,0,0,5.31l.77.87a3.9,3.9,0,0,1,.76-.49,1.75,1.75,0,0,1,.75-.17.88.88,0,0,1,.59.19.72.72,0,0,1,.22.58,1.3,1.3,0,0,1-.1.5,2.22,2.22,0,0,1-.33.53q-.23.28-1,1L0,10v.94H4.71V9.77H1.8ZM9.4,4.39H8.18L5.21,9v1h2.9v1H9.4V10h.93V8.9H9.4ZM8.13,6.61q0,.53,0,.81V8.9H6.37L7.75,6.72A5.13,5.13,0,0,0,8.13,6h0Q8.15,6.08,8.13,6.61Zm6.65-2.22V7.1H12.5V4.39H11.28V11H12.5V8.27h2.28V11H16V4.39Z"/></g></svg>