<svg xmlns="http://www.w3.org/2000/svg" viewBox="0 0 16 16"><title>alt</title><g id="Icon"><path d="M14,0H2A2,2,0,0,0,0,2V14a2,2,0,0,0,2,2H14a2,2,0,0,0,2-2V2A2,2,0,0,0,14,0Zm0,14H2V2H14Z"/><path d="M4.49,4l-2,8H4l.46-2H6.54L7,12H8.5l-2-8Zm.26,4.68s.75-3.39.75-3.4l.76,3.4Z"/><rect x="8.5" y="3.99" width="1.49" height="8"/><path d="M12.39,10.37v-3h1V6.23h-1V5h-.88l-.35,1.22-.72.5v.62H11v3a2.11,2.11,0,0,0,.36,1.35,1.35,1.35,0,0,0,1.12.45,1.79,1.79,0,0,0,1-.23V10.8a1.6,1.6,0,0,1-.63.15Q12.39,10.95,12.39,10.37Z"/></g></svg>