<svg id="icon" xmlns="http://www.w3.org/2000/svg" viewBox="0 0 32 32"><title>atm</title><path d="M26,5H6A2,2,0,0,0,4,7V12.1A2,2,0,0,0,6,14H8v-3H7.66A.67.67,0,0,1,7,10.4V8.66A.67.67,0,0,1,7.66,8H24.32a.67.67,0,0,1,.68.66V10.4a.66.66,0,0,1-.68.66H24v3h2a2,2,0,0,0,2-1.93V7A2,2,0,0,0,26,5Z"/><path d="M9,27H23V9H9Zm3.69-5,.25-.68a.51.51,0,0,1,.49-.34.54.54,0,0,1,.23.05,6,6,0,0,0,2,.54c1,0,1.69-.53,1.69-1.3s-.49-1.18-1.69-1.65c-1.5-.57-2.89-1.33-2.89-3a2.84,2.84,0,0,1,2.37-2.77s.12,0,.12-.12v-1a.54.54,0,0,1,.55-.54h.47a.54.54,0,0,1,.55.54v1a.09.09,0,0,0,.08.09,10.24,10.24,0,0,1,1.76.46.42.42,0,0,1,.23.54l-.26.68a.51.51,0,0,1-.47.32.54.54,0,0,1-.25-.06,4.09,4.09,0,0,0-1.71-.38c-1.09,0-1.47.6-1.47,1.1s.42,1,1.87,1.57c1.91.76,2.73,1.7,2.73,3.17a3,3,0,0,1-2.52,2.92.1.1,0,0,0-.09.11v1.08a.54.54,0,0,1-.55.54h-.49a.54.54,0,0,1-.55-.54v-1c0-.08-.08-.11-.1-.11a9,9,0,0,1-2.13-.59A.44.44,0,0,1,12.69,22Z"/></svg>