<svg id="icon" xmlns="http://www.w3.org/2000/svg" viewBox="0 0 32 32"><title>atm</title><path d="M23.5,5H8.5A4.49,4.49,0,0,0,8,14V11.43A2,2,0,0,1,8.5,7.5h15a2,2,0,0,1,.5,3.93V14A4.49,4.49,0,0,0,23.5,5Z"/><path d="M22,9H10a1,1,0,0,0-1,1V26a1,1,0,0,0,1,1H22a1,1,0,0,0,1-1V10A1,1,0,0,0,22,9ZM16.82,23.07a.1.1,0,0,0-.09.11v1.08a.54.54,0,0,1-.55.54h-.49a.55.55,0,0,1-.55-.54v-1c0-.07-.08-.1-.09-.1a9.29,9.29,0,0,1-2.14-.59.46.46,0,0,1-.22-.56l.25-.68a.52.52,0,0,1,.49-.34.64.64,0,0,1,.23.05,5.78,5.78,0,0,0,2,.55c1,0,1.68-.54,1.68-1.3s-.49-1.18-1.69-1.65c-1.5-.57-2.89-1.33-2.89-3a2.83,2.83,0,0,1,2.37-2.77s.12-.05.12-.12v-1a.55.55,0,0,1,.55-.54h.47a.54.54,0,0,1,.55.54v1a.09.09,0,0,0,.08.09,9.84,9.84,0,0,1,1.76.46.42.42,0,0,1,.23.54l-.27.67a.51.51,0,0,1-.47.33.52.52,0,0,1-.25-.07,4.23,4.23,0,0,0-1.71-.38c-1.09,0-1.47.59-1.47,1.1s.42,1,1.87,1.58c1.91.75,2.73,1.7,2.73,3.17A3,3,0,0,1,16.82,23.07Z"/></svg>