<svg id="icon" xmlns="http://www.w3.org/2000/svg" viewBox="0 0 32 32"><defs><style>.cls-1{fill-rule:evenodd;}</style></defs><title>audio-output</title><path class="cls-1" d="M27.45,14.71C27.45,8.8,22.32,4,16,4S4.55,8.8,4.55,14.71a11.66,11.66,0,0,0,1.08,4.76,3.88,3.88,0,0,0-.18,4.84L7,26.41a3.92,3.92,0,0,0,5.48.83.65.65,0,0,0,.14-.91L8.45,20.67a10.91,10.91,0,0,1-2-6c0-4.85,4.27-8.79,9.52-8.79s9.52,3.94,9.52,8.79a10.89,10.89,0,0,1-1.88,5.83l-4.28,5.79a.64.64,0,0,0,.13.91A3.94,3.94,0,0,0,25,26.41l1.55-2.1a3.89,3.89,0,0,0-.15-4.82A12.06,12.06,0,0,0,27.45,14.71Z"/></svg>