<svg id="Icon" xmlns="http://www.w3.org/2000/svg" viewBox="0 0 16 16"><title>battery-unknown</title><path d="M15,5.5V5a2,2,0,0,0-2-2H12V4h1a1,1,0,0,1,1,1v6a1,1,0,0,1-1,1H10.85v1H13a2,2,0,0,0,2-2v-.5a1,1,0,0,0,1-1v-3A1,1,0,0,0,15,5.5Z"/><path d="M2,11V5A1,1,0,0,1,3,4H4V3H3A2,2,0,0,0,1,5v6a2,2,0,0,0,2,2H5V12H3A1,1,0,0,1,2,11Z"/><path d="M8,11a1,1,0,0,0-1,1,1,1,0,0,0,1,1,1,1,0,1,0,0-2Z"/><path d="M7.9,2a3,3,0,0,0-2.14.82A2.7,2.7,0,0,0,5,4.63a.74.74,0,0,0,.16.55.71.71,0,0,0,.57.27.7.7,0,0,0,.6-.25,1.07,1.07,0,0,0,.18-.41l0-.1A1.43,1.43,0,0,1,7.9,3.41,1.41,1.41,0,0,1,9.3,4.85a1.77,1.77,0,0,1-.43,1.09L7.7,7.62a2.17,2.17,0,0,0-.49,1.55,1,1,0,0,0,.16.58.71.71,0,0,0,.61.32.81.81,0,0,0,.56-.23,1,1,0,0,0,.24-.58,1.88,1.88,0,0,1,.27-.93c.18-.27.4-.58.61-.88l.5-.73a3.43,3.43,0,0,0,.69-1.87A2.81,2.81,0,0,0,7.9,2Z"/></svg>