<svg xmlns="http://www.w3.org/2000/svg" viewBox="0 0 16 16"><title>battery-unknown</title><g id="Icon"><path d="M15.5,5H15V4a1,1,0,0,0-1-1H12.38V4H14v8H10.59v1H14a1,1,0,0,0,1-1V11h.5a.5.5,0,0,0,.5-.5v-5A.5.5,0,0,0,15.5,5Z"/><path d="M2,4H3.58V3H2A1,1,0,0,0,1,4v8a1,1,0,0,0,1,1H4.79V12H2Z"/><path d="M11.24,4.71a2.45,2.45,0,0,0-.86-2A3.52,3.52,0,0,0,8,2a6.6,6.6,0,0,0-3.26.85l.63,1.32A9.36,9.36,0,0,1,6.6,3.68a4.15,4.15,0,0,1,1.32-.2,1.89,1.89,0,0,1,1.21.34,1.17,1.17,0,0,1,.42,1,1.64,1.64,0,0,1-.26.93A5.8,5.8,0,0,1,8.14,6.8a3.91,3.91,0,0,0-1,1.13,2.83,2.83,0,0,0-.3,1.37v.48H8.26V9.45a1.74,1.74,0,0,1,.24-1,4.41,4.41,0,0,1,.93-.91,8,8,0,0,0,1.15-1,2.87,2.87,0,0,0,.5-.84A2.83,2.83,0,0,0,11.24,4.71Z"/><path d="M7.58,11a1,1,0,0,0-1.1,1.13,1.19,1.19,0,0,0,.28.85,1.07,1.07,0,0,0,.82.3A1.06,1.06,0,0,0,8.4,13a1.19,1.19,0,0,0,.29-.84,1.16,1.16,0,0,0-.28-.84A1.09,1.09,0,0,0,7.58,11Z"/></g></svg>