<svg id="icon" xmlns="http://www.w3.org/2000/svg" viewBox="0 0 32 32"><title>bluetooth-transfer-32px</title><path d="M17.63,16,22,11.59a1.58,1.58,0,0,0,.48-1.14A1.6,1.6,0,0,0,22,9.3L17.13,4.39a1.34,1.34,0,0,0-1.46-.29,1.35,1.35,0,0,0-.83,1.24v7.87L11.27,9.63a1.16,1.16,0,1,0-1.64,1.64L14.36,16,9.63,20.73a1.16,1.16,0,0,0,0,1.64,1.15,1.15,0,0,0,1.63,0l3.58-3.58v7.87a1.35,1.35,0,0,0,.83,1.24,1.34,1.34,0,0,0,.52.1,1.35,1.35,0,0,0,.94-.39L22,22.7a1.6,1.6,0,0,0,.48-1.15A1.58,1.58,0,0,0,22,20.41Zm-.47-8.31,2.76,2.76-2.76,2.76Zm0,16.62V18.79l2.76,2.76Z"/><path d="M24.26,13.37l-2.57,2.17a.6.6,0,0,0,0,.92l2.57,2.17a.6.6,0,0,0,1-.46V13.83A.6.6,0,0,0,24.26,13.37Z"/><path d="M10.31,15.54,7.74,13.37a.6.6,0,0,0-1,.46v4.34a.6.6,0,0,0,1,.46l2.57-2.17A.6.6,0,0,0,10.31,15.54Z"/></svg>