<svg id="icon" xmlns="http://www.w3.org/2000/svg" viewBox="0 0 32 32"><title>bluetooth-off-32px</title><path d="M22.1,11.6a1.62,1.62,0,0,0,.48-1.15A1.6,1.6,0,0,0,22.1,9.3L17.2,4.4a1.36,1.36,0,0,0-1.47-.3,1.34,1.34,0,0,0-.82,1.24V11.9l3.45,3.45ZM17.22,7.69,20,10.45l-2.76,2.76Z"/><path d="M17.22,24.31V20.1l-3.45-3.45L9.69,20.73a1.16,1.16,0,0,0,0,1.64,1.15,1.15,0,0,0,1.63,0l3.59-3.58v7.87a1.34,1.34,0,0,0,.82,1.24,1.55,1.55,0,0,0,.52.1,1.34,1.34,0,0,0,.95-.4L21,23.85l-1.64-1.64Z"/><path d="M25,23.28l-2.83-2.84-7.23-7.23L11.32,9.63l-1-1a1.14,1.14,0,0,0-.82-.34,1.16,1.16,0,0,0-.82,2l1,1L14.42,16l2.8,2.79L20,21.55l1.63,1.64,1.73,1.72a1.14,1.14,0,0,0,.82.34,1.12,1.12,0,0,0,.81-.34A1.15,1.15,0,0,0,25,23.28Z"/></svg>