<svg id="Icon" xmlns="http://www.w3.org/2000/svg" viewBox="0 0 16 16"><title>bluetooth-transfer</title><path d="M14.35,6.21,12.64,7.65a.4.4,0,0,0,0,.61L14.35,9.7A.4.4,0,0,0,15,9.39V6.52A.4.4,0,0,0,14.35,6.21Z"/><path d="M3.39,7.65,1.68,6.21A.4.4,0,0,0,1,6.52V9.39a.4.4,0,0,0,.65.31L3.39,8.26A.4.4,0,0,0,3.39,7.65Z"/><path d="M9.33,8l3-2.47a.83.83,0,0,0,.31-.65.85.85,0,0,0-.3-.65L8.55,1.09A.86.86,0,0,0,7.64,1a.85.85,0,0,0-.49.77V6.19l-2.36-2a.85.85,0,0,0-1.08,1.3L6.67,8l-3,2.47a.85.85,0,0,0,1.08,1.3l2.36-2v4.43a.85.85,0,0,0,.49.77.76.76,0,0,0,.36.08.83.83,0,0,0,.54-.19l3.75-3.13a.84.84,0,0,0,0-1.3ZM8.85,3.56l1.57,1.32L8.85,6.19Zm0,8.87V9.81l1.57,1.31Z"/></svg>