<svg id="icon" xmlns="http://www.w3.org/2000/svg" viewBox="0 0 32 32"><title>bluetooth-off-32px</title><path d="M22.53,11.24a1.76,1.76,0,0,0,0-2.48l-5.3-5.3a1.45,1.45,0,0,0-2.48,1v7.09l3.73,3.73ZM17.25,7l3,3-3,3Z"/><path d="M17.25,25V20.43L13.52,16.7,9.11,21.11a1.27,1.27,0,0,0,0,1.77,1.25,1.25,0,0,0,1.77,0L14.75,19v8.5a1.45,1.45,0,0,0,.89,1.34,1.59,1.59,0,0,0,.56.11,1.45,1.45,0,0,0,1-.43l4.07-4.06-1.77-1.77Z"/><path d="M25.63,23.87,22.57,20.8,14.75,13,10.88,9.12,9.79,8a1.24,1.24,0,0,0-.88-.36A1.28,1.28,0,0,0,8,8,1.25,1.25,0,0,0,8,9.79l1.1,1.09L14.23,16l3,3,3,3L22,23.77l1.87,1.86a1.23,1.23,0,0,0,1.76,0A1.24,1.24,0,0,0,25.63,23.87Z"/></svg>