<svg id="Icon" xmlns="http://www.w3.org/2000/svg" viewBox="0 0 16 16"><title>bluetooth-a2dp</title><path d="M14.76,8.82a7.45,7.45,0,0,0,.33-2.1A6.93,6.93,0,0,0,8,0,6.93,6.93,0,0,0,.89,6.72a6.84,6.84,0,0,0,.36,2.09,2.48,2.48,0,0,0-.76,2.76l.57,1.54a2.41,2.41,0,0,0,3.12,1.44A.41.41,0,0,0,4.42,14L2.87,9.79a.49.49,0,0,1,0-.11l-.14-.36-.15-.41a6.54,6.54,0,0,1-.45-2.19A5.72,5.72,0,0,1,8,1.21a5.72,5.72,0,0,1,5.9,5.51,6.26,6.26,0,0,1-.34,1.93h0l-2,5.37a.41.41,0,0,0,.24.53,2.41,2.41,0,0,0,3.12-1.44l.57-1.54A2.47,2.47,0,0,0,14.76,8.82Z"/><path d="M11.51,11.28,9,9.21l2.49-2.06a.66.66,0,0,0,.23-.5.63.63,0,0,0-.23-.5L8.42,3.57a.64.64,0,0,0-.69-.09.63.63,0,0,0-.37.59V7.83l-2-1.68a.65.65,0,1,0-.83,1L7,9.21,4.51,11.28a.65.65,0,0,0-.09.92.66.66,0,0,0,.92.08l2-1.68v3.75a.65.65,0,0,0,.37.59A.67.67,0,0,0,8,15a.63.63,0,0,0,.41-.15l3.09-2.57a.66.66,0,0,0,0-1ZM8.66,5.46l1.42,1.19L8.66,7.83Zm0,7.5V10.6l1.42,1.18Z"/></svg>