<svg xmlns="http://www.w3.org/2000/svg" viewBox="0 0 16 16"><title>bluetooth-a2dp</title><g id="Icon"><path d="M15,9.08l-.38-.17A8,8,0,0,0,15,6.6,6.79,6.79,0,0,0,8,.06,6.79,6.79,0,0,0,1,6.6a8,8,0,0,0,.38,2.32L1,9.08A.85.85,0,0,0,.57,10.2l1.05,2.34A.86.86,0,0,0,2.77,13l.79-.35A.85.85,0,0,0,4,11.5L2.93,9.16a.84.84,0,0,0-.41-.41A7,7,0,0,1,2.14,6.6,5.76,5.76,0,0,1,8,1.14,5.76,5.76,0,0,1,13.82,6.6a7.1,7.1,0,0,1-.4,2.18.84.84,0,0,0-.36.38L12,11.5a.85.85,0,0,0,.44,1.13l.79.35a.86.86,0,0,0,1.14-.43l1.05-2.34A.85.85,0,0,0,15,9.08Z"/><path d="M11.32,6.26,8.4,3.35a.55.55,0,0,0-.93.39V8.24L5.56,6.33a.55.55,0,0,0-.77.77L7.24,9.56,4.78,12a.55.55,0,1,0,.77.77l1.91-1.91v4.51a.55.55,0,0,0,.93.39l2.91-2.91a.55.55,0,0,0,0-.77L8.79,9.56,11.32,7A.55.55,0,0,0,11.32,6.26Zm-1.16,6.22-1.6,1.6V10.88ZM8.56,8.24V5.05l1.6,1.6Z"/></g></svg>