<svg id="icon" xmlns="http://www.w3.org/2000/svg" viewBox="0 0 32 32"><title>bluetooth-transfer-32px</title><path d="M17.89,16l4.76-4.73a1.15,1.15,0,0,0,0-1.69L16.92,4.34A1.18,1.18,0,0,0,16,4a1.09,1.09,0,0,0-1,1.2v7.7L11.32,9.36a1.4,1.4,0,0,0-1.86,0A1.15,1.15,0,0,0,9.39,11l5,5-5,5a1.15,1.15,0,0,0,0,1.7,1.48,1.48,0,0,0,1.91,0L15,19.1v7.7c0,.85.47,1.2,1,1.2a1.32,1.32,0,0,0,.48-.09,2.49,2.49,0,0,0,.4-.25l5.69-5.25a1.15,1.15,0,0,0,0-1.69ZM17,8l2.63,2.43L17,13.09ZM17,24v-5l2.63,2.61Z"/><path d="M24.93,13.15,22.14,15.5a.65.65,0,0,0,0,1l2.78,2.35a.65.65,0,0,0,1.07-.5V13.65A.65.65,0,0,0,24.93,13.15Z"/><path d="M9.86,15.5,7.07,13.15a.65.65,0,0,0-1.07.5v4.69a.65.65,0,0,0,1.07.5L9.86,16.5A.65.65,0,0,0,9.86,15.5Z"/></svg>