<svg id="icon" xmlns="http://www.w3.org/2000/svg" viewBox="0 0 32 32"><title>bluetooth-32px</title><path d="M17.63,16,22,11.59a1.61,1.61,0,0,0,.47-1.14A1.64,1.64,0,0,0,22,9.3L17.13,4.39a1.36,1.36,0,0,0-1.47-.29,1.34,1.34,0,0,0-.82,1.24v7.87L11.26,9.63a1.16,1.16,0,1,0-1.64,1.64L14.36,16,9.62,20.73a1.16,1.16,0,0,0,1.64,1.64l3.58-3.58v7.87a1.34,1.34,0,0,0,.82,1.24,1.37,1.37,0,0,0,1.47-.29L22,22.7a1.64,1.64,0,0,0,.47-1.15A1.61,1.61,0,0,0,22,20.41Zm-.48-8.31,2.76,2.76-2.76,2.76Zm0,16.62V18.79l2.76,2.76Z"/></svg>