<svg id="icon" xmlns="http://www.w3.org/2000/svg" viewBox="0 0 32 32"><title>bluetooth-transfer-32px</title><path d="M17.77,16l4.76-4.76a1.76,1.76,0,0,0,0-2.48l-5.3-5.3a1.45,1.45,0,0,0-2.48,1V13L10.88,9.12a1.24,1.24,0,0,0-1.76,1.76L14.23,16,9.11,21.11a1.27,1.27,0,0,0,0,1.77,1.25,1.25,0,0,0,1.77,0L14.75,19v8.5a1.45,1.45,0,0,0,.89,1.34,1.59,1.59,0,0,0,.56.11,1.45,1.45,0,0,0,1-.43l5.3-5.3a1.76,1.76,0,0,0,0-2.48Zm-.52-9,3,3-3,3Zm0,18V19l3,3Z"/><path d="M24.93,13.15,22.14,15.5a.65.65,0,0,0,0,1l2.79,2.35a.65.65,0,0,0,1.07-.5v-4.7A.65.65,0,0,0,24.93,13.15Z"/><path d="M9.86,15.5,7.07,13.15a.65.65,0,0,0-1.07.5v4.7a.65.65,0,0,0,1.07.5L9.86,16.5A.65.65,0,0,0,9.86,15.5Z"/></svg>