<svg xmlns="http://www.w3.org/2000/svg" viewBox="0 0 16 16"><title>bluetooth-transfer</title><g id="Icon"><path d="M13.84,6.21,12.14,7.65a.4.4,0,0,0,0,.61L13.84,9.7a.4.4,0,0,0,.66-.31V6.52A.4.4,0,0,0,13.84,6.21Z"/><path d="M3.36,7.65,1.66,6.21A.4.4,0,0,0,1,6.52V9.39a.4.4,0,0,0,.66.31L3.36,8.26A.4.4,0,0,0,3.36,7.65Z"/><path d="M8.73,8,11.9,4.83a.69.69,0,0,0,0-1L8.24.2A.69.69,0,0,0,7.07.69V6.34l-2.4-2.4a.69.69,0,1,0-1,1L6.79,8,3.7,11.09a.69.69,0,1,0,1,1l2.4-2.4v5.66a.69.69,0,0,0,1.17.48l3.66-3.66a.69.69,0,0,0,0-1ZM8.44,2.34l2,2-2,2Zm0,11.32v-4l2,2Z"/></g></svg>