<svg id="icon" xmlns="http://www.w3.org/2000/svg" viewBox="0 0 32 32"><title>brightness</title><path d="M8,16a1,1,0,0,0-1-1H4a1,1,0,0,0,0,2H7A1,1,0,0,0,8,16Z"/><path d="M8.93,10.34a1,1,0,0,0,1.41-1.41L8.22,6.81A1,1,0,0,0,6.81,8.22Z"/><path d="M16,8a1,1,0,0,0,1-1V4a1,1,0,0,0-2,0V7A1,1,0,0,0,16,8Z"/><path d="M23.07,10.34l2.12-2.12a1,1,0,0,0-1.41-1.41L21.66,8.93a1,1,0,1,0,1.41,1.41Z"/><path d="M28,15H25a1,1,0,0,0,0,2h3a1,1,0,0,0,0-2Z"/><path d="M23.07,21.66a1,1,0,1,0-1.41,1.41l2.12,2.12a1,1,0,0,0,1.41-1.41Z"/><path d="M16,24a1,1,0,0,0-1,1v3a1,1,0,0,0,2,0V25A1,1,0,0,0,16,24Z"/><path d="M8.93,21.66,6.81,23.78a1,1,0,0,0,1.41,1.41l2.12-2.12a1,1,0,1,0-1.41-1.41Z"/><path d="M16,9.49h0a6.5,6.5,0,0,0,0,13h0a6.5,6.5,0,0,0,0-13Zm0,11h0v-9h0a4.5,4.5,0,0,1,0,9Z"/></svg>