<svg id="icon" xmlns="http://www.w3.org/2000/svg" viewBox="0 0 32 32"><title>browser-type</title><path d="M28.81,22.09l-.15-.23a4.62,4.62,0,0,1-.87-2.36h0V14.75A4.64,4.64,0,0,0,23.29,10a4.5,4.5,0,0,0-4.08,2.74,1.25,1.25,0,1,0,2.28,1,2,2,0,0,1,1.8-1.25,2.14,2.14,0,0,1,2,2.25v.4a10.66,10.66,0,0,0-2-.15,4.5,4.5,0,1,0,3,7.81l.25.41.13.19a1.24,1.24,0,0,0,1.06.59,1.25,1.25,0,0,0,1.06-1.91ZM25.29,19.5a2,2,0,1,1-2-2,6,6,0,0,1,2,.22Z"/><path d="M12.91,8A1.5,1.5,0,0,0,11.5,7h-2A1.5,1.5,0,0,0,8.09,8l-5,14A1.49,1.49,0,0,0,4,23.91a1.52,1.52,0,0,0,.51.09,1.5,1.5,0,0,0,1.41-1l1.43-4h6.31l1.43,4a1.5,1.5,0,1,0,2.82-1ZM8.42,16l2.08-5.84L12.58,16Z"/></svg>