<svg id="icon" xmlns="http://www.w3.org/2000/svg" viewBox="0 0 32 32"><title>browser-offline</title><path d="M19.67,18.33a1.13,1.13,0,0,0-1.6,0L16,20.4l-2.07-2.07a1.13,1.13,0,1,0-1.6,1.6L14.4,22l-2.07,2.07a1.13,1.13,0,1,0,1.6,1.6L16,23.6l2.07,2.07a1.13,1.13,0,0,0,1.6-1.6L17.6,22l2.07-2.07A1.13,1.13,0,0,0,19.67,18.33Z"/><path d="M22.9,12.37a7.12,7.12,0,0,0-13.8,0A5.32,5.32,0,0,0,9.45,23H10a1,1,0,0,0,0-2H9.45a3.32,3.32,0,1,1-.22-6.64l1.47-.09L11,12.83a5.13,5.13,0,0,1,9.92,0l.34,1.44,1.47.09A3.32,3.32,0,1,1,22.55,21H22a1,1,0,0,0,0,2h.55a5.32,5.32,0,0,0,.35-10.63Z"/></svg>