<svg id="Icon" xmlns="http://www.w3.org/2000/svg" viewBox="0 0 16 16"><title>browser-scroller</title><path d="M15.65,7.65l-2.3-2.3a.75.75,0,0,0-1.06,0,.75.75,0,0,0,0,1.06l.79.78H10.8a.8.8,0,0,0,0,1.6h2.28l-.67.67a.75.75,0,0,0,1.06,1.06l2.18-2.18A.5.5,0,0,0,15.65,7.65Z"/><path d="M9.59,12.29l-.79.79V10.8a.8.8,0,0,0-1.6,0v2.28l-.75-.75a.75.75,0,1,0-1.06,1.06l2.26,2.26a.5.5,0,0,0,.7,0l2.3-2.3a.75.75,0,0,0-1.06-1.06Z"/><path d="M6.5,3.62l.7-.7V5.2a.8.8,0,0,0,1.6,0V2.92l.67.67a.75.75,0,0,0,1.06-1.06L8.35.35a.5.5,0,0,0-.7,0L5.44,2.56A.75.75,0,1,0,6.5,3.62Z"/><path d="M4.2,7.2H2.92l.75-.75A.75.75,0,0,0,2.61,5.39L.35,7.65a.5.5,0,0,0,0,.7l2.21,2.21A.75.75,0,1,0,3.62,9.5l-.7-.7H4.2a.8.8,0,0,0,0-1.6Z"/></svg>