<svg id="icon" xmlns="http://www.w3.org/2000/svg" viewBox="0 0 32 32"><defs><style>.cls-1{fill-rule:evenodd;}</style></defs><title>browser-collection</title><path class="cls-1" d="M26,9H19a2,2,0,0,0-2-2H7A2,2,0,0,0,5,9V22a3,3,0,0,0,3,3H24a3,3,0,0,0,3-3V10A1,1,0,0,0,26,9Zm-4.89,7.27-2,2a.48.48,0,0,0-.14.42l.48,2.78a.47.47,0,0,1-.69.5l-2.51-1.31a.49.49,0,0,0-.44,0l-2.51,1.31a.47.47,0,0,1-.69-.5l.48-2.78a.48.48,0,0,0-.14-.42l-2-2a.48.48,0,0,1,.27-.81l2.8-.4a.49.49,0,0,0,.36-.26l1.25-2.54a.48.48,0,0,1,.86,0l1.25,2.54a.49.49,0,0,0,.36.26l2.8.4A.48.48,0,0,1,21.11,16.27Z"/></svg>