<svg xmlns="http://www.w3.org/2000/svg" viewBox="0 0 16 16"><defs><style>.cls-1{fill-rule:evenodd;}</style></defs><title>bug</title><g id="Icon"><path class="cls-1" d="M13.94,11.18l-2-.54C12,9.8,12,8.91,12,8,12,8,12,8,12,8h1v1.5a.5.5,0,0,0,1,0v-2a.5.5,0,0,0-.5-.5H11.89a4.93,4.93,0,0,0-.39-1.13l2-.27a.5.5,0,0,0,.5-.5V3.47a.5.5,0,0,0-1,0V4.63l-2.09.28a5.52,5.52,0,0,0-1.06-1l.93-2a.5.5,0,1,0-.91-.41L9,3.38A3.62,3.62,0,0,0,7.51,3,3.59,3.59,0,0,0,6,3.36L5.17,1.44a.5.5,0,1,0-.91.41l.92,2a5.53,5.53,0,0,0-1.09,1L2,4.63V3.47a.5.5,0,0,0-1,0V5.06a.5.5,0,0,0,.5.5l2,.27A4.93,4.93,0,0,0,3.12,7H1.51a.5.5,0,0,0-.5.5v2a.5.5,0,0,0,1,0V8H3S3,8,3,8c0,.87,0,1.75.08,2.59l-2,.54a.5.5,0,0,0-.35.61l.93,3.05a.5.5,0,0,0,1-.26L1.83,12l1.4-.38C3.62,13.53,4.66,15,7.51,15s3.89-1.44,4.27-3.34l1.4.38-.79,2.58a.5.5,0,0,0,1,.26l.93-3.05A.5.5,0,0,0,13.94,11.18ZM9.82,8H8v4.5a.5.5,0,0,1-1,0V8H5.19a.5.5,0,0,1,0-1H9.82a.5.5,0,1,1,0,1Z"/></g></svg>