<svg id="icon" xmlns="http://www.w3.org/2000/svg" viewBox="0 0 32 32"><path d="M19,25.91H13a.62.62,0,0,0-.68.54v1.42A1.29,1.29,0,0,0,13.73,29h4.53a1.3,1.3,0,0,0,1.42-1.13V26.45A.62.62,0,0,0,19,25.91Z"/><path d="M26,11.89a10,10,0,0,0-20,0,9.89,9.89,0,0,0,5.26,8.72v.52a2.55,2.55,0,0,0,2.29,2.74H15V18l-2.52-1.77a1.16,1.16,0,0,1-.35-1.47l.07-.12a1.12,1.12,0,0,1,1.46-.36l.12.07L16.08,16l2.07-1.72a1.12,1.12,0,0,1,1.59.16,1.14,1.14,0,0,1,0,1.51l-.1.09L17.26,18v5.92h1.19a2.55,2.55,0,0,0,2.29-2.74v-.52A9.89,9.89,0,0,0,26,11.89Z"/></svg>