<svg id="icon" xmlns="http://www.w3.org/2000/svg" viewBox="0 0 32 32"><title>calculator</title><path d="M26,4H6A2,2,0,0,0,4,6V26a2,2,0,0,0,2,2H26a2,2,0,0,0,2-2V6A2,2,0,0,0,26,4ZM14,23H8a1,1,0,0,1,0-2h6a1,1,0,0,1,0,2Zm0-10H12v2a1,1,0,0,1-2,0V13H8a1,1,0,0,1,0-2h2V9a1,1,0,0,1,2,0v2h2a1,1,0,0,1,0,2ZM24,24H19a1,1,0,0,1,0-2h5a1,1,0,0,1,0,2Zm0-3H19a1,1,0,0,1,0-2h5a1,1,0,0,1,0,2Zm.73-7.2a1,1,0,0,1-1.41,1.41l-1.8-1.8-1.8,1.8a1,1,0,0,1-1.41-1.41L20.1,12l-1.8-1.8a1,1,0,1,1,1.41-1.41l1.8,1.8,1.8-1.8a1,1,0,1,1,1.41,1.41L22.92,12Z"/></svg>