<svg id="icon" xmlns="http://www.w3.org/2000/svg" viewBox="0 0 32 32"><title>calculator</title><path d="M24,4H8A4,4,0,0,0,4,8V24a4,4,0,0,0,4,4H24a4,4,0,0,0,4-4V8A4,4,0,0,0,24,4ZM14,23H8a1,1,0,0,1,0-2h6a1,1,0,0,1,0,2Zm0-10H12v2a1,1,0,0,1-2,0V13H8a1,1,0,0,1,0-2h2V9a1,1,0,0,1,2,0v2h2a1,1,0,0,1,0,2ZM24,24H19a1,1,0,0,1,0-2h5a1,1,0,0,1,0,2Zm0-3H19a1,1,0,0,1,0-2h5a1,1,0,0,1,0,2Zm.73-7.2a1,1,0,1,1-1.42,1.42l-1.8-1.81-1.8,1.81a1,1,0,1,1-1.42-1.42L20.1,12l-1.81-1.8a1,1,0,1,1,1.42-1.42l1.8,1.81,1.8-1.81a1,1,0,1,1,1.42,1.42L22.92,12Z"/></svg>