<svg id="icon" xmlns="http://www.w3.org/2000/svg" viewBox="0 0 32 32"><defs><style>.cls-1{fill-rule:evenodd;}</style></defs><title>calendar</title><path class="cls-1" d="M26,5H6A1,1,0,0,0,5,6V26a1,1,0,0,0,1,1H26a1,1,0,0,0,1-1V6A1,1,0,0,0,26,5Zm0,21H6V11H26ZM11,14h0a1.5,1.5,0,0,0-1.5,1.5h0A1.5,1.5,0,0,0,11,17h0a1.5,1.5,0,0,0,1.5-1.5h0A1.5,1.5,0,0,0,11,14Zm5,0h0a1.5,1.5,0,0,0-1.5,1.5h0A1.5,1.5,0,0,0,16,17h0a1.5,1.5,0,0,0,1.5-1.5h0A1.5,1.5,0,0,0,16,14Zm5,0h0a1.5,1.5,0,0,0-1.5,1.5h0A1.5,1.5,0,0,0,21,17h0a1.5,1.5,0,0,0,1.5-1.5h0A1.5,1.5,0,0,0,21,14ZM11,19h0a1.5,1.5,0,0,0-1.5,1.5h0A1.5,1.5,0,0,0,11,22h0a1.5,1.5,0,0,0,1.5-1.5h0A1.5,1.5,0,0,0,11,19Zm5,0h0a1.5,1.5,0,0,0-1.5,1.5h0A1.5,1.5,0,0,0,16,22h0a1.5,1.5,0,0,0,1.5-1.5h0A1.5,1.5,0,0,0,16,19Z"/></svg>