<?xml version="1.0" encoding="utf-8"?>
<!-- Generator: Adobe Illustrator 15.0.0, SVG Export Plug-In . SVG Version: 6.00 Build 0)  -->
<!DOCTYPE svg PUBLIC "-//W3C//DTD SVG 1.1//EN" "http://www.w3.org/Graphics/SVG/1.1/DTD/svg11.dtd">
<svg version="1.1" id="icon" xmlns="http://www.w3.org/2000/svg" xmlns:xlink="http://www.w3.org/1999/xlink" x="0px" y="0px"
	 width="24px" height="24px" viewBox="0 0 24 24" enable-background="new 0 0 24 24" xml:space="preserve">
<title>call-rtt-incoming</title>
<g>
	<polygon points="4.797,5.839 4.608,6.911 8.679,6.911 8.867,5.839 	"/>
	<polygon points="4.206,9.696 3.965,10.767 8.036,10.767 8.196,9.696 	"/>
	<polygon points="3.003,17.194 2.68,18.266 8.276,18.266 8.599,17.194 	"/>
	<polygon points="3.617,13.338 3.323,14.409 10.607,14.409 10.795,13.338 	"/>
	<polygon points="9.964,5.839 9.028,10.339 10.099,10.339 10.821,7.125 13.393,7.125 11.464,17.194 10.179,17.194 9.964,18.266 
		14.036,18.266 14.249,17.194 12.75,17.194 14.893,7.125 17.463,7.125 16.82,10.339 17.891,10.339 18.963,5.839 	"/>
	<path d="M17.221,16.525l2.665,0.502l-0.113,0.6l-3.688-0.694l0.694-3.688l0.6,0.112l-0.502,2.665l4.029-2.753l0.344,0.503
		L17.221,16.525z"/>
</g>
</svg>
