<svg id="icon" xmlns="http://www.w3.org/2000/svg" viewBox="0 0 32 32"><title>call-incoming-sim1</title><path d="M25.55,20.72l-5.88-2.29a.71.71,0,0,0-.91.41l-.93,2.38a21,21,0,0,1-7-7l2.54-1.06a.71.71,0,0,0,.4-.93L11.36,6.43a.72.72,0,0,0-.94-.37s-2.73,1.26-3,1.43A2.25,2.25,0,0,0,6.08,10a23.5,23.5,0,0,0,16,15.91,2.39,2.39,0,0,0,2.63-1.36h0c.15-.35,1.2-2.91,1.2-2.91A.71.71,0,0,0,25.55,20.72Z"/><path d="M26.69,5.31a1,1,0,0,0-1.41,0L21,9.59V7a1,1,0,0,0-2,0v5a1,1,0,0,0,1,1h5a1,1,0,0,0,0-2H22.41l4.28-4.28A1,1,0,0,0,26.69,5.31Z"/><path d="M7.64,20.09A.41.41,0,0,0,7.38,20H3.78a.75.75,0,0,0-.78.72v6.56a.75.75,0,0,0,.78.72H9.22a.75.75,0,0,0,.78-.72V22.12a.35.35,0,0,0-.14-.27ZM7,27H6V22.18l-.86.64-.48-.6L6.17,21H7Z"/></svg>