<svg id="icon" xmlns="http://www.w3.org/2000/svg" viewBox="0 0 32 32"><defs><style>.cls-1{fill-rule:evenodd;}</style></defs><title>call-swap</title><path class="cls-1" d="M27.89,10,25.06,7.21a1.49,1.49,0,0,0-2.12,0L20.11,10a1.5,1.5,0,0,0,2.12,2.12l.27-.27v9A2.7,2.7,0,0,1,20,23.75a2.7,2.7,0,0,1-2.5-2.86V11A5.62,5.62,0,0,0,12,5.25,5.61,5.61,0,0,0,6.5,11v7.65l-.27-.27a1.5,1.5,0,1,0-2.12,2.12L6.94,23.3a1.49,1.49,0,0,0,2.12,0l2.83-2.83a1.49,1.49,0,0,0,0-2.12,1.51,1.51,0,0,0-2.12,0l-.27.27V11A2.62,2.62,0,0,1,12,8.25,2.62,2.62,0,0,1,14.5,11v9.92A5.68,5.68,0,0,0,20,26.75a5.68,5.68,0,0,0,5.5-5.86v-9l.27.27a1.49,1.49,0,0,0,2.12,0A1.51,1.51,0,0,0,27.89,10Z"/></svg>