<svg id="icon" xmlns="http://www.w3.org/2000/svg" viewBox="0 0 32 32"><defs><style>.cls-1{fill-rule:evenodd;}</style></defs><title>call-rtt-sim1</title><path d="M8,19a2,2,0,0,0,2-2H6A2,2,0,0,0,8,19Z"/><path d="M21,24a2,2,0,0,0,4,0V22H21Z"/><path d="M15,19V17H11v2a2,2,0,0,0,4,0Z"/><path d="M11,24a2,2,0,0,0,2,2h5a2,2,0,0,0,2-2V22H11Z"/><path d="M16,19a2,2,0,0,0,4,0V17H16Z"/><path d="M21,19a2,2,0,0,0,2,2h1a2,2,0,0,0,2-2V17H21Z"/><path d="M7.64,20.09A.39.39,0,0,0,7.38,20H3.78a.75.75,0,0,0-.78.72v6.56a.75.75,0,0,0,.78.72H9.22a.75.75,0,0,0,.78-.72V22.12a.35.35,0,0,0-.14-.28ZM7,27H6V22.18l-.86.64-.48-.6L6.17,21H7Z"/><path class="cls-1" d="M27.06,8.8A22.82,22.82,0,0,0,5,8.89a2.35,2.35,0,0,0-.87,2.77h0c.13.34,1.18,2.85,1.18,2.85a.69.69,0,0,0,.91.37l5.63-2.5a.69.69,0,0,0,.35-.92l-1-2.3a20.54,20.54,0,0,1,9.61,0l-1,2.51a.71.71,0,0,0,.37.92L25.88,15a.7.7,0,0,0,.91-.4s1-2.76,1.09-3.08A2.22,2.22,0,0,0,27.06,8.8Z"/></svg>