<svg id="icon" xmlns="http://www.w3.org/2000/svg" viewBox="0 0 32 32"><defs><style>.cls-1{fill-rule:evenodd;}</style></defs><title>call-conference</title><path class="cls-1" d="M8,15.2a2.26,2.26,0,0,0,2.26-2.26V10.68a2.26,2.26,0,0,0-4.52,0v2.26A2.26,2.26,0,0,0,8,15.2Z"/><path class="cls-1" d="M9.7,16.75a3.31,3.31,0,0,0-.55,0H6.89A4.89,4.89,0,0,0,2,21.6V25a1,1,0,0,0,1,1H7V22.5A7.41,7.41,0,0,1,8.51,18,7.83,7.83,0,0,1,9.7,16.75Z"/><path class="cls-1" d="M24,15.23A2.25,2.25,0,0,0,26.25,13V10.73a2.25,2.25,0,0,0-4.5,0V13A2.25,2.25,0,0,0,24,15.23Z"/><path class="cls-1" d="M25.12,16.73H22.88a3.43,3.43,0,0,0-.56,0,6.86,6.86,0,0,1,.68.64,7.46,7.46,0,0,1,2,5.09V26h4a1,1,0,0,0,1-1V21.61A4.88,4.88,0,0,0,25.12,16.73Z"/><path class="cls-1" d="M16,14a3,3,0,0,0,3-3V8a3,3,0,0,0-6,0v3A3,3,0,0,0,16,14Z"/><path class="cls-1" d="M21.09,17.08A6.49,6.49,0,0,0,17.5,16h-3A6.5,6.5,0,0,0,8,22.5V26a1,1,0,0,0,1,1H23a1,1,0,0,0,1-1V22.5A6.5,6.5,0,0,0,21.09,17.08Z"/></svg>