<svg id="icon" xmlns="http://www.w3.org/2000/svg" viewBox="0 0 32 32"><title>call-hold-sim2</title><path d="M25.55,20.72l-5.88-2.28a.7.7,0,0,0-.91.41l-.93,2.38a21.05,21.05,0,0,1-7-7l2.54-1.06a.72.72,0,0,0,.4-.93L11.36,6.43a.71.71,0,0,0-.94-.37s-2.73,1.25-3,1.43A2.24,2.24,0,0,0,6.08,10a23.5,23.5,0,0,0,16,15.91,2.39,2.39,0,0,0,2.63-1.36h0c.15-.34,1.19-2.91,1.19-2.91A.7.7,0,0,0,25.55,20.72Z"/><path d="M21,13a1,1,0,0,0,1-1V6a1,1,0,0,0-2,0v6A1,1,0,0,0,21,13Z"/><path d="M25,5a1,1,0,0,0-1,1v6a1,1,0,0,0,2,0V6A1,1,0,0,0,25,5Z"/><path d="M7.64,20.09A.39.39,0,0,0,7.38,20H3.78a.75.75,0,0,0-.78.72v6.56a.75.75,0,0,0,.78.72H9.22a.75.75,0,0,0,.78-.72V22.12a.35.35,0,0,0-.14-.28ZM8.5,27h-4v-.87L6,24.63c.42-.45.7-.76.83-.94a2,2,0,0,0,.28-.48,1.44,1.44,0,0,0,.08-.46A.66.66,0,0,0,7,22.22a.68.68,0,0,0-.5-.18,1.44,1.44,0,0,0-.64.16,3.88,3.88,0,0,0-.66.45l-.65-.8a3.87,3.87,0,0,1,.7-.53,2.69,2.69,0,0,1,.6-.24A3.29,3.29,0,0,1,6.54,21a2.16,2.16,0,0,1,.94.2,1.58,1.58,0,0,1,.63.57,1.54,1.54,0,0,1,.23.83,2.19,2.19,0,0,1-.14.77,2.68,2.68,0,0,1-.43.73,10.61,10.61,0,0,1-1,1.08L6,25.89V26H8.5Z"/></svg>