<svg id="icon" xmlns="http://www.w3.org/2000/svg" viewBox="0 0 32 32"><title>call-rtt-incoming</title><path d="M10,19V17H6v2a2,2,0,0,0,4,0Z"/><path d="M7,24a2,2,0,0,0,4,0V22H7Z"/><path d="M21,24a2,2,0,0,0,4,0V22H21Z"/><path d="M15,19V17H11v2a2,2,0,0,0,4,0Z"/><path d="M12,24a2,2,0,0,0,2,2h4a2,2,0,0,0,2-2V22H12Z"/><path d="M16,19a2,2,0,0,0,4,0V17H16Z"/><path d="M21,19a2,2,0,0,0,2,2h1a2,2,0,0,0,2-2V17H21Z"/><path d="M11.85,12.38a.69.69,0,0,0,.35-.92l-1-2.3A20.62,20.62,0,0,1,17,8.62V6A22.83,22.83,0,0,0,5,8.89a2.35,2.35,0,0,0-.87,2.77h0c.13.34,1.18,2.85,1.18,2.85a.69.69,0,0,0,.91.37Z"/><path d="M26.69,5.31a1,1,0,0,0-1.41,0L21,9.59V7a1,1,0,0,0-2,0v5a1,1,0,0,0,1,1h5a1,1,0,0,0,0-2H22.41l4.28-4.28A1,1,0,0,0,26.69,5.31Z"/></svg>