<svg id="icon" xmlns="http://www.w3.org/2000/svg" viewBox="0 0 32 32"><title>call-rtt-outgoing-sim2</title><path d="M8,19a2,2,0,0,0,2-2H6A2,2,0,0,0,8,19Z"/><path d="M21,24a2,2,0,0,0,4,0V22H21Z"/><path d="M11,19a2,2,0,0,0,4,0V17H11Z"/><path d="M11,24a2,2,0,0,0,2,2h5a2,2,0,0,0,2-2V22H11Z"/><path d="M16,19a2,2,0,0,0,4,0V17H16Z"/><path d="M21,19a2,2,0,0,0,2,2h1a2,2,0,0,0,2-2V17H21Z"/><path d="M7.64,20.09A.39.39,0,0,0,7.38,20H3.78a.75.75,0,0,0-.78.72v6.56a.75.75,0,0,0,.78.72H9.22a.75.75,0,0,0,.78-.72V22.12a.35.35,0,0,0-.14-.28ZM8.5,27h-4v-.87L6,24.63c.42-.45.7-.76.83-.94a2,2,0,0,0,.28-.48,1.44,1.44,0,0,0,.08-.46A.66.66,0,0,0,7,22.22a.68.68,0,0,0-.5-.18,1.44,1.44,0,0,0-.64.16,3.88,3.88,0,0,0-.66.45l-.65-.8a3.87,3.87,0,0,1,.7-.53,2.69,2.69,0,0,1,.6-.24A3.29,3.29,0,0,1,6.54,21a2.16,2.16,0,0,1,.94.2,1.58,1.58,0,0,1,.63.57,1.54,1.54,0,0,1,.23.83,2.19,2.19,0,0,1-.14.77,2.68,2.68,0,0,1-.43.73,10.61,10.61,0,0,1-1,1.08L6,25.89V26H8.5Z"/><path d="M4.13,11.66c.13.34,1.18,2.85,1.18,2.85a.69.69,0,0,0,.91.37l5.63-2.5a.69.69,0,0,0,.35-.92l-1-2.3A20.62,20.62,0,0,1,17,8.62V6A22.83,22.83,0,0,0,5,8.89a2.35,2.35,0,0,0-.87,2.77Z"/><path d="M26,5H21a1,1,0,0,0,0,2h2.58l-4.28,4.28a1,1,0,0,0,1.42,1.42L25,8.43V11a1,1,0,1,0,2,0V6A1,1,0,0,0,26,5Z"/></svg>