<svg id="icon" xmlns="http://www.w3.org/2000/svg" viewBox="0 0 32 32"><circle cx="17.87" cy="13.66" r="2.34"/><path d="M17.2,6.27a7.41,7.41,0,0,1,8.05,8.07.78.78,0,0,0,1.56.14,9,9,0,0,0-9.75-9.76.78.78,0,1,0,.14,1.55Z"/><path d="M17.39,8.05a.78.78,0,0,0,.14,1.56A4.09,4.09,0,0,1,22,14.06a.78.78,0,0,0,1.56.15,5.68,5.68,0,0,0-6.15-6.16Z"/><path d="M12.72,9.82l-1.56-1.5A1.13,1.13,0,0,0,10.45,8H7.27A1.28,1.28,0,0,0,6,9.29v5.42A1.28,1.28,0,0,0,7.27,16h4.46A1.28,1.28,0,0,0,13,14.71V10.57A1.38,1.38,0,0,0,12.72,9.82Zm-2.43,4.54a.64.64,0,1,1-1.28,0V10.12H8.07A.56.56,0,1,1,8.07,9H9.65a.64.64,0,0,1,.64.64Z"/><path d="M12,25H9V19a1,1,0,0,0-2,0v7a1,1,0,0,0,1,1h4a1,1,0,0,0,0-2Z"/><path d="M17.5,18h-5a1,1,0,0,0,0,2H14v6a1,1,0,0,0,2,0V20h1.5a1,1,0,0,0,0-2Z"/><path d="M24,20a1,1,0,0,0,0-2H20a1,1,0,0,0-1,1v7a1,1,0,0,0,1,1h4a1,1,0,0,0,0-2H21V23.5h2a1,1,0,0,0,0-2H21V20Z"/></svg>