<svg id="icon" xmlns="http://www.w3.org/2000/svg" viewBox="0 0 32 32"><path d="M25.55,20.72l-5.88-2.28a.7.7,0,0,0-.91.41l-.93,2.38a21.05,21.05,0,0,1-7-7l2.54-1.06a.72.72,0,0,0,.4-.93L11.36,6.43a.71.71,0,0,0-.94-.37s-2.73,1.25-3,1.43A2.24,2.24,0,0,0,6.08,10a23.5,23.5,0,0,0,16,15.91,2.39,2.39,0,0,0,2.63-1.36h0c.15-.34,1.19-2.91,1.19-2.91A.7.7,0,0,0,25.55,20.72Z"/><path d="M24.4,9l2.31-2.31a1,1,0,0,0-1.4-1.4L23,7.6,20.69,5.29a1,1,0,0,0-1.4,1.4L21.6,9l-2.31,2.31a1,1,0,0,0,1.4,1.4L23,10.4l2.31,2.31a1,1,0,0,0,1.4-1.4Z"/><path d="M9.72,21.82l-1.56-1.5A1.13,1.13,0,0,0,7.45,20H4.27A1.28,1.28,0,0,0,3,21.29v5.42A1.28,1.28,0,0,0,4.27,28H8.73A1.28,1.28,0,0,0,10,26.71V22.57A1.38,1.38,0,0,0,9.72,21.82ZM7.29,26.36a.64.64,0,1,1-1.28,0V22.12H5.07a.56.56,0,1,1,0-1.12H6.65a.64.64,0,0,1,.64.64Z"/></svg>