<svg id="icon" xmlns="http://www.w3.org/2000/svg" viewBox="0 0 32 32"><title>call-volte-sim2</title><path d="M13,15.28V10.12a.35.35,0,0,0-.14-.28L10.64,8.09A.38.38,0,0,0,10.39,8H6.78A.75.75,0,0,0,6,8.72v6.56a.75.75,0,0,0,.77.72h5.45A.75.75,0,0,0,13,15.28ZM11.51,15h-4v-.87L9,12.63a10.71,10.71,0,0,0,.83-.94,1.74,1.74,0,0,0,.28-.48,1.22,1.22,0,0,0,.09-.46.66.66,0,0,0-.19-.53.68.68,0,0,0-.5-.18,1.52,1.52,0,0,0-.65.16,3.83,3.83,0,0,0-.65.45l-.65-.8a4.26,4.26,0,0,1,.69-.53,3,3,0,0,1,.61-.24A3.26,3.26,0,0,1,9.54,9a2.21,2.21,0,0,1,1,.2,1.58,1.58,0,0,1,.63.57,1.54,1.54,0,0,1,.23.83,2.19,2.19,0,0,1-.14.77,3,3,0,0,1-.43.73,10.61,10.61,0,0,1-1,1.08L9,13.89V14h2.49Z"/><circle cx="17.9" cy="13.66" r="2.34"/><polygon points="9 18.77 7.02 18.77 7.02 27 12.45 27 12.45 25.09 9 25.09 9 18.77"/><polygon points="11.71 20.68 14.14 20.68 14.14 27 16.12 27 16.12 20.68 18.59 20.68 18.59 18.77 11.71 18.77 11.71 20.68"/><polygon points="19.43 27 25.1 27 25.1 25.09 21.41 25.09 21.41 23.91 24.53 23.91 24.53 21.99 21.41 21.99 21.41 20.68 25.11 20.68 25.11 18.77 19.43 18.77 19.43 27"/><path d="M24.24,7.31a9,9,0,0,0-7.16-2.59.78.78,0,1,0,.14,1.55,7.41,7.41,0,0,1,8.05,8.07.78.78,0,0,0,1.56.14A9,9,0,0,0,24.24,7.31Z"/><path d="M20.82,10.79A4.1,4.1,0,0,1,22,14.06a.78.78,0,1,0,1.55.15,5.66,5.66,0,0,0-6.15-6.16.78.78,0,0,0,.14,1.56A4.08,4.08,0,0,1,20.82,10.79Z"/></svg>