<svg id="icon" xmlns="http://www.w3.org/2000/svg" viewBox="0 0 32 32"><defs><style>.cls-1{fill-rule:evenodd;}</style></defs><title>call-rtt</title><path class="cls-1" d="M27.06,8.8A22.82,22.82,0,0,0,5,8.89a2.35,2.35,0,0,0-.87,2.77h0c.13.34,1.18,2.85,1.18,2.85a.69.69,0,0,0,.91.37l5.63-2.5a.69.69,0,0,0,.35-.92l-1-2.3a20.54,20.54,0,0,1,9.61,0l-1,2.51a.71.71,0,0,0,.37.92L25.88,15a.7.7,0,0,0,.91-.4s1-2.76,1.09-3.08A2.22,2.22,0,0,0,27.06,8.8Z"/><path class="cls-1" d="M10,19V17H6v2a2,2,0,0,0,4,0Z"/><path class="cls-1" d="M7,24a2,2,0,0,0,4,0V22H7Z"/><path class="cls-1" d="M21,24a2,2,0,0,0,4,0V22H21Z"/><path class="cls-1" d="M15,19V17H11v2a2,2,0,0,0,4,0Z"/><path class="cls-1" d="M12,24a2,2,0,0,0,2,2h4a2,2,0,0,0,2-2V22H12Z"/><path class="cls-1" d="M16,19a2,2,0,0,0,4,0V17H16Z"/><path class="cls-1" d="M21,19a2,2,0,0,0,2,2h1a2,2,0,0,0,2-2V17H21Z"/></svg>