<svg id="icon" xmlns="http://www.w3.org/2000/svg" viewBox="0 0 32 32"><path d="M25.55,20.72l-5.88-2.28a.7.7,0,0,0-.91.41l-.93,2.38a21.05,21.05,0,0,1-7-7l2.54-1.06a.72.72,0,0,0,.4-.93L11.36,6.43a.71.71,0,0,0-.94-.37s-2.73,1.25-3,1.43A2.24,2.24,0,0,0,6.08,10a23.5,23.5,0,0,0,16,15.91,2.39,2.39,0,0,0,2.63-1.36h0c.15-.34,1.19-2.91,1.19-2.91A.7.7,0,0,0,25.55,20.72Z"/><path d="M21,13a1,1,0,0,0,1-1V6a1,1,0,0,0-2,0v6A1,1,0,0,0,21,13Z"/><path d="M25,5a1,1,0,0,0-1,1v6a1,1,0,0,0,2,0V6A1,1,0,0,0,25,5Z"/><path d="M9.72,21.82l-1.56-1.5A1.13,1.13,0,0,0,7.45,20H4.27A1.28,1.28,0,0,0,3,21.29v5.42A1.28,1.28,0,0,0,4.27,28H8.73A1.28,1.28,0,0,0,10,26.71V22.57A1.38,1.38,0,0,0,9.72,21.82Zm-1.6,5.1a.67.67,0,0,1-.39.08H5.3a.7.7,0,0,1-.53-.16.55.55,0,0,1-.15-.38A.78.78,0,0,1,4.85,26l2-2.51a1.13,1.13,0,0,0,.31-.77.59.59,0,0,0-.67-.62.62.62,0,0,0-.69.49.78.78,0,0,1-.17.37.52.52,0,0,1-.42.19.54.54,0,0,1-.56-.57,1.6,1.6,0,0,1,.52-1.07A2,2,0,0,1,6.52,21a1.62,1.62,0,0,1,1.82,1.66,2,2,0,0,1-.58,1.41L6.26,26H7.73a.65.65,0,0,1,.39.09.47.47,0,0,1,.26.44A.49.49,0,0,1,8.12,26.92Z"/></svg>