<svg id="Icon" xmlns="http://www.w3.org/2000/svg" viewBox="0 0 16 16"><title>call-forwarding-sim2</title><path d="M1.15,6H5.38l.55-.23A.57.57,0,0,0,6.25,5L4.29.34A.58.58,0,0,0,3.53.05s-2.18,1-2.41,1.14a1.8,1.8,0,0,0-1.06,2A19.34,19.34,0,0,0,1.15,6Z"/><path d="M15.65,11.79,10.94,10a.57.57,0,0,0-.73.34l-.74,1.9a16.72,16.72,0,0,1-1.47-1v2.55a18.57,18.57,0,0,0,4.9,2.22A1.91,1.91,0,0,0,15,14.85h0c.12-.27,1-2.33,1-2.33A.57.57,0,0,0,15.65,11.79Z"/><path d="M5.16,7.32A1.16,1.16,0,0,0,4.46,7H1.27A1.28,1.28,0,0,0,0,8.29v6.42A1.28,1.28,0,0,0,1.27,16H5.73A1.28,1.28,0,0,0,7,14.71V9.57a1.38,1.38,0,0,0-.28-.75ZM4.88,14a.6.6,0,0,1-.33.07H2.48A.53.53,0,0,1,2,13.93a.44.44,0,0,1-.13-.32.66.66,0,0,1,.19-.44L3.82,11a1,1,0,0,0,.27-.66.5.5,0,0,0-.57-.53.53.53,0,0,0-.59.42.61.61,0,0,1-.14.32.45.45,0,0,1-.36.16.48.48,0,0,1-.37-.17.47.47,0,0,1-.1-.32,1.32,1.32,0,0,1,.43-.91,1.59,1.59,0,0,1,1.13-.4,1.37,1.37,0,0,1,1.54,1.42,1.73,1.73,0,0,1-.49,1.21L3.29,13.17H4.55a.56.56,0,0,1,.33.08.4.4,0,0,1,.21.37A.41.41,0,0,1,4.88,14Z"/><path d="M9.44,6.83a3.08,3.08,0,0,0,4.35,0l2-2a.75.75,0,1,0-1.06-1.06l-2,2A1.58,1.58,0,0,1,10.5,3.54l1-1v.68a.75.75,0,0,0,1.5,0V.81a.74.74,0,0,0-.21-.59A.75.75,0,0,0,12.21,0H9.71a.75.75,0,0,0,0,1.5h.7l-1,1A3.06,3.06,0,0,0,9.44,6.83Z"/></svg>