<svg id="icon" xmlns="http://www.w3.org/2000/svg" viewBox="0 0 32 32"><title>call-volte-sim1</title><path d="M6.78,16h5.44a.75.75,0,0,0,.78-.72V10.12a.35.35,0,0,0-.14-.28L10.64,8.09A.39.39,0,0,0,10.38,8H6.78A.75.75,0,0,0,6,8.72v6.56A.75.75,0,0,0,6.78,16ZM9.17,9H10v6H9V10.18l-.86.64-.48-.6Z"/><polygon points="8.98 18.77 7 18.77 7 27 12.43 27 12.43 25.09 8.98 25.09 8.98 18.77"/><polygon points="11.69 20.68 14.12 20.68 14.12 27 16.1 27 16.1 20.68 18.57 20.68 18.57 18.77 11.69 18.77 11.69 20.68"/><polygon points="19.41 27 25.08 27 25.08 25.09 21.39 25.09 21.39 23.91 24.51 23.91 24.51 21.99 21.39 21.99 21.39 20.68 25.09 20.68 25.09 18.77 19.41 18.77 19.41 27"/><circle cx="17.87" cy="13.66" r="2.34"/><path d="M17.2,6.27a7.41,7.41,0,0,1,8.05,8.07.78.78,0,0,0,1.56.14,9,9,0,0,0-9.75-9.76.78.78,0,1,0,.14,1.55Z"/><path d="M17.39,8.05a.78.78,0,0,0,.14,1.56A4.09,4.09,0,0,1,22,14.06a.78.78,0,0,0,1.56.15,5.68,5.68,0,0,0-6.15-6.16Z"/></svg>