<svg id="icon" xmlns="http://www.w3.org/2000/svg" viewBox="0 0 32 32"><title>call-wifi-32px</title><path d="M25.55,20.72l-5.88-2.28a.7.7,0,0,0-.91.41l-.93,2.38a21.05,21.05,0,0,1-7-7l2.54-1.06a.72.72,0,0,0,.4-.93L11.36,6.43a.71.71,0,0,0-.94-.37s-2.73,1.25-3,1.43A2.24,2.24,0,0,0,6.08,10a23.5,23.5,0,0,0,16,15.91,2.39,2.39,0,0,0,2.63-1.36h0c.15-.34,1.19-2.91,1.19-2.91A.7.7,0,0,0,25.55,20.72Z"/><path d="M18,11a1,1,0,0,0,0,2,1,1,0,0,1,1,1,1,1,0,0,0,2,0A3,3,0,0,0,18,11Z"/><path d="M23,15a1,1,0,0,0,1-1,6,6,0,0,0-6-6,1,1,0,0,0,0,2,4,4,0,0,1,4,4A1,1,0,0,0,23,15Z"/><path d="M18,5a1,1,0,0,0,0,2,7,7,0,0,1,7,7,1,1,0,0,0,2,0A9,9,0,0,0,18,5Z"/></svg>