<svg id="icon" xmlns="http://www.w3.org/2000/svg" viewBox="0 0 32 32"><title>call-sim1</title><path d="M25.55,20.72l-5.88-2.28a.7.7,0,0,0-.91.41l-.93,2.38a21.05,21.05,0,0,1-7-7l2.54-1.06a.72.72,0,0,0,.4-.93L11.36,6.43a.71.71,0,0,0-.94-.37s-2.73,1.25-3,1.43A2.24,2.24,0,0,0,6.08,10a23.5,23.5,0,0,0,16,15.91,2.39,2.39,0,0,0,2.63-1.36h0c.15-.34,1.19-2.91,1.19-2.91A.7.7,0,0,0,25.55,20.72Z"/><path d="M7.64,20.09A.39.39,0,0,0,7.38,20H3.78a.75.75,0,0,0-.78.72v6.56a.75.75,0,0,0,.78.72H9.22a.75.75,0,0,0,.78-.72V22.12a.35.35,0,0,0-.14-.28ZM7,27H6V22.18l-.86.64-.48-.6L6.17,21H7Z"/></svg>