<svg id="icon" xmlns="http://www.w3.org/2000/svg" viewBox="0 0 32 32"><defs><style>.cls-1{fill-rule:evenodd;}</style></defs><title>call-merge</title><path class="cls-1" d="M21.88,19.94,17.5,16.29V9.13l2.39,2.39a1.49,1.49,0,0,0,2.12,0A1.51,1.51,0,0,0,22,9.4l-5-4.95A1.51,1.51,0,0,0,16,4a1.49,1.49,0,0,0-1.06.44L10,9.4a1.5,1.5,0,0,0,2.12,2.12L14.5,9.13v7.16l-4.38,3.65A4.47,4.47,0,0,0,8.5,23.39v3.1a1.5,1.5,0,0,0,3,0v-3.1A1.52,1.52,0,0,1,12,22.24l4-3.3,4,3.3a1.52,1.52,0,0,1,.54,1.15v3.1a1.5,1.5,0,0,0,3,0v-3.1A4.47,4.47,0,0,0,21.88,19.94Z"/></svg>