<svg xmlns="http://www.w3.org/2000/svg" viewBox="0 0 16 16"><title>call-emergency</title><g id="Icon"><path d="M15.65,11.79,10.94,10a.57.57,0,0,0-.73.33l-.74,1.9A16.76,16.76,0,0,1,3.9,6.62l2-.85A.57.57,0,0,0,6.25,5L4.29.34A.57.57,0,0,0,3.53,0s-2.18,1-2.41,1.14a1.8,1.8,0,0,0-1.06,2A18.81,18.81,0,0,0,12.9,15.94,1.91,1.91,0,0,0,15,14.85h0c.12-.28,1-2.33,1-2.33A.57.57,0,0,0,15.65,11.79Z"/><path d="M15,0H10A1,1,0,0,0,9,1V6a1,1,0,0,0,1,1h5a1,1,0,0,0,1-1V1A1,1,0,0,0,15,0Zm0,4H13V6H12V4H10V3h2V1h1V3h2Z"/></g></svg>