<svg id="icon" xmlns="http://www.w3.org/2000/svg" viewBox="0 0 32 32"><path d="M8,19a2,2,0,0,0,2-2H6A2,2,0,0,0,8,19Z"/><path d="M21,24a2,2,0,0,0,4,0V22H21Z"/><path d="M11,19a2,2,0,0,0,4,0V17H11Z"/><path d="M11,24a2,2,0,0,0,2,2h5a2,2,0,0,0,2-2V22H11Z"/><path d="M16,19a2,2,0,0,0,4,0V17H16Z"/><path d="M21,19a2,2,0,0,0,2,2h1a2,2,0,0,0,2-2V17H21Z"/><path d="M4.13,11.66c.13.34,1.18,2.85,1.18,2.85a.69.69,0,0,0,.91.37l5.63-2.5a.69.69,0,0,0,.35-.92l-1-2.3A20.62,20.62,0,0,1,17,8.62V6A22.83,22.83,0,0,0,5,8.89a2.35,2.35,0,0,0-.87,2.77Z"/><path d="M26.69,5.31a1,1,0,0,0-1.41,0L21,9.59V7a1,1,0,0,0-2,0v5a1,1,0,0,0,1,1h5a1,1,0,0,0,0-2H22.41l4.28-4.28A1,1,0,0,0,26.69,5.31Z"/><path d="M9.72,21.82l-1.56-1.5A1.13,1.13,0,0,0,7.45,20H4.27A1.28,1.28,0,0,0,3,21.29v5.42A1.28,1.28,0,0,0,4.27,28H8.73A1.28,1.28,0,0,0,10,26.71V22.57A1.38,1.38,0,0,0,9.72,21.82ZM7.29,26.36a.64.64,0,1,1-1.28,0V22.12H5.07a.56.56,0,1,1,0-1.12H6.65a.64.64,0,0,1,.64.64Z"/></svg>