<svg xmlns="http://www.w3.org/2000/svg" viewBox="0 0 16 16"><title>call-wifi</title><g id="Icon"><path d="M15.65,11.79,10.94,10a.57.57,0,0,0-.73.33l-.74,1.9A16.76,16.76,0,0,1,3.9,6.62l2-.85A.57.57,0,0,0,6.25,5L4.29.34A.57.57,0,0,0,3.53,0s-2.18,1-2.41,1.14a1.8,1.8,0,0,0-1.06,2A18.81,18.81,0,0,0,12.9,15.94,1.91,1.91,0,0,0,15,14.85h0c.12-.28,1-2.33,1-2.33A.57.57,0,0,0,15.65,11.79Z"/><path d="M8,5.5a.5.5,0,0,0,.5.5A1.5,1.5,0,0,1,10,7.5a.5.5,0,0,0,1,0A2.5,2.5,0,0,0,8.5,5,.5.5,0,0,0,8,5.5Z"/><path d="M12.48,7.49a.51.51,0,1,0,1,0,5,5,0,0,0-5-5,.51.51,0,1,0,0,1A4,4,0,0,1,12.48,7.49Z"/><path d="M8.48,1A6.52,6.52,0,0,1,15,7.5a.5.5,0,0,0,1,0A7.52,7.52,0,0,0,8.48,0a.5.5,0,0,0,0,1Z"/></g></svg>