<svg id="icon" xmlns="http://www.w3.org/2000/svg" viewBox="0 0 32 32"><title>call-vowifi-sim2</title><path d="M10.64,8.09A.38.38,0,0,0,10.39,8H6.78A.75.75,0,0,0,6,8.72v6.56a.75.75,0,0,0,.77.72h5.45a.75.75,0,0,0,.78-.72V10.12a.35.35,0,0,0-.14-.28ZM11.51,15h-4v-.87L9,12.63a10.71,10.71,0,0,0,.83-.94,1.74,1.74,0,0,0,.28-.48,1.22,1.22,0,0,0,.09-.46.66.66,0,0,0-.19-.53.68.68,0,0,0-.5-.18,1.52,1.52,0,0,0-.65.16,3.83,3.83,0,0,0-.65.45l-.65-.8a4.26,4.26,0,0,1,.69-.53,3,3,0,0,1,.61-.24A3.26,3.26,0,0,1,9.54,9a2.21,2.21,0,0,1,1,.2,1.58,1.58,0,0,1,.63.57,1.54,1.54,0,0,1,.23.83,2.19,2.19,0,0,1-.14.77,3,3,0,0,1-.43.73,10.61,10.61,0,0,1-1,1.08L9,13.89V14h2.49Z"/><circle cx="17.9" cy="13.66" r="2.34"/><polygon points="11.88 23.91 10.73 18.75 9.05 18.75 7.92 23.91 6.97 18.75 5 18.75 6.75 26.98 8.8 26.98 9.88 22.29 10.99 26.98 13.04 26.98 14.79 18.75 12.82 18.75 11.88 23.91"/><rect x="15.58" y="21.98" width="1.91" height="4.99"/><rect x="15.58" y="18.75" width="1.91" height="1.91"/><rect x="25.09" y="21.98" width="1.91" height="4.99"/><rect x="25.09" y="18.75" width="1.91" height="1.91"/><polygon points="18.75 26.98 20.73 26.98 20.73 23.89 23.71 23.89 23.71 21.98 20.73 21.98 20.73 20.66 24.03 20.66 24.03 18.75 18.75 18.75 18.75 26.98"/><path d="M17.22,6.27a7.41,7.41,0,0,1,8.05,8.07.78.78,0,0,0,1.56.14,9,9,0,0,0-9.75-9.76.78.78,0,1,0,.14,1.55Z"/><path d="M17.41,8.05a.78.78,0,0,0,.14,1.56A4.1,4.1,0,0,1,22,14.06a.78.78,0,1,0,1.55.15,5.66,5.66,0,0,0-6.15-6.16Z"/></svg>