<?xml version="1.0" encoding="utf-8"?>
<!-- Generator: Adobe Illustrator 15.0.0, SVG Export Plug-In . SVG Version: 6.00 Build 0)  -->
<!DOCTYPE svg PUBLIC "-//W3C//DTD SVG 1.1//EN" "http://www.w3.org/Graphics/SVG/1.1/DTD/svg11.dtd">
<svg version="1.1" id="icon" xmlns="http://www.w3.org/2000/svg" xmlns:xlink="http://www.w3.org/1999/xlink" x="0px" y="0px"
	 width="24px" height="24px" viewBox="0 0 24 24" enable-background="new 0 0 24 24" xml:space="preserve">
<title>call-rtt-outgoing</title>
<g>
	<polygon points="4.858,5.65 4.667,6.739 8.804,6.739 8.996,5.65 	"/>
	<polygon points="4.258,9.57 4.014,10.659 8.151,10.659 8.313,9.57 	"/>
	<polygon points="3.036,17.19 2.708,18.279 8.395,18.279 8.723,17.19 	"/>
	<polygon points="3.66,13.271 3.361,14.36 10.764,14.36 10.956,13.271 	"/>
	<polygon points="10.111,5.65 9.159,10.223 10.247,10.223 10.981,6.957 13.594,6.957 11.635,17.19 10.328,17.19 10.111,18.279 
		14.247,18.279 14.465,17.19 12.941,17.19 15.118,6.957 17.731,6.957 17.078,10.223 18.167,10.223 19.255,5.65 	"/>
	<path d="M20.156,13.847l-2.717-0.462l0.104-0.61l3.759,0.64l-0.639,3.759l-0.611-0.104l0.462-2.716l-4.045,2.868l-0.359-0.504
		L20.156,13.847z"/>
</g>
</svg>
