<svg id="icon" xmlns="http://www.w3.org/2000/svg" viewBox="0 0 32 32"><path d="M8,19a2,2,0,0,0,2-2H6A2,2,0,0,0,8,19Z"/><path d="M21,24a2,2,0,0,0,4,0V22H21Z"/><path d="M11,19a2,2,0,0,0,4,0V17H11Z"/><path d="M11,24a2,2,0,0,0,2,2h5a2,2,0,0,0,2-2V22H11Z"/><path d="M16,19a2,2,0,0,0,4,0V17H16Z"/><path d="M21,19a2,2,0,0,0,2,2h1a2,2,0,0,0,2-2V17H21Z"/><path d="M4.13,11.66c.13.34,1.18,2.85,1.18,2.85a.69.69,0,0,0,.91.37l5.63-2.5a.69.69,0,0,0,.35-.92l-1-2.3A20.62,20.62,0,0,1,17,8.62V6A22.83,22.83,0,0,0,5,8.89a2.35,2.35,0,0,0-.87,2.77Z"/><path d="M22,12V6a1,1,0,0,0-2,0v6a1,1,0,0,0,2,0Z"/><path d="M25,5a1,1,0,0,0-1,1v6a1,1,0,0,0,2,0V6A1,1,0,0,0,25,5Z"/><path d="M9.72,21.82l-1.56-1.5A1.13,1.13,0,0,0,7.45,20H4.27A1.28,1.28,0,0,0,3,21.29v5.42A1.28,1.28,0,0,0,4.27,28H8.73A1.28,1.28,0,0,0,10,26.71V22.57A1.38,1.38,0,0,0,9.72,21.82Zm-1.6,5.1a.67.67,0,0,1-.39.08H5.3a.7.7,0,0,1-.53-.16.55.55,0,0,1-.15-.38A.78.78,0,0,1,4.85,26l2-2.51a1.13,1.13,0,0,0,.31-.77.59.59,0,0,0-.67-.62.62.62,0,0,0-.69.49.78.78,0,0,1-.17.37.52.52,0,0,1-.42.19.54.54,0,0,1-.56-.57,1.6,1.6,0,0,1,.52-1.07A2,2,0,0,1,6.52,21a1.62,1.62,0,0,1,1.82,1.66,2,2,0,0,1-.58,1.41L6.26,26H7.73a.65.65,0,0,1,.39.09.47.47,0,0,1,.26.44A.49.49,0,0,1,8.12,26.92Z"/></svg>