<svg id="icon" xmlns="http://www.w3.org/2000/svg" viewBox="0 0 32 32"><defs><style>.cls-1{fill-rule:evenodd;}</style></defs><title>call-incoming</title><path class="cls-1" d="M25.55,20.72l-5.88-2.28a.7.7,0,0,0-.91.41l-.93,2.38a21.05,21.05,0,0,1-7-7l2.54-1.06a.72.72,0,0,0,.4-.93L11.36,6.43a.71.71,0,0,0-.94-.37s-2.73,1.25-3,1.43A2.24,2.24,0,0,0,6.08,10a23.5,23.5,0,0,0,16,15.91,2.39,2.39,0,0,0,2.63-1.36h0c.15-.34,1.19-2.91,1.19-2.91A.7.7,0,0,0,25.55,20.72Z"/><path class="cls-1" d="M26.69,5.31a1,1,0,0,0-1.41,0L21,9.59V7a1,1,0,0,0-2,0v5a1,1,0,0,0,1,1h5a1,1,0,0,0,0-2H22.41l4.28-4.28A1,1,0,0,0,26.69,5.31Z"/></svg>