<svg id="Icon" xmlns="http://www.w3.org/2000/svg" viewBox="0 0 16 16"><title>call-forwarding-sim1</title><path d="M1.15,6H5.38l.55-.23A.57.57,0,0,0,6.25,5L4.29.34A.58.58,0,0,0,3.53.05s-2.18,1-2.41,1.14a1.8,1.8,0,0,0-1.06,2A19.34,19.34,0,0,0,1.15,6Z"/><path d="M15.65,11.79,10.94,10a.57.57,0,0,0-.73.34l-.74,1.9a16.72,16.72,0,0,1-1.47-1v2.55a18.57,18.57,0,0,0,4.9,2.22A1.91,1.91,0,0,0,15,14.85h0c.12-.27,1-2.33,1-2.33A.57.57,0,0,0,15.65,11.79Z"/><path d="M5.16,7.32A1.13,1.13,0,0,0,4.45,7H1.27A1.28,1.28,0,0,0,0,8.29v6.42A1.28,1.28,0,0,0,1.27,16H5.73A1.28,1.28,0,0,0,7,14.71V9.57a1.38,1.38,0,0,0-.28-.75Zm-.9,6.2a.54.54,0,1,1-1.08,0V9.89H2.39a.48.48,0,1,1,0-1H3.72a.54.54,0,0,1,.54.55Z"/><path d="M9.44,6.83a3.08,3.08,0,0,0,4.35,0l2-2a.75.75,0,1,0-1.06-1.06l-2,2A1.58,1.58,0,0,1,10.5,3.54l1-1v.68a.75.75,0,0,0,1.5,0V.81a.74.74,0,0,0-.21-.59A.75.75,0,0,0,12.21,0H9.71a.75.75,0,0,0,0,1.5h.7l-1,1A3.06,3.06,0,0,0,9.44,6.83Z"/></svg>