<?xml version="1.0" encoding="utf-8"?>
<!-- Generator: Adobe Illustrator 15.0.0, SVG Export Plug-In . SVG Version: 6.00 Build 0)  -->
<!DOCTYPE svg PUBLIC "-//W3C//DTD SVG 1.1//EN" "http://www.w3.org/Graphics/SVG/1.1/DTD/svg11.dtd">
<svg version="1.1" id="icon" xmlns="http://www.w3.org/2000/svg" xmlns:xlink="http://www.w3.org/1999/xlink" x="0px" y="0px"
	 width="24px" height="24px" viewBox="0 0 24 24" enable-background="new 0 0 24 24" xml:space="preserve">
<title>call-rtt</title>
<polygon points="5.307,5.123 5.095,6.333 9.692,6.333 9.904,5.123 "/>
<polygon points="4.64,9.477 4.369,10.688 8.965,10.688 9.146,9.477 "/>
<polygon points="3.282,17.945 2.917,19.154 9.236,19.154 9.601,17.945 "/>
<polygon points="3.975,13.591 3.643,14.8 11.868,14.8 12.081,13.591 "/>
<polygon points="11.142,5.123 10.085,10.202 11.293,10.202 12.111,6.574 15.014,6.574 12.836,17.945 11.385,17.945 11.142,19.154 
	15.739,19.154 15.981,17.945 14.288,17.945 16.706,6.574 19.61,6.574 18.886,10.202 20.094,10.202 21.304,5.123 "/>
</svg>
