<svg id="icon" xmlns="http://www.w3.org/2000/svg" viewBox="0 0 32 32"><title>call-hold-sim2</title><path d="M25.55,20.72l-5.88-2.29a.71.71,0,0,0-.91.41l-.93,2.38a21,21,0,0,1-7-7l2.54-1.06a.71.71,0,0,0,.4-.93L11.36,6.43a.72.72,0,0,0-.94-.37s-2.73,1.26-3,1.43A2.25,2.25,0,0,0,6.08,10a23.5,23.5,0,0,0,16,15.91,2.39,2.39,0,0,0,2.63-1.36h0c.15-.35,1.2-2.91,1.2-2.91A.71.71,0,0,0,25.55,20.72Z"/><path d="M21,13a1,1,0,0,0,1-1V6a1,1,0,0,0-2,0v6A1,1,0,0,0,21,13Z"/><path d="M25,5a1,1,0,0,0-1,1v6a1,1,0,0,0,2,0V6A1,1,0,0,0,25,5Z"/><path d="M7.64,20.09A.41.41,0,0,0,7.38,20H3.78a.75.75,0,0,0-.78.72v6.56a.75.75,0,0,0,.78.72H9.22a.75.75,0,0,0,.78-.72V22.12a.35.35,0,0,0-.14-.27ZM8.5,27h-4v-.87l1.43-1.5q.64-.68.83-.94a2.08,2.08,0,0,0,.28-.48,1.27,1.27,0,0,0,.09-.46A.69.69,0,0,0,7,22.22a.72.72,0,0,0-.5-.17,1.41,1.41,0,0,0-.64.16,3.31,3.31,0,0,0-.65.45l-.65-.81a4.28,4.28,0,0,1,.7-.53,2.5,2.5,0,0,1,.6-.24A3,3,0,0,1,6.54,21a2.1,2.1,0,0,1,.94.2,1.52,1.52,0,0,1,.64.57,1.55,1.55,0,0,1,.23.83,2.11,2.11,0,0,1-.14.77,3,3,0,0,1-.43.73,10.69,10.69,0,0,1-1,1.07L6,25.89v.06H8.5Z"/></svg>