<svg xmlns="http://www.w3.org/2000/svg" viewBox="0 0 16 16"><title>call-forwarding</title><g id="Icon"><path d="M15.65,11.79,10.94,10a.57.57,0,0,0-.73.33l-.74,1.9A16.76,16.76,0,0,1,3.9,6.62l2-.85A.57.57,0,0,0,6.25,5L4.29.34A.57.57,0,0,0,3.53,0s-2.18,1-2.41,1.14a1.8,1.8,0,0,0-1.06,2A18.81,18.81,0,0,0,12.9,15.94,1.91,1.91,0,0,0,15,14.85h0c.12-.28,1-2.33,1-2.33A.57.57,0,0,0,15.65,11.79Z"/><path d="M9.48,6.83a3.08,3.08,0,0,0,4.36,0l2-2a.75.75,0,1,0-1.06-1.06l-2,2a1.58,1.58,0,0,1-2.23-2.23l1-1v.68a.75.75,0,0,0,1.5,0V.81a.74.74,0,0,0-.21-.59A.75.75,0,0,0,12.26,0H9.75a.75.75,0,0,0,0,1.5h.7l-1,1A3.08,3.08,0,0,0,9.48,6.83Z"/></g></svg>