<svg id="Icon" xmlns="http://www.w3.org/2000/svg" viewBox="0 0 16 16"><defs><style>.cls-1{fill-rule:evenodd;}</style></defs><title>callback-emergency</title><path class="cls-1" d="M15.69,11.84,9.7,2A2,2,0,0,0,6.3,2l-6,9.87A2.06,2.06,0,0,0,2,15H14A2.06,2.06,0,0,0,15.69,11.84Zm-3,.27-.59,1.11h0a1,1,0,0,1-1.1.43,9.38,9.38,0,0,1-5.77-7c-.1-.48.28-.78.62-1C6,5.69,7.15,5.3,7.15,5.3a.29.29,0,0,1,.36.18l.75,2.43a.28.28,0,0,1-.2.35L7,8.59a8.38,8.38,0,0,0,2.5,3l.46-.91a.29.29,0,0,1,.38-.13l2.26,1.14A.28.28,0,0,1,12.73,12.11Z"/></svg>