<svg id="icon" xmlns="http://www.w3.org/2000/svg" viewBox="0 0 32 32"><title>call-emergency-32px</title><path d="M25.55,20.72l-5.88-2.29a.71.71,0,0,0-.91.41l-.93,2.38a21,21,0,0,1-7-7l2.54-1.06a.71.71,0,0,0,.4-.93L11.36,6.43a.72.72,0,0,0-.94-.37s-2.73,1.26-3,1.43A2.25,2.25,0,0,0,6.08,10a23.5,23.5,0,0,0,16,15.91,2.39,2.39,0,0,0,2.63-1.36h0c.15-.35,1.2-2.91,1.2-2.91A.71.71,0,0,0,25.55,20.72Z"/><path d="M27,5H19a1,1,0,0,0-1,1v8a1,1,0,0,0,1,1h8a1,1,0,0,0,1-1V6A1,1,0,0,0,27,5Zm-1,6H24v2H22V11H20V9h2V7h2V9h2Z"/></svg>