<svg id="icon" xmlns="http://www.w3.org/2000/svg" viewBox="0 0 32 32"><circle cx="17.9" cy="13.66" r="2.34"/><path d="M24.24,7.31a9,9,0,0,0-7.16-2.59.78.78,0,1,0,.14,1.55,7.41,7.41,0,0,1,8.05,8.07.78.78,0,0,0,1.56.14A9,9,0,0,0,24.24,7.31Z"/><path d="M20.82,10.79A4.1,4.1,0,0,1,22,14.06a.78.78,0,1,0,1.55.15,5.66,5.66,0,0,0-6.15-6.16.78.78,0,0,0,.14,1.56A4.08,4.08,0,0,1,20.82,10.79Z"/><path d="M7.27,16h4.46A1.28,1.28,0,0,0,13,14.71V10.57a1.38,1.38,0,0,0-.28-.75l-1.56-1.5A1.13,1.13,0,0,0,10.45,8H7.27A1.28,1.28,0,0,0,6,9.29v5.42A1.28,1.28,0,0,0,7.27,16Zm2.25-5.95a.62.62,0,0,0-.69.49.78.78,0,0,1-.17.37.52.52,0,0,1-.42.19.54.54,0,0,1-.56-.57A1.6,1.6,0,0,1,8.2,9.46,2,2,0,0,1,9.52,9a1.62,1.62,0,0,1,1.82,1.66,2,2,0,0,1-.58,1.41L9.26,14h1.47a.65.65,0,0,1,.39.09.47.47,0,0,1,.26.44.49.49,0,0,1-.26.44.67.67,0,0,1-.39.08H8.3a.7.7,0,0,1-.53-.16.55.55,0,0,1-.15-.38A.78.78,0,0,1,7.85,14l2-2.51a1.13,1.13,0,0,0,.31-.77A.59.59,0,0,0,9.52,10.05Z"/><path d="M12,25H9V19a1,1,0,0,0-2,0v7a1,1,0,0,0,1,1h4a1,1,0,0,0,0-2Z"/><path d="M17.5,18h-5a1,1,0,0,0,0,2H14v6a1,1,0,0,0,2,0V20h1.5a1,1,0,0,0,0-2Z"/><path d="M24,20a1,1,0,0,0,0-2H20a1,1,0,0,0-1,1v7a1,1,0,0,0,1,1h4a1,1,0,0,0,0-2H21V23.5h2a1,1,0,0,0,0-2H21V20Z"/></svg>