<svg xmlns="http://www.w3.org/2000/svg" viewBox="0 0 16 16"><title>camera-switch</title><g id="Icon"><circle cx="8" cy="6" r="2.76"/><path d="M2.22,11H13.78A1.19,1.19,0,0,0,15,9.84V2.7C15,2,14.46,1,13.78,1H11.2L10.43.3c0-.17-.44-.3-.61-.3H6.17C6,0,5.56.13,5.56.3L4.8,1H2.22C1.54,1,1,2,1,2.7V9.84A1.19,1.19,0,0,0,2.22,11ZM8,2a4,4,0,0,1,4,4h0A4,4,0,1,1,8,2Z"/><path d="M16,11l-3.16,1.6,1.13.69a17.73,17.73,0,0,1-5.94,1,17.71,17.71,0,0,1-6-1l1.17-.74L0,11l0,3.54,1.07-.68A10.46,10.46,0,0,0,8,16a10.46,10.46,0,0,0,6.88-2.15l1.12.68Z"/></g></svg>