<svg id="icon" xmlns="http://www.w3.org/2000/svg" viewBox="0 0 32 32"><title>camera-lens-switch</title><path d="M25,9H21.5L20.24,7.11A2.5,2.5,0,0,0,18.16,6H13.84a2.5,2.5,0,0,0-2.08,1.11L10.5,9H7a2,2,0,0,0-2,2V23a2,2,0,0,0,2,2H25a2,2,0,0,0,2-2V11A2,2,0,0,0,25,9ZM20.91,22.18a.82.82,0,0,1-1.64,0V22A6,6,0,0,1,10,17a.82.82,0,0,1,.82-.82h0a.82.82,0,0,1,.82.82,4.35,4.35,0,0,0,6.46,3.82h-.19a.82.82,0,1,1,0-1.64h2.18a.82.82,0,0,1,.82.82Zm.27-4.37h0a.82.82,0,0,1-.82-.82,4.31,4.31,0,0,0-.87-2.61,4.37,4.37,0,0,0-5.67-1.15h.27a.82.82,0,1,1,0,1.63H11.91a.82.82,0,0,1-.82-.82V11.86a.82.82,0,0,1,1.64,0V12A6,6,0,0,1,20.8,13.4,5.94,5.94,0,0,1,22,17,.82.82,0,0,1,21.18,17.81Z"/></svg>