<svg id="icon" xmlns="http://www.w3.org/2000/svg" viewBox="0 0 32 32"><title>camera-lens-switch</title><path d="M9.39,19H22.61A1.39,1.39,0,0,0,24,17.61V8.39A1.39,1.39,0,0,0,22.61,7h-3l-.87-1.27A1.63,1.63,0,0,0,17.33,5H14.67a1.62,1.62,0,0,0-1.45.73L12.35,7h-3A1.39,1.39,0,0,0,8,8.39v9.22A1.39,1.39,0,0,0,9.39,19ZM16,8.33A4.67,4.67,0,0,1,20.67,13h0A4.67,4.67,0,1,1,16,8.33Z"/><path d="M16,16.33A3.33,3.33,0,1,0,12.67,13,3.33,3.33,0,0,0,16,16.33Z"/><path d="M25.69,21H22.75a.31.31,0,0,0-.23.52l.53.6a13.69,13.69,0,0,1-7,1.8,13.77,13.77,0,0,1-7.08-1.8l.53-.6A.32.32,0,0,0,9.22,21H6.28A.31.31,0,0,0,6,21.3l.4,2.91a.31.31,0,0,0,.54.16l.58-.66A15.67,15.67,0,0,0,16,26a15.67,15.67,0,0,0,8.49-2.32l.57.65a.31.31,0,0,0,.54-.16L26,21.3A.31.31,0,0,0,25.69,21Z"/></svg>