<svg id="icon" xmlns="http://www.w3.org/2000/svg" viewBox="0 0 32 32"><defs><style>.cls-1{fill-rule:evenodd;}</style></defs><path class="cls-1" d="M28.59,12.18h-2.1l-.9-4a3.51,3.51,0,0,0-3.44-2.79H9.87A3.51,3.51,0,0,0,6.43,8.21l-.9,4H3.43a1.16,1.16,0,0,0-1.16,1.18v1.51a1.22,1.22,0,0,0,1,1.19l1.56.22a6,6,0,0,0-1.07,3.43v6.07A1.17,1.17,0,0,0,5,27H8.12a1.25,1.25,0,0,0,1.17-1l.49-2.32a63.77,63.77,0,0,1,12.51,0L22.78,26a1.2,1.2,0,0,0,1.16,1h3.17a1.16,1.16,0,0,0,1.16-1.18V19.71a6,6,0,0,0-1.07-3.43l1.56-.22a1.21,1.21,0,0,0,1-1.19V13.36A1.23,1.23,0,0,0,28.59,12.18ZM7.38,20.58a2.16,2.16,0,1,1,2.16-2.16A2.16,2.16,0,0,1,7.38,20.58Zm11.16-1H13.43a.84.84,0,0,1,0-1.68h5.15a.83.83,0,0,1,.82.84A.89.89,0,0,1,18.54,19.6ZM16,12.82c-2.74,0-5.43.09-8.16.32L8.88,8.49a.87.87,0,0,1,.82-.7H22.18a.83.83,0,0,1,.82.7l1.05,4.7C21.41,13,18.72,12.82,16,12.82Zm8.63,7.76a2.16,2.16,0,1,1,2.15-2.16A2.16,2.16,0,0,1,24.62,20.58Z"/></svg>