<svg id="icon" xmlns="http://www.w3.org/2000/svg" viewBox="0 0 32 32"><defs><style>.cls-1{fill-rule:evenodd;}</style></defs><path class="cls-1" d="M28.49,14.57l-.7-9.13v0a1.42,1.42,0,0,0-1.53-1.29,1.4,1.4,0,0,0-.76.29c-1,.77-1.62,1.32-1.91,1.56l-.05,0c-.33.29-.92.81-1.7,1.63l-.16.17-.06.07A16.53,16.53,0,0,0,16,7,16.42,16.42,0,0,0,11,7.73c-.79-.87-1.28-1.32-1.62-1.64l-.05,0c-.22-.2-.78-.72-1.51-1.31l-.53-.43A1.41,1.41,0,0,0,6.49,4,1.43,1.43,0,0,0,4.93,5.29L4.17,13.4A12.55,12.55,0,0,0,3,18.91c0,8.45,8.53,9.56,13.09,9.56s13.09-1,13.09-9.56A13.13,13.13,0,0,0,28.49,14.57ZM5.78,9.9l.23-3a.93.93,0,0,1,1.52-.65L9,7.47a.51.51,0,0,1-.09.85,12.28,12.28,0,0,0-2.48,1.89A.38.38,0,0,1,5.78,9.9ZM11,16a2,2,0,0,1-4,0V15a2,2,0,0,1,4,0Zm6.16,6.66.49.61.15.19c.25.32.42.54.66.87a.64.64,0,1,1-1,.76l-.15-.2-.08-.11-.52-.66-.52-.65-.07-.08-.15.19-.36.45-.14.18-.66.88a.64.64,0,0,1-1-.76l.13-.18L14,24c.18-.25.36-.48.61-.8l.47-.59.13-.17.16-.22a4.69,4.69,0,0,1-2.06-2.8c0-1,1.2-1.07,2.7-1.07h.37c1.42,0,2.52.11,2.52,1.07a4.72,4.72,0,0,1-2,2.8ZM25,16a2,2,0,0,1-4,0V15a2,2,0,0,1,4,0Zm1.24-5.79a12.08,12.08,0,0,0-2.49-1.89.51.51,0,0,1-.08-.85l1.46-1.2a.94.94,0,0,1,1.52.65l.23,3A.38.38,0,0,1,26.24,10.21Z"/></svg>