<svg id="icon" xmlns="http://www.w3.org/2000/svg" viewBox="0 0 32 32"><defs><style>.cls-1{fill-rule:evenodd;}</style></defs><title>cell-broadcast-sim2</title><path class="cls-1" d="M10,10.28V5.12a.35.35,0,0,0-.14-.28L7.64,3.09A.39.39,0,0,0,7.38,3H3.78A.75.75,0,0,0,3,3.72v6.56a.75.75,0,0,0,.78.72H9.22A.75.75,0,0,0,10,10.28ZM8.5,10h-4V9.13L6,7.63c.42-.45.7-.76.83-.94a2,2,0,0,0,.28-.48,1.44,1.44,0,0,0,.08-.46A.66.66,0,0,0,7,5.22.68.68,0,0,0,6.45,5a1.44,1.44,0,0,0-.64.16,3.88,3.88,0,0,0-.66.45l-.65-.8a3.87,3.87,0,0,1,.7-.53,2.69,2.69,0,0,1,.6-.24A3.29,3.29,0,0,1,6.54,4a2.16,2.16,0,0,1,.94.2,1.58,1.58,0,0,1,.63.57,1.54,1.54,0,0,1,.23.83,2.19,2.19,0,0,1-.14.77,2.68,2.68,0,0,1-.43.73,10.61,10.61,0,0,1-1,1.08L6,8.89V9H8.5Z"/><path class="cls-1" d="M12.32,13.07c-.33.14-.67.28-1,.4L7.63,14.81a4,4,0,0,0,2.74,7.52l.94-.34L13,26.68a2,2,0,1,0,3.76-1.36Z"/><path class="cls-1" d="M23.18,4.89,19.76,8.2a24.14,24.14,0,0,1-6.07,4.25l2.81,7.71a23.87,23.87,0,0,1,6.22-1L28.31,19Z"/></svg>