<svg id="icon" xmlns="http://www.w3.org/2000/svg" viewBox="0 0 32 32"><path d="M16.76,25.32,12.32,13.07c-.33.14-.67.28-1,.4L7.63,14.81a4,4,0,0,0,2.74,7.52l.94-.34L13,26.68a2,2,0,0,0,3.8-1.25S16.77,25.36,16.76,25.32Z"/><path d="M23.18,4.89,19.76,8.2a24.22,24.22,0,0,1-6.07,4.25l2.81,7.71a23.84,23.84,0,0,1,6.22-1L28.31,19Z"/><path d="M10,9.71V5.57a1.38,1.38,0,0,0-.28-.75L8.16,3.32A1.13,1.13,0,0,0,7.45,3H4.27A1.28,1.28,0,0,0,3,4.29V9.71A1.28,1.28,0,0,0,4.27,11H8.73A1.28,1.28,0,0,0,10,9.71Zm-1.88.21a.67.67,0,0,1-.39.08H5.3a.7.7,0,0,1-.53-.16.55.55,0,0,1-.15-.38A.76.76,0,0,1,4.85,9l2-2.51a1.13,1.13,0,0,0,.31-.77.59.59,0,0,0-.67-.62.62.62,0,0,0-.69.49.78.78,0,0,1-.17.37.52.52,0,0,1-.42.19.54.54,0,0,1-.56-.57A1.6,1.6,0,0,1,5.2,4.46,2,2,0,0,1,6.52,4,1.62,1.62,0,0,1,8.34,5.66a2,2,0,0,1-.58,1.41L6.26,9H7.73A.65.65,0,0,1,8.12,9a.47.47,0,0,1,.26.44A.49.49,0,0,1,8.12,9.92Z"/></svg>