<svg id="icon" xmlns="http://www.w3.org/2000/svg" viewBox="0 0 32 32"><path d="M16.76,25.32,12.32,13.07c-.33.14-.67.28-1,.4L7.63,14.81a4,4,0,0,0,2.74,7.52l.94-.34L13,26.68a2,2,0,0,0,3.8-1.25S16.77,25.36,16.76,25.32Z"/><path d="M23.18,4.89,19.76,8.2a24.22,24.22,0,0,1-6.07,4.25l2.81,7.71a23.84,23.84,0,0,1,6.22-1L28.31,19Z"/><path d="M10,9.71V5.57a1.38,1.38,0,0,0-.28-.75L8.16,3.32A1.13,1.13,0,0,0,7.45,3H4.27A1.28,1.28,0,0,0,3,4.29V9.71A1.28,1.28,0,0,0,4.27,11H8.73A1.28,1.28,0,0,0,10,9.71ZM7.29,9.36A.64.64,0,0,1,6,9.36V5.12H5.07A.56.56,0,1,1,5.07,4H6.65a.64.64,0,0,1,.64.64Z"/></svg>