<svg id="icon" xmlns="http://www.w3.org/2000/svg" viewBox="0 0 32 32"><title>coffee</title><path d="M11.4,11.3a1.15,1.15,0,0,0,2.3,0,4.1,4.1,0,0,0-1.49-3.11c-.56-.56-.81-.84-.81-1.49s.25-.92.81-1.49a1.15,1.15,0,1,0-1.63-1.63A4.1,4.1,0,0,0,9.1,6.7a4.1,4.1,0,0,0,1.49,3.11C11.15,10.38,11.4,10.65,11.4,11.3Z"/><path d="M16.77,11.3a1.15,1.15,0,0,0,2.3,0,4.1,4.1,0,0,0-1.49-3.11c-.56-.56-.81-.84-.81-1.49s.25-.92.81-1.49A1.15,1.15,0,0,0,16,3.59,4.1,4.1,0,0,0,14.47,6.7,4.1,4.1,0,0,0,16,9.81C16.52,10.38,16.77,10.65,16.77,11.3Z"/><path d="M23,23.07h0A4,4,0,0,0,23,15H6.83a1.1,1.1,0,0,0-1.1,1.1v3.67a8,8,0,0,0,2.76,6H6.1a1.1,1.1,0,1,0,0,2.2H22.23a1.1,1.1,0,0,0,0-2.2H19.84a7.74,7.74,0,0,0,2.09-2.73Zm-.37-3.3V17.2H23a1.83,1.83,0,1,1,0,3.67h-.44A8.49,8.49,0,0,0,22.6,19.77Z"/></svg>