<svg id="icon" xmlns="http://www.w3.org/2000/svg" viewBox="0 0 32 32"><defs><style>.cls-1{fill-rule:evenodd;}</style></defs><title>date-time</title><path class="cls-1" d="M23,16a6,6,0,1,0,6,6A6,6,0,0,0,23,16Zm2.5,7H23a1,1,0,0,1-1-1V19a1,1,0,0,1,2,0v2h1.5a1,1,0,0,1,0,2Z"/><circle cx="11" cy="15.5" r="1.5"/><circle cx="16" cy="15.5" r="1.5"/><circle cx="11" cy="20.5" r="1.5"/><path class="cls-1" d="M14,25H8.41A1.41,1.41,0,0,1,7,23.59V11H24v2a1,1,0,0,0,2,0V8a3,3,0,0,0-3-3H8A3,3,0,0,0,5,8V24a3,3,0,0,0,3,3h6a1,1,0,0,0,0-2Z"/></svg>