<svg id="icon" xmlns="http://www.w3.org/2000/svg" xmlns:xlink="http://www.w3.org/1999/xlink" viewBox="0 0 32 32"><defs><style>.cls-1{clip-rule:evenodd;}.cls-2{fill-rule:evenodd;}.cls-3{clip-path:url(#clip-path);}</style><clipPath id="clip-path"><path class="cls-1" d="M17.4,19l2.31-2.31a1,1,0,0,0-1.4-1.4L16,17.6l-2.31-2.31a1,1,0,1,0-1.4,1.4L14.6,19l-2.31,2.31a1,1,0,0,0,1.4,1.4L16,20.4l2.31,2.31a1,1,0,0,0,1.4-1.4ZM8,25.5V10H24V25.5A2.5,2.5,0,0,1,21.5,28h-11A2.5,2.5,0,0,1,8,25.5ZM12.09,5A1.5,1.5,0,0,1,13.5,4h5a1.5,1.5,0,0,1,1.41,1H23.5a1.5,1.5,0,0,1,0,3H8.5a1.5,1.5,0,0,1,0-3Z"/></clipPath></defs><title>delete</title><path class="cls-2" d="M17.4,19l2.31-2.31a1,1,0,0,0-1.4-1.4L16,17.6l-2.31-2.31a1,1,0,1,0-1.4,1.4L14.6,19l-2.31,2.31a1,1,0,0,0,1.4,1.4L16,20.4l2.31,2.31a1,1,0,0,0,1.4-1.4ZM8,25.5V10H24V25.5A2.5,2.5,0,0,1,21.5,28h-11A2.5,2.5,0,0,1,8,25.5ZM12.09,5A1.5,1.5,0,0,1,13.5,4h5a1.5,1.5,0,0,1,1.41,1H23.5a1.5,1.5,0,0,1,0,3H8.5a1.5,1.5,0,0,1,0-3Z"/><g class="cls-3"><rect x="2" y="-1" width="28" height="34"/></g></svg>