<svg id="icon" xmlns="http://www.w3.org/2000/svg" viewBox="0 0 32 32"><title>drive-removable</title><path d="M20.5,5h-9A2.5,2.5,0,0,0,9,7.5v13A2.5,2.5,0,0,0,11.5,23h9A2.5,2.5,0,0,0,23,20.5V7.5A2.5,2.5,0,0,0,20.5,5ZM13,19.26A1,1,0,1,1,12.26,18,1,1,0,0,1,13,19.26Zm6.39-2.58-2.77-1.4a.14.14,0,0,0-.18.21L18,17.59A5,5,0,1,1,21,13,5,5,0,0,1,19.36,16.68Z"/><path d="M16,11.5A1.5,1.5,0,1,0,17.5,13,1.5,1.5,0,0,0,16,11.5Z"/><path d="M18.39,25H13.7a.65.65,0,0,0-.5,1.07l2.35,2.79a.64.64,0,0,0,1,0l2.35-2.79A.65.65,0,0,0,18.39,25Z"/></svg>