<svg id="icon" xmlns="http://www.w3.org/2000/svg" viewBox="0 0 32 32"><title>drive-optical</title><circle cx="16" cy="15" r="1.75"/><path d="M18.68,9.64l-1.46,2.91A2.78,2.78,0,0,1,18.57,14l3-1.14A6,6,0,0,0,18.68,9.64Z"/><path d="M13.43,16l-3,1.14a6,6,0,0,0,2.93,3.26l1.46-2.91A2.78,2.78,0,0,1,13.43,16Z"/><path d="M22,5H10A3,3,0,0,0,7,8V24a3,3,0,0,0,3,3H22a3,3,0,0,0,3-3V8A3,3,0,0,0,22,5ZM16,22a6.84,6.84,0,0,1-.79-.05l-.18,0c-.2,0-.41-.07-.61-.12l-.14,0c-.22-.06-.43-.12-.64-.2l-.08,0q-.35-.14-.69-.3h0a7,7,0,0,1-3.42-3.8h0c-.07-.19-.13-.38-.19-.58v0c-.05-.18-.09-.36-.13-.55s0-.12,0-.18,0-.3-.07-.44,0-.45,0-.67a7,7,0,0,1,7-7,6.84,6.84,0,0,1,.79.05l.18,0c.2,0,.41.07.61.12l.14,0c.22.06.43.12.64.2l.08,0q.35.13.69.3h0a7,7,0,0,1,3.42,3.8h0c.07.19.13.38.19.58v0c.05.18.09.36.13.55s0,.13,0,.19.05.29.07.43,0,.45,0,.67A7,7,0,0,1,16,22Z"/></svg>