<svg id="icon" xmlns="http://www.w3.org/2000/svg" viewBox="0 0 32 32"><defs><style>.cls-1{fill-rule:evenodd;}</style></defs><title>duck</title><path class="cls-1" d="M27.31,10H24a5,5,0,1,0-6.8,4.66,2.91,2.91,0,0,1-2.68,2.07A11.6,11.6,0,0,1,7.08,14a.87.87,0,0,0-.37-.19,1,1,0,0,0-1.22.7h0A12.2,12.2,0,0,0,5,17.67,9.33,9.33,0,0,0,14.33,27h4.6A6.07,6.07,0,0,0,25,20.93v-.58a7.39,7.39,0,0,0-3.29-6.15A5.08,5.08,0,0,0,23,13h2.56a2,2,0,0,0,1.9-1.37l.32-1a.45.45,0,0,0,0-.16A.5.5,0,0,0,27.31,10ZM19.5,11A1.5,1.5,0,1,1,21,9.5,1.5,1.5,0,0,1,19.5,11Z"/></svg>