<svg id="icon" xmlns="http://www.w3.org/2000/svg" viewBox="0 0 32 32"><title>export</title><path d="M26.5,17.5A1.5,1.5,0,0,0,25,19v1.5A4.49,4.49,0,0,1,20.5,25h-9A4.49,4.49,0,0,1,7,20.5v-9A4.49,4.49,0,0,1,11.5,7H13a1.5,1.5,0,0,0,0-3H11.5A7.5,7.5,0,0,0,4,11.5v9A7.5,7.5,0,0,0,11.5,28h9A7.5,7.5,0,0,0,28,20.5V19A1.5,1.5,0,0,0,26.5,17.5Z"/><path d="M27.56,4.44A1.51,1.51,0,0,0,26.5,4h-7a1.5,1.5,0,0,0,0,3h3.38l-9.46,9.46a1.5,1.5,0,0,0,2.12,2.12L25,9.12V12.5a1.5,1.5,0,0,0,3,0v-7A1.51,1.51,0,0,0,27.56,4.44Z"/></svg>