<svg id="icon" xmlns="http://www.w3.org/2000/svg" viewBox="0 0 32 32"><title>favorite-off</title><g id="Icon-2" data-name="Icon"><path d="M16,10.44l1,3.11.4,1.2h4.31l-2.42,1.78-1,.74.38,1.19.94,3L17,19.64,16,19l-1,.68-2.62,1.8.94-3,.38-1.2-1-.74-2.42-1.77h4.31l.4-1.2,1-3.11M16,6a.52.52,0,0,0-.5.36L13.31,13H6.53a.52.52,0,0,0-.32.94l5.45,4-2,6.38a.53.53,0,0,0,.5.68.52.52,0,0,0,.3-.1L16,21.08l5.56,3.82a.52.52,0,0,0,.3.1.53.53,0,0,0,.5-.68l-2-6.38,5.45-4a.52.52,0,0,0-.32-.94H18.69L16.5,6.36A.52.52,0,0,0,16,6Z"/></g></svg>