<svg id="icon" xmlns="http://www.w3.org/2000/svg" viewBox="0 0 32 32"><title>favorite-off</title><path d="M26.21,14.54a1,1,0,0,0-.53-1.62l-5.6-.81a1,1,0,0,1-.72-.52L16.85,6.53a.94.94,0,0,0-1.7,0l-2.51,5.06a1,1,0,0,1-.72.52l-5.6.81a1,1,0,0,0-.53,1.62l4.06,3.94a1,1,0,0,1,.27.84l-1,5.57a1,1,0,0,0,1.38,1l5-2.63a1,1,0,0,1,.88,0l5,2.63a1,1,0,0,0,1.38-1l-1-5.57a1,1,0,0,1,.27-.84Zm-5.45,2.51a2.92,2.92,0,0,0-.85,2.61l.53,3.07a.2.2,0,0,1-.29.21l-2.78-1.45a2.93,2.93,0,0,0-2.74,0l-2.78,1.45a.2.2,0,0,1-.29-.21l.53-3.07a3,3,0,0,0-.85-2.61L9,14.88a.2.2,0,0,1,.11-.34l3.09-.45a3,3,0,0,0,2.22-1.61l1.39-2.81a.21.21,0,0,1,.36,0l1.39,2.81a3,3,0,0,0,2.22,1.61l3.09.45a.2.2,0,0,1,.11.34Z"/></svg>