<svg id="icon" xmlns="http://www.w3.org/2000/svg" viewBox="0 0 32 32"><title>file-attached</title><path d="M17,27a8.27,8.27,0,0,1-5.88-2.44L7.64,21.13A1.25,1.25,0,1,1,9.4,19.36l3.43,3.43a5.83,5.83,0,1,0,8.24-8.24L15,8.48a3.33,3.33,0,0,0-2.37-1h0a3.32,3.32,0,0,0-2.38,1,3.45,3.45,0,0,0-.06,4.8l6.13,6.12a1.18,1.18,0,0,0,1.65,0,1.16,1.16,0,0,0,0-1.65l-5.25-5.25a1.25,1.25,0,0,1,1.77-1.77L19.73,16a3.67,3.67,0,1,1-5.18,5.19L8.42,15.08a5.93,5.93,0,0,1,0-8.33A5.86,5.86,0,0,1,12.61,5h0a5.78,5.78,0,0,1,4.14,1.72l6.07,6.07A8.33,8.33,0,0,1,17,27Z"/></svg>