<svg id="icon" xmlns="http://www.w3.org/2000/svg" viewBox="0 0 32 32"><title>file-vcf</title><path d="M24.47,11.41,18.64,5.59A2,2,0,0,0,17.23,5H10.05a3,3,0,0,0-3,3V24a3,3,0,0,0,3,3h12a3,3,0,0,0,3-3V12.83A2,2,0,0,0,24.47,11.41ZM13.34,18.76l-1.73,4.82,0,0s0,0,0,0a.58.58,0,0,1-.73.3.48.48,0,0,1-.23-.16s0,0,0,0a.64.64,0,0,1-.1-.18h0L8.75,18.75A.62.62,0,0,1,9.11,18a.6.6,0,0,1,.77.36l1.17,3.25,1.16-3.24A.6.6,0,0,1,13,18,.62.62,0,0,1,13.34,18.76ZM18,22.57a2,2,0,0,1-3.9-.62V20A2,2,0,0,1,18,19.21a.6.6,0,0,1-1.12.45.79.79,0,0,0-.74-.51.8.8,0,0,0-.8.8v2a.8.8,0,0,0,1.56.25.6.6,0,0,1,.75-.39A.61.61,0,0,1,18,22.57ZM16.05,11V7.83a.6.6,0,0,1,1-.42l2.24,2.24L22.64,13a.6.6,0,0,1-.42,1H19.05A3,3,0,0,1,16.05,11Zm6.44,8.15h-2.2v1.6H22A.6.6,0,1,1,22,22h-1.7v1.4a.6.6,0,0,1-1.2,0v-4.8a.6.6,0,0,1,.6-.6h2.8a.6.6,0,0,1,0,1.2Z"/></svg>