<svg id="icon" xmlns="http://www.w3.org/2000/svg" viewBox="0 0 32 32"><defs><style>.cls-1{fill-rule:evenodd;}</style></defs><title>file-document</title><path class="cls-1" d="M16,19.2a.8.8,0,0,0-.8.8v2a.8.8,0,0,0,1.6,0V20A.8.8,0,0,0,16,19.2Z"/><path class="cls-1" d="M10.7,19.2h-.5v3.6h.5a1.1,1.1,0,0,0,1.1-1.1V20.3A1.1,1.1,0,0,0,10.7,19.2Z"/><path class="cls-1" d="M24.41,11.41,18.59,5.59A2,2,0,0,0,17.17,5H10A3,3,0,0,0,7,8V24a3,3,0,0,0,3,3H22a3,3,0,0,0,3-3V12.83A2,2,0,0,0,24.41,11.41ZM13,21.7A2.3,2.3,0,0,1,10.7,24H9.5a.5.5,0,0,1-.5-.5v-5a.5.5,0,0,1,.5-.5h1.2A2.3,2.3,0,0,1,13,20.3Zm5,.3a2,2,0,0,1-4,0V20a2,2,0,0,1,4,0ZM16,11V7.83a.6.6,0,0,1,1-.42l2.24,2.24L22.59,13a.6.6,0,0,1-.42,1H19A3,3,0,0,1,16,11Zm6.94,11.62A2,2,0,0,1,19,22V20a2,2,0,0,1,3.86-.74.59.59,0,0,1-.33.78.6.6,0,0,1-.78-.34.81.81,0,0,0-1.55.3v2a.81.81,0,0,0,1.57.25.59.59,0,0,1,.75-.39A.61.61,0,0,1,22.94,22.62Z"/></svg>