<svg id="icon" xmlns="http://www.w3.org/2000/svg" viewBox="0 0 32 32"><title>file-pdf</title><path d="M11,19.2h-.8v1.6H11a.8.8,0,0,0,0-1.6Z"/><path d="M15.7,19.2h-.5v3.6h.5a1.1,1.1,0,0,0,1.1-1.1V20.3A1.1,1.1,0,0,0,15.7,19.2Z"/><path d="M24.41,11.41,18.59,5.59A2,2,0,0,0,17.17,5H10A3,3,0,0,0,7,8V24a3,3,0,0,0,3,3H22a3,3,0,0,0,3-3V12.83A2,2,0,0,0,24.41,11.41ZM16,7.83a.6.6,0,0,1,1-.42l2.24,2.24L22.59,13a.6.6,0,0,1-.42,1H19a3,3,0,0,1-3-3ZM11,22h-.8v1.4a.6.6,0,1,1-1.2,0V18.5a.5.5,0,0,1,.5-.5H11a2,2,0,0,1,0,4Zm7-.3A2.3,2.3,0,0,1,15.7,24H14.5a.5.5,0,0,1-.5-.5v-5a.5.5,0,0,1,.5-.5h1.2A2.3,2.3,0,0,1,18,20.3Zm4.4-2.5H20.2v1.6h1.7a.6.6,0,0,1,0,1.2H20.2v1.4a.6.6,0,0,1-1.2,0V18.6a.6.6,0,0,1,.6-.6h2.8a.6.6,0,0,1,0,1.2Z"/></svg>