<svg id="icon" xmlns="http://www.w3.org/2000/svg" viewBox="0 0 32 32"><defs><style>.cls-1{fill-rule:evenodd;}</style></defs><title>flashlight-on</title><path class="cls-1" d="M21.66,6H10.34A1.83,1.83,0,0,0,8.51,8h15A1.83,1.83,0,0,0,21.66,6Z"/><path class="cls-1" d="M9,9.17l4,3.89v14a.93.93,0,0,0,.93.93h4.15a.93.93,0,0,0,.93-.93v-14l4-3.89A1.79,1.79,0,0,0,23.1,9H8.9A1.79,1.79,0,0,0,9,9.17ZM16,17a1.5,1.5,0,1,1-1.5,1.5A1.5,1.5,0,0,1,16,17Z"/><path class="cls-1" d="M16,5.29a.75.75,0,0,0,.75-.75V.81a.75.75,0,0,0-1.5,0V4.54A.75.75,0,0,0,16,5.29Z"/><path class="cls-1" d="M11.6,5a.79.79,0,0,0,1,.25.66.66,0,0,0,.27-.94L11.4,1.89a.79.79,0,0,0-1-.25.66.66,0,0,0-.27.94Z"/><path class="cls-1" d="M19.37,5.21a.79.79,0,0,0,1-.25l1.5-2.38a.66.66,0,0,0-.27-.94.79.79,0,0,0-1,.25L19.1,4.27A.66.66,0,0,0,19.37,5.21Z"/></svg>