<svg id="Icon" xmlns="http://www.w3.org/2000/svg" viewBox="0 0 16 16"><title>flash-auto</title><path d="M10.27,5H6.54a.15.15,0,0,1-.12-.23L7.93,1.15A.73.73,0,0,0,7.33,0H3.45a.72.72,0,0,0-.69.48L0,7A.74.74,0,0,0,.73,8h3.9a.14.14,0,0,1,.14.18L2.28,15.54a.37.37,0,0,0,.65.31l7.93-9.69A.73.73,0,0,0,10.27,5Z"/><path d="M15.94,15l-3.26-7.5A.76.76,0,0,0,12,7h0a.75.75,0,0,0-.68.45L8.06,15a.76.76,0,0,0,.39,1,.72.72,0,0,0,.29.06.74.74,0,0,0,.68-.45L10.09,14h3.82l.67,1.54a.74.74,0,0,0,1,.39A.76.76,0,0,0,15.94,15Zm-5.2-2.44L12,9.62l1.25,2.89Z"/></svg>