<svg id="icon" xmlns="http://www.w3.org/2000/svg" viewBox="0 0 32 32"><title>flash-auto-32px</title><path d="M26.9,25.32l-3.81-8.61a1.19,1.19,0,0,0-2.18,0L17.1,25.32a1.19,1.19,0,1,0,2.18,1l.53-1.2h4.38l.53,1.2a1.18,1.18,0,0,0,1.09.71,1.15,1.15,0,0,0,.48-.1A1.21,1.21,0,0,0,26.9,25.32Zm-6-2.62L22,20.14l1.13,2.56Z"/><path d="M19,11.32H13.91a.2.2,0,0,1-.16-.32l2.06-4.42A1,1,0,0,0,15,5H9.7a1,1,0,0,0-.94.66L5.06,15A1,1,0,0,0,6,16.34h5.31a.2.2,0,0,1,.19.25L8.11,26.37a.5.5,0,0,0,.89.42L19.8,12.91A1,1,0,0,0,19,11.32Z"/></svg>