<svg id="icon" xmlns="http://www.w3.org/2000/svg" viewBox="0 0 32 32"><title>flash-off</title><path d="M27.66,25l-3-3,3-3a1.15,1.15,0,0,0,0-1.63,1.17,1.17,0,0,0-1.67,0l-3,3-3-3a1.17,1.17,0,0,0-1.67,0,1.15,1.15,0,0,0,0,1.63l3,3-3,3a1.15,1.15,0,0,0,0,1.63,1.17,1.17,0,0,0,1.67,0l3-3,3,3a1.17,1.17,0,0,0,1.67,0A1.15,1.15,0,0,0,27.66,25Z"/><path d="M19,11.32H13.91a.2.2,0,0,1-.16-.32l2.06-4.42A1,1,0,0,0,15,5H9.7a1,1,0,0,0-.94.66L5.06,15A1,1,0,0,0,6,16.34h5.31a.2.2,0,0,1,.19.25L8.11,26.37a.5.5,0,0,0,.89.42L19.8,12.91A1,1,0,0,0,19,11.32Z"/></svg>