<svg id="icon" xmlns="http://www.w3.org/2000/svg" viewBox="0 0 32 32"><defs><style>.cls-1{fill-rule:evenodd;}</style></defs><title>flashlight-on</title><path class="cls-1" d="M16,5.29a.75.75,0,0,0,.75-.75V1.75a.75.75,0,0,0-1.5,0V4.54A.75.75,0,0,0,16,5.29Z"/><path class="cls-1" d="M19.32,5.19a.76.76,0,0,0,1-.27l1.4-2.42a.76.76,0,0,0-.28-1,.75.75,0,0,0-1,.28l-1.4,2.42A.75.75,0,0,0,19.32,5.19Z"/><path class="cls-1" d="M11.55,4.92a.75.75,0,0,0,1.3-.75l-1.4-2.42a.75.75,0,0,0-1-.28.76.76,0,0,0-.28,1Z"/><path class="cls-1" d="M21.68,9H10.34a1,1,0,0,0-.79,1.61L13,15.05V25a3,3,0,0,0,6,0V15.21l3.53-4.6A1,1,0,0,0,21.68,9ZM16,20a1.5,1.5,0,1,1,1.5-1.5A1.5,1.5,0,0,1,16,20Z"/><path class="cls-1" d="M22,6H10a1,1,0,0,0,0,2H22a1,1,0,0,0,0-2Z"/></svg>