<svg id="icon" xmlns="http://www.w3.org/2000/svg" viewBox="0 0 32 32"><title>gamepad</title><path d="M15.34,13.94l0,0a.92.92,0,0,0,1.3,0l2.49-2.57a1.86,1.86,0,0,0,.52-1.28V6.83A1.83,1.83,0,0,0,17.83,5H14.17a1.83,1.83,0,0,0-1.84,1.83v3.26a1.86,1.86,0,0,0,.52,1.28Z"/><path d="M16.66,18.06a.92.92,0,0,0-1.3,0l0,0-2.49,2.57a1.86,1.86,0,0,0-.52,1.28v3.26A1.83,1.83,0,0,0,14.17,27h3.66a1.83,1.83,0,0,0,1.84-1.83V21.91a1.86,1.86,0,0,0-.52-1.28Z"/><path d="M14,15.36l0,0-2.57-2.49a1.86,1.86,0,0,0-1.28-.52H6.83A1.83,1.83,0,0,0,5,14.17v3.66a1.83,1.83,0,0,0,1.83,1.84h3.26a1.86,1.86,0,0,0,1.28-.52l2.57-2.49A.92.92,0,0,0,14,15.36Z"/><path d="M25.17,12.33H21.91a1.86,1.86,0,0,0-1.28.52l-2.57,2.49,0,0a.92.92,0,0,0,0,1.3l2.57,2.49a1.86,1.86,0,0,0,1.28.52h3.26A1.83,1.83,0,0,0,27,17.83V14.17A1.83,1.83,0,0,0,25.17,12.33Z"/></svg>