<svg id="icon" xmlns="http://www.w3.org/2000/svg" viewBox="0 0 32 32"><defs><style>.cls-1{fill:#010002;}</style></defs><title>gasoline</title><path class="cls-1" d="M25.91,8.63l-.15-.14.75-.69.32-.29-1-1-.31.28c-1.3,1.17-2.08,1.88-2.46,3.33a15,15,0,0,0-.35,4.27,9.6,9.6,0,0,0,.49,3.37l.15.38a10.94,10.94,0,0,1,1,4.23c0,2.23-.91,3.36-2.7,3.36-1.63,0-2.51-1.08-2.61-3.22a13.74,13.74,0,0,1,.5-3.35,27.62,27.62,0,0,0,.6-3.27,3.3,3.3,0,0,0-.52-2.65,3.07,3.07,0,0,0-2.44-.7H17V6a1,1,0,0,0-1-1H6A1,1,0,0,0,5,6V27H17V13.94h.17c.58,0,1.18,0,1.39.23s.28.48.17,1.55a26.53,26.53,0,0,1-.58,3.1,14.41,14.41,0,0,0-.53,3.74c.14,2.9,1.61,4.57,4,4.57,2.57,0,4.11-1.79,4.12-4.78a12.34,12.34,0,0,0-1.05-4.76l-.14-.36a7.67,7.67,0,0,1-.39-2.64l1.66,0a1,1,0,0,0,1.08-.9A8.53,8.53,0,0,0,27,12.09v-.21C27,9.71,26.52,9.15,25.91,8.63ZM15,13H7V7h8Zm10.57-.9c0,.41,0,.8,0,1.05l-1.4,0a11.31,11.31,0,0,1,.32-2.73,3.21,3.21,0,0,1,.37-.88l.15.14c.3.26.57.49.57,2.18Z"/></svg>