<svg id="icon" xmlns="http://www.w3.org/2000/svg" viewBox="0 0 32 32"><defs><style>.cls-1{fill:#010002;}</style></defs><title>gasoline</title><path class="cls-1" d="M25.91,8.63l-.15-.14.75-.68.32-.29-.95-1-.32.29c-1.29,1.17-2.08,1.88-2.46,3.33a14.89,14.89,0,0,0-.35,4.27,9.44,9.44,0,0,0,.49,3.37l.15.39a10.93,10.93,0,0,1,.95,4.23c0,2.23-.91,3.36-2.7,3.36-1.63,0-2.51-1.08-2.61-3.22a13.4,13.4,0,0,1,.5-3.35,27.09,27.09,0,0,0,.6-3.27,3.32,3.32,0,0,0-.52-2.65,3.1,3.1,0,0,0-2.44-.69H17V9a4,4,0,0,0-4-4H9A4,4,0,0,0,5,9V26a1,1,0,0,0,1,1H16a1,1,0,0,0,1-1V13.94h.17c.58,0,1.18,0,1.39.23s.28.48.16,1.55a27.42,27.42,0,0,1-.57,3.1,14.09,14.09,0,0,0-.53,3.74c.13,2.9,1.6,4.57,4,4.57,2.58,0,4.11-1.79,4.12-4.78a12.28,12.28,0,0,0-1.06-4.76l-.14-.36a7.74,7.74,0,0,1-.39-2.64l1.66,0a1.05,1.05,0,0,0,1.08-.9A8.63,8.63,0,0,0,27,12.09v-.21C27,9.71,26.52,9.15,25.91,8.63ZM15,12.5a.5.5,0,0,1-.5.5h-7a.5.5,0,0,1-.5-.5V9A2,2,0,0,1,9,7h4a2,2,0,0,1,2,2Zm10.57-.4c0,.41,0,.8,0,1.05l-1.4,0a12,12,0,0,1,.32-2.73,3.4,3.4,0,0,1,.37-.89l.16.15c.3.26.57.48.57,2.18Z"/></svg>