<svg xmlns="http://www.w3.org/2000/svg" viewBox="0 0 16 16"><defs><style>.cls-1{fill-rule:evenodd;}</style></defs><title>grid</title><g id="Icon"><path class="cls-1" d="M6,1V3A1,1,0,0,0,7,4H9a1,1,0,0,0,1-1V1A1,1,0,0,0,9.48.14a7.78,7.78,0,0,0-3,0A1,1,0,0,0,6,1Z"/><path class="cls-1" d="M13,4h1.92A8,8,0,0,0,12,1.08V3A1,1,0,0,0,13,4Z"/><path class="cls-1" d="M14.92,12H13a1,1,0,0,0-1,1v1.92A8,8,0,0,0,14.92,12Z"/><rect x="6" y="6" width="4" height="4" rx="1" ry="1"/><path class="cls-1" d="M4,13a1,1,0,0,0-1-1H1.08A8,8,0,0,0,4,14.92Z"/><path class="cls-1" d="M10,15V13a1,1,0,0,0-1-1H7a1,1,0,0,0-1,1v2a1,1,0,0,0,.52.86,7.78,7.78,0,0,0,3,0A1,1,0,0,0,10,15Z"/><path class="cls-1" d="M15,6H13a1,1,0,0,0-1,1V9a1,1,0,0,0,1,1h2a1,1,0,0,0,.86-.52,7.78,7.78,0,0,0,0-3A1,1,0,0,0,15,6Z"/><path class="cls-1" d="M1,10H3A1,1,0,0,0,4,9V7A1,1,0,0,0,3,6H1a1,1,0,0,0-.86.52,7.78,7.78,0,0,0,0,3A1,1,0,0,0,1,10Z"/><path class="cls-1" d="M1.08,4H3A1,1,0,0,0,4,3V1.08A8,8,0,0,0,1.08,4Z"/></g></svg>