<svg id="icon" xmlns="http://www.w3.org/2000/svg" viewBox="0 0 32 32"><defs><style>.cls-1{fill-rule:evenodd;}</style></defs><title>group-contacts</title><path class="cls-1" d="M25.82,16.79A4.91,4.91,0,0,0,23.13,16H20.88a4.87,4.87,0,0,0-.66,0A8,8,0,0,1,23.5,22.5V25H27a1,1,0,0,0,1-1V20.73A4.67,4.67,0,0,0,25.82,16.79Z"/><path class="cls-1" d="M14,14a3,3,0,0,0,3-3V8a3,3,0,0,0-6,0v3A3,3,0,0,0,14,14Z"/><path class="cls-1" d="M19.09,17.08a6.23,6.23,0,0,0-.71-.41A6.42,6.42,0,0,0,15.5,16h-3A6.5,6.5,0,0,0,6,22.5V26a1,1,0,0,0,1,1H21a1,1,0,0,0,1-1V22.5A6.5,6.5,0,0,0,19.09,17.08Z"/><path class="cls-1" d="M22,14.5a2,2,0,0,0,2-2v-2a2,2,0,0,0-4,0v2A2,2,0,0,0,22,14.5Z"/></svg>