<svg id="icon" xmlns="http://www.w3.org/2000/svg" viewBox="0 0 32 32"><path d="M27.08,22.9H4.91a.83.83,0,0,0-.91.71v1.91c0,1,1.81,1.82,3.1,1.82H25c1.68,0,3-1.06,3-2.37V23.61A.83.83,0,0,0,27.08,22.9Z"/><path d="M26.4,16H25.19l-2.61,2.66a.86.86,0,0,1-1.22,0L18.74,16h-.1l-1.36,1.38a.74.74,0,0,1-1.06,0L14.86,16H5.38A1.29,1.29,0,0,0,4,17.16v1.68A1.29,1.29,0,0,0,5.38,20h21a1.29,1.29,0,0,0,1.38-1.16V17.16A1.29,1.29,0,0,0,26.4,16Z"/><path d="M5.41,13.53H26.58A1.4,1.4,0,0,0,28,12.15V11s0-.36,0-.39a1.84,1.84,0,0,0-.15-.86C26.28,6.42,21.57,4,16,4S5.71,6.42,4.16,9.75a1.66,1.66,0,0,0-.15.86s0,.06,0,.09v1.45A1.4,1.4,0,0,0,5.41,13.53Zm12.3-4.21a1.5,1.5,0,1,1-1.5,1.5A1.5,1.5,0,0,1,17.71,9.32Zm-3.44-3.7a1.5,1.5,0,1,1-1.5,1.5A1.5,1.5,0,0,1,14.27,5.62ZM9.4,8.39a1.5,1.5,0,1,1-1.5,1.5A1.5,1.5,0,0,1,9.4,8.39Z"/></svg>