<svg id="icon" xmlns="http://www.w3.org/2000/svg" viewBox="0 0 32 32"><title>hd</title><path d="M21.57,13.2A5.31,5.31,0,0,0,20,13H19v5h1a3.72,3.72,0,0,0,2.24-.56,2.3,2.3,0,0,0,.76-2,2.57,2.57,0,0,0-.38-1.52A1.88,1.88,0,0,0,21.57,13.2ZM27,7H5A1.94,1.94,0,0,0,3,8.85v13.3A1.94,1.94,0,0,0,5,24H27a1.94,1.94,0,0,0,2-1.85V8.85A1.94,1.94,0,0,0,27,7ZM15,20H13V16H10v4H8V11h2v3h3V11h2Zm8.82-.76A6.52,6.52,0,0,1,20,20H17V11h3a6.62,6.62,0,0,1,3.79,1c.95.66,1.43,1.85,1.43,3.59A4.23,4.23,0,0,1,23.82,19.24Z"/></svg>