<svg id="icon" xmlns="http://www.w3.org/2000/svg" viewBox="0 0 32 32"><defs><style>.cls-1{fill-rule:evenodd;}</style></defs><title>hd_video_call</title><path class="cls-1" d="M18.57,13.2A5.53,5.53,0,0,0,17,13H16v5h1a3.78,3.78,0,0,0,2.24-.56,2.31,2.31,0,0,0,.77-2,2.6,2.6,0,0,0-.38-1.52A1.94,1.94,0,0,0,18.57,13.2Z"/><path class="cls-1" d="M23,11V10a2,2,0,0,0-2-2H6a2,2,0,0,0-2,2V22a2,2,0,0,0,2,2H21a2,2,0,0,0,2-2V21l6,2V9ZM13,20H11V16H8v4H6V11H8v3h3V11h2Zm7.47-.84A5.41,5.41,0,0,1,17,20H14V11h3a5.7,5.7,0,0,1,3.52.87A4.16,4.16,0,0,1,22,15.5,4.38,4.38,0,0,1,20.47,19.16Z"/></svg>