<svg id="icon" xmlns="http://www.w3.org/2000/svg" viewBox="0 0 32 32"><defs><style>.cls-1{fill-rule:evenodd;}</style></defs><title>hd_video_call</title><path class="cls-1" d="M18.57,13.2A5.31,5.31,0,0,0,17,13H16v5h1a3.72,3.72,0,0,0,2.24-.56,2.3,2.3,0,0,0,.76-2,2.57,2.57,0,0,0-.38-1.52A1.88,1.88,0,0,0,18.57,13.2Z"/><path class="cls-1" d="M23,11V10a2,2,0,0,0-2-2H6a2,2,0,0,0-2,2V22a2,2,0,0,0,2,2H21a2,2,0,0,0,2-2V21l6,2V9ZM13,20H11V16H8v4H6V11H8v3h3V11h2Zm7.47-.84A5.46,5.46,0,0,1,17,20H14V11h3a5.74,5.74,0,0,1,3.52.87A4.16,4.16,0,0,1,22,15.5,4.39,4.39,0,0,1,20.47,19.16Z"/></svg>