<svg xmlns="http://www.w3.org/2000/svg" viewBox="0 0 16 16"><defs><style>.cls-1{fill-rule:evenodd;}</style></defs><title>headphones</title><g id="Icon"><path class="cls-1" d="M14.09,10.63l-.06,0a9.83,9.83,0,0,0,1-4A6.79,6.79,0,0,0,8,0,6.81,6.81,0,0,0,1,6.59a9.74,9.74,0,0,0,1,4l0,0A1,1,0,0,0,1.69,12L3.3,14.54a1,1,0,0,0,1.38.31l.84-.54a1,1,0,0,0,.31-1.38L4.22,10.4A1,1,0,0,0,3.05,10a8.48,8.48,0,0,1-.87-3.42A5.78,5.78,0,0,1,8,1.09a5.78,5.78,0,0,1,5.84,5.51A8.59,8.59,0,0,1,13,10a1,1,0,0,0-1.15.4l-1.61,2.53a1,1,0,0,0,.31,1.38l.84.54a1,1,0,0,0,1.38-.31L14.4,12A1,1,0,0,0,14.09,10.63Z"/></g></svg>