<svg id="Icon" xmlns="http://www.w3.org/2000/svg" viewBox="0 0 16 16"><defs><style>.cls-1{fill-rule:evenodd;}</style></defs><title>headphones</title><path class="cls-1" d="M15.1,6.7A6.92,6.92,0,0,0,8,0,6.92,6.92,0,0,0,.9,6.7a7.48,7.48,0,0,0,.67,3,2.45,2.45,0,0,0-.1,3l1,1.31a2.43,2.43,0,0,0,3.4.51A.4.4,0,0,0,5.91,14L3.32,10.42A6.89,6.89,0,0,1,2.1,6.7,5.72,5.72,0,0,1,8,1.2a5.72,5.72,0,0,1,5.9,5.5,6.86,6.86,0,0,1-1.17,3.64L10.08,14a.41.41,0,0,0,.08.57,2.43,2.43,0,0,0,3.4-.51l1-1.31a2.48,2.48,0,0,0-.1-3A7.62,7.62,0,0,0,15.1,6.7Z"/></svg>