<svg id="icon" xmlns="http://www.w3.org/2000/svg" viewBox="0 0 32 32"><defs><style>.cls-1{fill-rule:evenodd;}</style></defs><title>history</title><path class="cls-1" d="M16,3A13,13,0,1,0,29,16,13,13,0,0,0,16,3Zm0,23.11A10.11,10.11,0,1,1,26.11,16,10.11,10.11,0,0,1,16,26.11Z"/><path class="cls-1" d="M21.43,17.22,17.51,15l0-6.45a1.44,1.44,0,0,0-.44-1.07A1.5,1.5,0,0,0,16,7.07,1.53,1.53,0,0,0,14.48,8.6l0,7.35a1.57,1.57,0,0,0,.2.76,1.59,1.59,0,0,0,.58.57L20,19.89a1.47,1.47,0,0,0,.73.19,1.53,1.53,0,0,0,1.48-2A1.46,1.46,0,0,0,21.43,17.22Z"/></svg>