<svg id="icon" xmlns="http://www.w3.org/2000/svg" viewBox="0 0 32 32"><title>hotel</title><path d="M22,6H20.82A3,3,0,0,0,18,4H14a3,3,0,0,0-2.82,2H10a4,4,0,0,0-4,4V27a1,1,0,0,0,1,1h7V27a1,1,0,0,1,1-1h2a1,1,0,0,1,1,1v1h7a1,1,0,0,0,1-1V10A4,4,0,0,0,22,6ZM15,22a1,1,0,0,1-1,1H13a1,1,0,0,1-1-1V21a1,1,0,0,1,1-1h1a1,1,0,0,1,1,1Zm0-5a1,1,0,0,1-1,1H13a1,1,0,0,1-1-1V16a1,1,0,0,1,1-1h1a1,1,0,0,1,1,1Zm0-5a1,1,0,0,1-1,1H13a1,1,0,0,1-1-1V11a1,1,0,0,1,1-1h1a1,1,0,0,1,1,1Zm5,10a1,1,0,0,1-1,1H18a1,1,0,0,1-1-1V21a1,1,0,0,1,1-1h1a1,1,0,0,1,1,1Zm0-5a1,1,0,0,1-1,1H18a1,1,0,0,1-1-1V16a1,1,0,0,1,1-1h1a1,1,0,0,1,1,1Zm0-5a1,1,0,0,1-1,1H18a1,1,0,0,1-1-1V11a1,1,0,0,1,1-1h1a1,1,0,0,1,1,1Z"/></svg>