<svg id="icon" xmlns="http://www.w3.org/2000/svg" viewBox="0 0 32 32"><title>image-wizard</title><polygon points="18 13 19.06 9.56 22.5 8.5 19.06 7.44 18 4 16.94 7.44 13.5 8.5 16.94 9.56 18 13"/><polygon points="7.71 8.71 10 8 7.71 7.29 7 5 6.29 7.29 4 8 6.29 8.71 7 11 7.71 8.71"/><polygon points="9 14 8.41 15.91 6.5 16.5 8.41 17.09 9 19 9.59 17.09 11.5 16.5 9.59 15.91 9 14"/><path d="M13.69,10.86a2,2,0,1,0-2.83,2.83L13,15.81,15.81,13Z"/><path d="M26.42,23.59l-9.51-9.5-2.82,2.82,9.5,9.51a2,2,0,1,0,2.83-2.83Z"/></svg>