<svg id="icon" xmlns="http://www.w3.org/2000/svg" viewBox="0 0 32 32"><title>image-drawer</title><path d="M14.56,26.93a2.43,2.43,0,0,1-2.26-1c-.93-1.39-.11-3.19,2.24-6-5.35,3.81-6.88,4.43-8.07,3.18-1.47-1.52.1-3.6,5.77-10.59l.94-1.16c-1.25,1-2.78,2.27-4.66,3.86a1.5,1.5,0,1,1-1.94-2.29c10.89-9.23,11.87-9.1,13-7.91,1.4,1.43,0,3.11-5.05,9.38-1,1.25-2.26,2.79-3.32,4.18,1.65-1.14,3.53-2.51,4.93-3.53,6.19-4.53,7.3-5.34,8.5-4s.17,2.31-3.42,6a57.79,57.79,0,0,0-6,6.8c1.11-.19,3.53-.88,8.64-3.19a1.5,1.5,0,1,1,1.24,2.73C19.52,26,16.39,26.93,14.56,26.93Z"/></svg>