<svg id="icon" xmlns="http://www.w3.org/2000/svg" viewBox="0 0 32 32"><title>image-rotate</title><path d="M11,21H21V11H11Zm2-8h6v6H13Z"/><path d="M15,23.81a.24.24,0,0,0-.14-.1.25.25,0,0,0-.31.18l-.24.9A11,11,0,0,1,7,17.05a1,1,0,1,0-1.94.5,13,13,0,0,0,8.79,9.17l-.25,1a.22.22,0,0,0,0,.16.26.26,0,0,0,.33.13l2.79-1.29,0,0a.25.25,0,0,0,.06-.35Z"/><path d="M27,14.52a13,13,0,0,0-8.81-9.23l.26-1a.22.22,0,0,0,0-.16A.26.26,0,0,0,18.07,4L15.29,5.31l0,0a.25.25,0,0,0-.06.35L17,8.19a.24.24,0,0,0,.14.1.24.24,0,0,0,.3-.18l.24-.89A11,11,0,0,1,25,15,1,1,0,1,0,27,14.52Z"/></svg>