<svg xmlns="http://www.w3.org/2000/svg" viewBox="0 0 16 16"><title>ime-sentense</title><g id="Icon"><path d="M15.28,6.82a2.38,2.38,0,0,0-2-.93,2.32,2.32,0,0,0-2,1h-.06q0-.14,0-.64t0-.76V3.22H9.78v9.65h1.09l.27-.81h.1a2.4,2.4,0,0,0,2,.94,2.41,2.41,0,0,0,2-.94A4.21,4.21,0,0,0,16,9.43,4.19,4.19,0,0,0,15.28,6.82ZM14.1,11.19a1.31,1.31,0,0,1-1.18.61,1.48,1.48,0,0,1-1.3-.56,3.2,3.2,0,0,1-.4-1.81v-.1a3,3,0,0,1,.4-1.73,1.48,1.48,0,0,1,1.27-.52q1.6,0,1.6,2.34A3.25,3.25,0,0,1,14.1,11.19Z"/><path d="M3.64,3.22,0,13H1.68l1-2.7H6.35l1,2.7H9L5.37,3.22ZM3.1,8.92,4,6.39A14.85,14.85,0,0,0,4.5,4.59q.07.27.24.84T5,6.27l.91,2.65Z"/></g></svg>