<svg xmlns="http://www.w3.org/2000/svg" viewBox="0 0 16 16"><title>ime-uppercase</title><g id="Icon"><path d="M3.39,3.42,0,12.76H1.56l.89-2.58H5.92l.91,2.58H8.4L5,3.42ZM2.89,8.86,3.7,6.44a14.44,14.44,0,0,0,.49-1.71q.06.25.23.8t.26.8l.85,2.53Z"/><path d="M15.54,8.61a2.39,2.39,0,0,0-1.44-.73V7.82a1.88,1.88,0,0,0,1.21-.68,2.14,2.14,0,0,0,.42-1.35A2,2,0,0,0,14.87,4a5.23,5.23,0,0,0-2.78-.56H9.34v9.3h3.36A3.76,3.76,0,0,0,15.13,12a2.39,2.39,0,0,0,.87-2A2.2,2.2,0,0,0,15.54,8.61ZM10.86,4.73h1.32a3,3,0,0,1,1.5.29,1,1,0,0,1,.47.95,1.16,1.16,0,0,1-.44,1,2.51,2.51,0,0,1-1.39.3H10.86Zm3.06,6.38a2.38,2.38,0,0,1-1.44.37H10.86V8.53h1.54a2.63,2.63,0,0,1,1.51.35A1.23,1.23,0,0,1,14.4,10,1.35,1.35,0,0,1,13.91,11.11Z"/></g></svg>