<svg id="icon" xmlns="http://www.w3.org/2000/svg" viewBox="0 0 32 32"><defs><style>.cls-1{fill-rule:evenodd;}</style></defs><title>ime-language</title><path class="cls-1" d="M16,4A12,12,0,1,0,28,16,12,12,0,0,0,16,4Zm9,7.67H20.47a25.73,25.73,0,0,0-1.64-5.26A10,10,0,0,1,25,11.67ZM15.45,6,16,6h.45a24.66,24.66,0,0,1,2,5.66h-5A24,24,0,0,1,15.45,6Zm-2.4.42a25.43,25.43,0,0,0-1.63,5.23H7A10,10,0,0,1,13.05,6.44ZM6,16a10,10,0,0,1,.27-2.33h4.85a22.68,22.68,0,0,0,0,4.66H6.27A10,10,0,0,1,6,16Zm1,4.33h4.43a25.43,25.43,0,0,0,1.63,5.23A10,10,0,0,1,7,20.33ZM16.45,26H16l-.55,0a24,24,0,0,1-2-5.65h5A24.66,24.66,0,0,1,16.45,26Zm-3.32-7.66a20.95,20.95,0,0,1,0-4.66h5.63A20.09,20.09,0,0,1,18.89,16a20.09,20.09,0,0,1-.13,2.33Zm5.7,7.26a25.73,25.73,0,0,0,1.64-5.26H25A10,10,0,0,1,18.83,25.59Zm1.94-7.26A22.58,22.58,0,0,0,20.89,16a22.58,22.58,0,0,0-.12-2.33h5a10.19,10.19,0,0,1,0,4.66Z"/></svg>