<svg xmlns="http://www.w3.org/2000/svg" viewBox="0 0 16 16"><title>ime-lowercase</title><g id="Icon"><path d="M4.3,5.73A5.72,5.72,0,0,0,3,5.88a5.19,5.19,0,0,0-1.25.45L2.25,7.4A7.8,7.8,0,0,1,3.2,7a3.36,3.36,0,0,1,1-.16,1.28,1.28,0,0,1,1,.33,1.41,1.41,0,0,1,.31,1v.37l-1.21,0a4.64,4.64,0,0,0-2.46.6A1.85,1.85,0,0,0,1,10.86a2.09,2.09,0,0,0,.58,1.58A2.23,2.23,0,0,0,3.24,13a3.22,3.22,0,0,0,1.32-.23,2.87,2.87,0,0,0,1-.87h.05l.3,1H7V8.15a2.29,2.29,0,0,0-.68-1.83A3,3,0,0,0,4.3,5.73Zm1.21,4.4A1.65,1.65,0,0,1,5,11.4a1.85,1.85,0,0,1-1.3.45,1.19,1.19,0,0,1-.84-.26.94.94,0,0,1-.28-.73,1.07,1.07,0,0,1,.48-1,3.1,3.1,0,0,1,1.53-.35l.9,0Z"/><path d="M13.63,6.68a2.43,2.43,0,0,0-2-1,2.37,2.37,0,0,0-2.09,1H9.43q0-.14,0-.65t0-.77V3H8v9.87H9.12L9.39,12h.1a2.46,2.46,0,0,0,2.07,1,2.46,2.46,0,0,0,2.06-1,4.31,4.31,0,0,0,.74-2.69A4.29,4.29,0,0,0,13.63,6.68Zm-1.21,4.47a1.34,1.34,0,0,1-1.2.63,1.51,1.51,0,0,1-1.33-.57,3.28,3.28,0,0,1-.41-1.86v-.1A3.09,3.09,0,0,1,9.9,7.48a1.52,1.52,0,0,1,1.3-.53q1.64,0,1.64,2.39A3.32,3.32,0,0,1,12.43,11.15Z"/></g></svg>