<svg xmlns="http://www.w3.org/2000/svg" viewBox="0 0 16 16"><title>ime-t9</title><g id="Icon"><path d="M15.2,5a3.11,3.11,0,0,0-3-2,3.06,3.06,0,0,0-2.33.9A3.38,3.38,0,0,0,9,6.33a3.15,3.15,0,0,0,.74,2.21,2.62,2.62,0,0,0,2,.81,3,3,0,0,0,1.3-.27A2.36,2.36,0,0,0,14,8.22h.08a4.14,4.14,0,0,1-.85,2.68,3,3,0,0,1-2.37.85,4.38,4.38,0,0,1-1.19-.17v1.31A5.31,5.31,0,0,0,11,13a4.24,4.24,0,0,0,3.49-1.42,6.7,6.7,0,0,0,1.16-4.3A5.76,5.76,0,0,0,15.2,5ZM13.5,7.63a2,2,0,0,1-1.33.47,1.51,1.51,0,0,1-1.22-.48,2,2,0,0,1-.4-1.31A2.3,2.3,0,0,1,11,4.83a1.52,1.52,0,0,1,1.25-.53,1.57,1.57,0,0,1,.95.3,2,2,0,0,1,.64.82A2.69,2.69,0,0,1,14,6.52,1.43,1.43,0,0,1,13.5,7.63Z"/><polygon points="0 4.4 2.94 4.4 2.94 13 4.58 13 4.58 4.4 7.52 4.4 7.52 3 0 3 0 4.4"/></g></svg>