<svg id="icon" xmlns="http://www.w3.org/2000/svg" viewBox="0 0 32 32"><title>ime-delete</title><path d="M27,8H11.91a2,2,0,0,0-1.51.68L4.62,15.3a1,1,0,0,0,0,1.36l6.75,6.75a2,2,0,0,0,1.42.59H27a1,1,0,0,0,1-1V9A1,1,0,0,0,27,8ZM26,22H12.83L6.74,15.91,11.91,10H26Z"/><path d="M14.28,19.71h0A1,1,0,0,0,15,20a1,1,0,0,0,.71-.3l2.3-2.3,2.3,2.31A1,1,0,0,0,21,20a1,1,0,0,0,.71-.29,1,1,0,0,0,0-1.41L19.41,16l2.3-2.3a1,1,0,0,0,0-1.41h0A1,1,0,0,0,21,12a1,1,0,0,0-.71.3L18,14.59l-2.29-2.3A1,1,0,0,0,15,12a1,1,0,0,0-.71.29,1,1,0,0,0,0,1.42L16.58,16l-2.3,2.3A1,1,0,0,0,14.28,19.71Z"/></svg>