<svg id="icon" xmlns="http://www.w3.org/2000/svg" viewBox="0 0 32 32"><defs><style>.cls-1{fill-rule:evenodd;}</style></defs><title>ime-delete</title><path class="cls-1" d="M24.54,7.48H12.27a3.07,3.07,0,0,0-2,.78L4.54,13.88a3,3,0,0,0,0,4.48l5.71,5.81A3,3,0,0,0,12.3,25H24.54a3,3,0,0,0,3.05-3V10.52A3,3,0,0,0,24.54,7.48ZM22,18.9a1.24,1.24,0,0,1,0,1.75,1.23,1.23,0,0,1-1.75,0L17.55,18l-2.68,2.67a1.23,1.23,0,0,1-1.74-1.75l2.67-2.67-2.67-2.67a1.23,1.23,0,0,1,1.74-1.75l2.68,2.67,2.67-2.67A1.24,1.24,0,0,1,22,13.56L19.3,16.23Z"/></svg>