<svg id="icon" xmlns="http://www.w3.org/2000/svg" viewBox="0 0 32 32"><title>input-tablet</title><path d="M23.92,4.44a2.5,2.5,0,0,0-3.45.61l-.28.4a.48.48,0,0,0,.12.68l3.25,2.26a.51.51,0,0,0,.69-.12l.28-.41A2.44,2.44,0,0,0,23.92,4.44Z"/><path d="M19.46,7.34a1,1,0,0,0-1.38.24L9.33,20a4.9,4.9,0,0,1-.81.89l-.78.67a1,1,0,0,0-.34.66L7,27a1,1,0,0,0,1.4,1l4.38-2a1,1,0,0,0,.5-.54l.37-1a5.15,5.15,0,0,1,.57-1.06L23,11a1,1,0,0,0-.25-1.37ZM15.64,17.88l-1.71,2.41a1,1,0,0,1-1.38.24h0a1,1,0,0,1-.24-1.36L14,16.75a1,1,0,0,1,1.39-.24A1,1,0,0,1,15.64,17.88Z"/></svg>