<svg id="icon" xmlns="http://www.w3.org/2000/svg" viewBox="0 0 32 32"><defs><style>.cls-1{fill-rule:evenodd;}</style></defs><title>input-gaming</title><path class="cls-1" d="M28.87,19.56l-2.5-9A3.5,3.5,0,0,0,23,8H9a3.5,3.5,0,0,0-3.37,2.56l-2.5,9a3.5,3.5,0,1,0,6.74,1.88l.4-1.44H21.73l.4,1.44A3.49,3.49,0,0,0,25.5,24a3.43,3.43,0,0,0,.94-.13A3.5,3.5,0,0,0,28.87,19.56ZM13,15H12v1a1,1,0,1,1-2,0V15H9a1,1,0,0,1,0-2h1V12a1,1,0,0,1,2,0v1h1a1,1,0,0,1,0,2Zm5.5.5A1.5,1.5,0,1,1,20,14,1.5,1.5,0,0,1,18.5,15.49Zm4.5,0A1.5,1.5,0,1,1,24.5,14,1.5,1.5,0,0,1,23,15.49Z"/></svg>