<svg id="icon" xmlns="http://www.w3.org/2000/svg" viewBox="0 0 32 32"><defs><style>.cls-1{fill-rule:evenodd;}</style></defs><title>input-gaming</title><path class="cls-1" d="M27.88,19.61,25.82,12a4,4,0,0,0-4.16-3L21.5,9h-11l-.16,0a4,4,0,0,0-4.16,3L4.12,19.61a3.51,3.51,0,0,0,6.79,1.82L11.29,20h9.42l.38,1.43a3.51,3.51,0,0,0,6.79-1.82ZM13,16H12v1a1,1,0,0,1-2,0V16H9a1,1,0,0,1,0-2h1V13a1,1,0,0,1,2,0v1h1a1,1,0,0,1,0,2Zm6,.25A1.25,1.25,0,1,1,20.25,15,1.25,1.25,0,0,1,19,16.25Zm4,0A1.25,1.25,0,1,1,24.25,15,1.25,1.25,0,0,1,23,16.25Z"/></svg>