<svg id="icon" xmlns="http://www.w3.org/2000/svg" viewBox="0 0 32 32"><title>internet-privacy</title><path d="M23.73,13.82A8.74,8.74,0,0,1,24,16v.1a5.05,5.05,0,0,1,2,0V16a11,11,0,1,0-7,10.25V24.06a8.45,8.45,0,0,1-2.27.77l-.05,0a12.23,12.23,0,0,0,3.08-4.63,12,12,0,0,0,.79-4.35,13.18,13.18,0,0,0-.17-2ZM15.08,8.09a10.24,10.24,0,0,1,2.67,3.73H12.3A10.24,10.24,0,0,1,15.08,8.09Zm-2-.89a12.17,12.17,0,0,0-2.94,4.62H7A9,9,0,0,1,13.09,7.2ZM6,16a8.74,8.74,0,0,1,.27-2.18H9.63a11.92,11.92,0,0,0-.18,2.08,12.32,12.32,0,0,0,.22,2.28H6.27A8.74,8.74,0,0,1,6,16Zm7.27,8.83A9,9,0,0,1,7,20.18h3.2a12.23,12.23,0,0,0,3.08,4.63ZM15,23.63a10.15,10.15,0,0,1-2.61-3.45h5.2A10.12,10.12,0,0,1,15,23.63Zm3.28-5.45H11.71a10,10,0,0,1,0-4.36h6.68a10.23,10.23,0,0,1,.2,2A10.78,10.78,0,0,1,18.28,18.18ZM17.09,7.24A9,9,0,0,1,23,11.82H19.88A12.27,12.27,0,0,0,17.09,7.24Z"/><path d="M28.33,22.67V21.33a3.33,3.33,0,0,0-6.66,0v1.34a.69.69,0,0,0-.67.69V28a.7.7,0,0,0,.71.7h6.58A.7.7,0,0,0,29,28V23.36A.69.69,0,0,0,28.33,22.67Zm-1.33,0H23V21.47A2.08,2.08,0,0,1,23.56,20a1.94,1.94,0,0,1,2.88,0A2.08,2.08,0,0,1,27,21.47Z"/></svg>