<?xml version="1.0" encoding="utf-8"?>
<!-- Generator: Adobe Illustrator 21.0.0, SVG Export Plug-In . SVG Version: 6.00 Build 0)  -->
<svg version="1.1" xmlns="http://www.w3.org/2000/svg" xmlns:xlink="http://www.w3.org/1999/xlink" x="0px" y="0px"
	 viewBox="0 0 26 16" style="enable-background:new 0 0 26 16;" xml:space="preserve">
<style type="text/css">
	.st0{fill-rule:evenodd;clip-rule:evenodd;}
</style>
<g id="Guide">
</g>
<g id="Icon">
	<path class="st0" d="M25,14H1c-0.6,0-1-0.4-1-1V6c0-0.6,0.4-1,1-1h24c0.6,0,1,0.4,1,1v7C26,13.6,25.6,14,25,14z M5,6l-1.2,4.1
		L2.7,6H1l2,7l0,0h0h1.6h0l0,0l2-7H5z M11,10c0-1.1-0.9-2-2-2H8.7c-1.1,0-2,0.9-2,2v1c0,1.1,0.9,2,2,2H9c1.1,0,2-0.9,2-2V10z M12,13
		h4v-1.5h-2.5V6H12V13z M20.3,6H15v1.5h2V13h1.5V7.5h1.8V6z M25,11.5h-2.4v-1.2h2V8.8h-2V7.5H25V6h-4v7h4V11.5z M8.8,11.5
		c-0.4,0-0.7-0.3-0.7-0.7v-0.6c0-0.4,0.3-0.7,0.7-0.7c0.4,0,0.7,0.3,0.7,0.7v0.6C9.6,11.2,9.2,11.5,8.8,11.5z"/>
</g>
</svg>
