<?xml version="1.0" encoding="utf-8"?>
<!-- Generator: Adobe Illustrator 21.0.0, SVG Export Plug-In . SVG Version: 6.00 Build 0)  -->
<svg version="1.1" xmlns="http://www.w3.org/2000/svg" xmlns:xlink="http://www.w3.org/1999/xlink" x="0px" y="0px"
	 viewBox="0 0 26 16" style="enable-background:new 0 0 26 16;" xml:space="preserve">
<style type="text/css">
	.st0{fill-rule:evenodd;clip-rule:evenodd;}
</style>
<g id="Guide">
</g>
<g id="Icon">
	<path class="st0" d="M25,14H1c-0.6,0-1-0.4-1-1V6c0-0.6,0.4-1,1-1h24c0.6,0,1,0.4,1,1v7C26,13.6,25.6,14,25,14z M4.6,6l-1.1,4.1
		L2.5,6H1l1.8,7l0,0h0h1.5h0l0,0l1.8-7H4.6z M8.2,8H7.9c-1,0-1.8,0.9-1.8,2v1c0,1.1,0.8,2,1.8,2h0.3c1,0,1.8-0.9,1.8-2v-1
		C10,8.9,9.2,8,8.2,8z M15.8,6L15,10.8L14.2,6H14h-1h-0.2L12,10.8L11.2,6H10l1.4,7l0,0h0h1.2h0l0,0l0.9-4.5l0.9,4.5l0,0h0h1.2h0l0,0
		L17,6H15.8z M19,6h-1.3v1.3H19V6z M19,8h-1.3v5H19V8z M23.1,9H21V7.3h2.1V6H21h-1h-0.3v7H21v-2.7h2.1V9z M25,6h-1.3v1.3H25V6z
		 M25,8h-1.3v5H25V8z M8,11.5c-0.4,0-0.7-0.3-0.7-0.7v-0.6c0-0.4,0.3-0.7,0.7-0.7c0.4,0,0.7,0.3,0.7,0.7v0.6
		C8.7,11.2,8.4,11.5,8,11.5z"/>
</g>
</svg>
