<?xml version="1.0" encoding="utf-8"?>
<!-- Generator: Adobe Illustrator 21.0.0, SVG Export Plug-In . SVG Version: 6.00 Build 0)  -->
<svg version="1.1" xmlns="http://www.w3.org/2000/svg" xmlns:xlink="http://www.w3.org/1999/xlink" x="0px" y="0px"
	 viewBox="0 0 16 16" style="enable-background:new 0 0 16 16;" xml:space="preserve">
<style type="text/css">
	.st0{fill-rule:evenodd;clip-rule:evenodd;}
</style>
<g id="Guide">
</g>
<g id="Icon">
	<path class="st0" d="M8,16c-4.4,0-8-3.6-8-8s3.6-8,8-8s8,3.6,8,8S12.4,16,8,16z M5,3C3.9,3,3,3.9,3,5s0.9,2,2,2s2-0.9,2-2
		S6.1,3,5,3z M5,9c-1.1,0-2,0.9-2,2s0.9,2,2,2s2-0.9,2-2S6.1,9,5,9z M11,3C9.9,3,9,3.9,9,5s0.9,2,2,2s2-0.9,2-2S12.1,3,11,3z M11,9
		c-1.1,0-2,0.9-2,2s0.9,2,2,2s2-0.9,2-2S12.1,9,11,9z"/>
</g>
</svg>
