<svg xmlns="http://www.w3.org/2000/svg" viewBox="0 0 16 16"><defs><style>.cls-1{fill-rule:evenodd;}</style></defs><title>jio-roaming</title><g id="Icon"><path class="cls-1" d="M8.83,5.42a2.52,2.52,0,0,0-1.27-.23H6.27V7.46H7.61a2.09,2.09,0,0,0,1.24-.27,1.09,1.09,0,0,0,.48-.9A1,1,0,0,0,8.83,5.42Z"/><path class="cls-1" d="M12.29,2H3.71A1.71,1.71,0,0,0,2,3.71v8.57A1.71,1.71,0,0,0,3.71,14h8.57A1.71,1.71,0,0,0,14,12.29V3.71A1.71,1.71,0,0,0,12.29,2ZM9.75,12.27,7.55,8.85H6.27v3.43H4.57V3.7H7.63a4.48,4.48,0,0,1,2.63.62,2.17,2.17,0,0,1,.85,1.88A2.37,2.37,0,0,1,9.33,8.48l2.59,3.79Z"/></g></svg>