<svg id="icon" xmlns="http://www.w3.org/2000/svg" viewBox="0 0 32 32"><path d="M9.58,5.15a2.58,2.58,0,0,0-1.81.73A2.52,2.52,0,0,0,7,7.66V24.31a2.53,2.53,0,0,0,1.27,2.22,2.58,2.58,0,0,0,2.58,0,2.53,2.53,0,0,0,1.27-2.22V7.66A2.54,2.54,0,0,0,9.58,5.15Z"/><path d="M21.24,11.73h.21A3.37,3.37,0,1,0,18,8.37a3.35,3.35,0,0,0,1,2.38A3.46,3.46,0,0,0,21.24,11.73Z"/><path d="M25.4,23,18.13,12.82a2.55,2.55,0,0,0-4.38.38A2.45,2.45,0,0,0,14,15.69l7.27,10.22A2.56,2.56,0,0,0,23.55,27a2.53,2.53,0,0,0,2.09-1.44A2.44,2.44,0,0,0,25.4,23Z"/></svg>