<svg id="icon" xmlns="http://www.w3.org/2000/svg" viewBox="0 0 32 32"><defs><style>.cls-1{fill-rule:evenodd;}</style></defs><title>keyboard</title><path class="cls-1" d="M26.52,9h-21A1.5,1.5,0,0,0,4,10.5v11A1.5,1.5,0,0,0,5.52,23h21A1.5,1.5,0,0,0,28,21.5v-11A1.5,1.5,0,0,0,26.52,9ZM17,12h2v1a1,1,0,0,1-2,0Zm-3,0h2v1a1,1,0,1,1-2,0Zm3,3v1a1,1,0,0,1-2,0V15Zm-6-3h2v1a1,1,0,1,1-2,0ZM6,12h4v1a1,1,0,0,1-1,1H7a1,1,0,0,1-1-1Zm0,3H8v1a1,1,0,0,1-2,0Zm3,4a1,1,0,0,1-1,1H7a1,1,0,0,1-1-1V18H9Zm0-3V15h2v1a1,1,0,0,1-2,0Zm3,3a1,1,0,0,1-2,0V18h2Zm0-3V15h2v1a1,1,0,0,1-2,0Zm8,3a1,1,0,0,1-1,1H14a1,1,0,0,1-1-1V18h7Zm0-3a1,1,0,0,1-2,0V15h2Zm0-3V12h2v1a1,1,0,1,1-2,0Zm3,6a1,1,0,0,1-2,0V18h2Zm3,0a1,1,0,0,1-2,0V18h2Zm0-3a1,1,0,0,1-1,1H22a1,1,0,0,1-1-1V15h5Zm0-3a1,1,0,0,1-1,1H24a1,1,0,0,1-1-1V12h3Z"/></svg>