<svg id="icon" xmlns="http://www.w3.org/2000/svg" viewBox="0 0 32 32"><title>lap</title><path d="M25.15,12.57,19.81,7.23a9.76,9.76,0,0,0-4.66-3,8.93,8.93,0,0,0-9,2.89A9.1,9.1,0,0,0,6.81,19.4l.78.77a.48.48,0,0,0,.7,0l2.83-2.83a.48.48,0,0,0,0-.7l-.83-.83a4.05,4.05,0,0,1,0-5.8,3.91,3.91,0,0,1,5.38.13l6.05,6.05a4.06,4.06,0,0,1,0,5.8,3.91,3.91,0,0,1-5.38-.13l-1-1a.48.48,0,0,0-.7,0l-2.83,2.83a.48.48,0,0,0,0,.7l.76.76A9.33,9.33,0,0,0,18.5,28a8.87,8.87,0,0,0,6.87-2.56A9.11,9.11,0,0,0,25.15,12.57Z"/><path d="M14.16,17.84a1,1,0,0,0-1.41,0L7.5,23.09A1,1,0,1,0,8.91,24.5l5.25-5.25A1,1,0,0,0,14.16,17.84Z"/></svg>