<svg id="icon" xmlns="http://www.w3.org/2000/svg" viewBox="0 0 32 32"><title>like-off</title><path d="M11,8.64h0c1.35,0,2.23.68,3.34,1.79L16,12.1l1.67-1.67c1-.91,2-1.79,3.33-1.79a3.27,3.27,0,0,1,.54,0,3.78,3.78,0,0,1,2.61,1.58,4.45,4.45,0,0,1,.75,3.45c-.4,2.07-2.42,4.21-8.88,9.37-7.75-6.31-8.84-7.71-9-9.71A4.64,4.64,0,0,1,8.15,10a3.72,3.72,0,0,1,2.64-1.3H11m0-2h-.31A6.26,6.26,0,0,0,5,13.52c.22,2.93,1.8,4.68,10.34,11.62a1.1,1.1,0,0,0,.64.22,1,1,0,0,0,.63-.22c7.23-5.73,9.67-8.18,10.23-11a6.2,6.2,0,0,0-5.07-7.4,7.31,7.31,0,0,0-.8-.05,6.12,6.12,0,0,0-5,2.54,6.19,6.19,0,0,0-5-2.54Z"/></svg>