<svg id="Icon" xmlns="http://www.w3.org/2000/svg" viewBox="0 0 16 16"><defs><style>.cls-1{fill-rule:evenodd;}</style></defs><title>lte-plus</title><path class="cls-1" d="M12,4.92V4.81a.68.68,0,0,0-.15-.49.63.63,0,0,0-.49-.16H9.94a.64.64,0,0,0-.44.12.46.46,0,0,0-.21.42.53.53,0,0,0,.21.43.78.78,0,0,0,.44.1h1a1.81,1.81,0,0,1-.37,1.32h0a1.32,1.32,0,0,1-.95.39,1.24,1.24,0,0,1-.94-.39c-.33-.34-.38-.8-.38-2s0-1.66.38-2a1.24,1.24,0,0,1,.93-.39A1.22,1.22,0,0,1,10.78,3h0a.92.92,0,0,0,.23.4.5.5,0,0,0,.35.12.52.52,0,0,0,.39-.15.59.59,0,0,0,.16-.42,2.13,2.13,0,0,0-.46-1.07A2.24,2.24,0,0,0,9.57,1a2.42,2.42,0,0,0-1.75.69c-.67.67-.71,1.24-.71,2.8s0,2.12.71,2.8A2.4,2.4,0,0,0,9.57,8a2.37,2.37,0,0,0,1.74-.69C11.89,6.72,12,6.17,12,4.92Z"/><path class="cls-1" d="M2.42,7.05H4.79V7.7a.57.57,0,0,0,.57.56.56.56,0,0,0,.56-.56V7.05H6.1a.56.56,0,0,0,0-1.12H5.92V1.58A.56.56,0,0,0,5.36,1H4.21a.55.55,0,0,0-.53.37L1.89,6.3A.55.55,0,0,0,2,6.81.56.56,0,0,0,2.42,7.05ZM4.6,2.14h.19V5.93H3.22Z"/><path class="cls-1" d="M4.35,13.7h-2v-4a.65.65,0,1,0-1.3,0v4.7a.65.65,0,0,0,.65.65h2.7a.65.65,0,0,0,0-1.3Z"/><path class="cls-1" d="M8.26,9H5.06a.65.65,0,0,0,0,1.3H6v4a.65.65,0,0,0,1.3,0v-4h1a.65.65,0,0,0,0-1.3Z"/><path class="cls-1" d="M13,10.3A.65.65,0,0,0,13,9h-2.7a.65.65,0,0,0-.65.65v4.7a.65.65,0,0,0,.65.65H13a.65.65,0,0,0,0-1.3H11v-1h1.75a.65.65,0,1,0,0-1.3H11v-1Z"/><polygon class="cls-1" points="16 6 15 6 15 5 14 5 14 6 13 6 13 7 14 7 14 8 15 8 15 7 16 7 16 6"/></svg>