<svg xmlns="http://www.w3.org/2000/svg" viewBox="0 0 16 16"><title>lte</title><g id="Icon"><path d="M7.76,6.93H7V8H6V6.93H3V6.07l3-5H7V6h.8ZM3.89,6H6V2.34H6Z"/><path d="M10.81,4H13V7.77a5.58,5.58,0,0,1-1,.29,6.26,6.26,0,0,1-1.07.09,2.49,2.49,0,0,1-2.08-.93,4.18,4.18,0,0,1-.73-2.64,3.87,3.87,0,0,1,.83-2.63A2.86,2.86,0,0,1,11.19,1,3.88,3.88,0,0,1,13,1.42l-.34.95A3,3,0,0,0,11.16,2a1.82,1.82,0,0,0-1.5.7A3,3,0,0,0,9.1,4.58a3.19,3.19,0,0,0,.5,1.94A1.68,1.68,0,0,0,11,7.18,4.06,4.06,0,0,0,12,7V5H10.81Z"/><path d="M2,15V10H3.21v4H5.53v1Z"/><path d="M8.29,15H7.08V11H5.53V10H9.84v1H8.29Z"/><path d="M14.35,15H11.06V10h3.29v1H12.27v1H14.2v1H12.27v1h2.08Z"/></g></svg>