<svg id="Icon" xmlns="http://www.w3.org/2000/svg" viewBox="0 0 16 16"><title>lte</title><path d="M10.71,8a2.38,2.38,0,0,0,1.75-.69c.57-.59.68-1.14.68-2.39V4.81A.68.68,0,0,0,13,4.32a.62.62,0,0,0-.49-.16H11.09a.67.67,0,0,0-.45.12.48.48,0,0,0-.2.42.52.52,0,0,0,.2.43.81.81,0,0,0,.45.1H12a1.81,1.81,0,0,1-.37,1.32h0a1.3,1.3,0,0,1-.95.39,1.24,1.24,0,0,1-.94-.39c-.33-.34-.38-.8-.38-2s0-1.66.38-2a1.24,1.24,0,0,1,.93-.39A1.2,1.2,0,0,1,11.92,3h0a.84.84,0,0,0,.24.4.47.47,0,0,0,.34.12.51.51,0,0,0,.39-.15.59.59,0,0,0,.16-.42,2,2,0,0,0-.46-1.07A2.24,2.24,0,0,0,10.71,1,2.44,2.44,0,0,0,9,1.71c-.67.67-.71,1.24-.71,2.8s0,2.12.71,2.8A2.4,2.4,0,0,0,10.71,8Z"/><path d="M3.56,7.05H5.94V7.7a.56.56,0,1,0,1.12,0V7.05h.18a.56.56,0,0,0,0-1.12H7.06V1.58A.56.56,0,0,0,6.5,1H5.35a.55.55,0,0,0-.53.37L3,6.3a.56.56,0,0,0,.53.75ZM5.74,2.14h.2V5.93H4.36Z"/><path d="M9.35,9H6.15a.65.65,0,0,0,0,1.3H7.1v4a.65.65,0,1,0,1.3,0v-4h.95a.65.65,0,0,0,0-1.3Z"/><path d="M5.35,13.7h-2v-4a.65.65,0,1,0-1.3,0v4.7a.65.65,0,0,0,.65.65h2.7a.65.65,0,0,0,0-1.3Z"/><path d="M13.85,13.7h-2v-1h1.75a.65.65,0,1,0,0-1.3H11.8v-1h2a.65.65,0,0,0,0-1.3h-2.7a.65.65,0,0,0-.65.65v4.7a.65.65,0,0,0,.65.65h2.7a.65.65,0,0,0,0-1.3Z"/></svg>