<?xml version="1.0" encoding="UTF-8" standalone="no"?>
<svg
   xmlns:dc="http://purl.org/dc/elements/1.1/"
   xmlns:cc="http://creativecommons.org/ns#"
   xmlns:rdf="http://www.w3.org/1999/02/22-rdf-syntax-ns#"
   xmlns:svg="http://www.w3.org/2000/svg"
   xmlns="http://www.w3.org/2000/svg"
   xmlns:sodipodi="http://sodipodi.sourceforge.net/DTD/sodipodi-0.dtd"
   xmlns:inkscape="http://www.inkscape.org/namespaces/inkscape"
   id="Icon"
   viewBox="0 0 16 16"
   version="1.1"
   sodipodi:docname="lte.svg"
   inkscape:version="0.92.4 (5da689c313, 2019-01-14)">
  <metadata
     id="metadata19">
    <rdf:RDF>
      <cc:Work
         rdf:about="">
        <dc:format>image/svg+xml</dc:format>
        <dc:type
           rdf:resource="http://purl.org/dc/dcmitype/StillImage" />
      </cc:Work>
    </rdf:RDF>
  </metadata>
  <defs
     id="defs17" />
  <sodipodi:namedview
     pagecolor="#ffffff"
     bordercolor="#666666"
     borderopacity="1"
     objecttolerance="10"
     gridtolerance="10"
     guidetolerance="10"
     inkscape:pageopacity="0"
     inkscape:pageshadow="2"
     inkscape:window-width="1920"
     inkscape:window-height="977"
     id="namedview15"
     showgrid="false"
     inkscape:zoom="14.75"
     inkscape:cx="8"
     inkscape:cy="8"
     inkscape:window-x="-4"
     inkscape:window-y="-4"
     inkscape:window-maximized="1"
     inkscape:current-layer="Icon" />
  <title
     id="title2">lte</title>
  <path
     d="m 10.845593,11.186441 a 2.38,2.38 0 0 0 1.75,-0.69 c 0.57,-0.5900003 0.68,-1.1400003 0.68,-2.3900003 v -0.11 a 0.68,0.68 0 0 0 -0.14,-0.49 0.62,0.62 0 0 0 -0.49,-0.16 h -1.42 a 0.67,0.67 0 0 0 -0.45,0.12 0.48,0.48 0 0 0 -0.2,0.42 0.52,0.52 0 0 0 0.2,0.43 0.81,0.81 0 0 0 0.45,0.1 h 0.91 a 1.81,1.81 0 0 1 -0.37,1.32 v 0 a 1.3,1.3 0 0 1 -0.95,0.3900003 1.24,1.24 0 0 1 -0.9399998,-0.3900003 c -0.33,-0.34 -0.38,-0.8 -0.38,-2 0,-1.2 0,-1.66 0.38,-2 a 1.24,1.24 0 0 1 0.9299998,-0.39 1.2,1.2 0 0 1 1.25,0.84 v 0 a 0.84,0.84 0 0 0 0.24,0.4 0.47,0.47 0 0 0 0.34,0.12 0.51,0.51 0 0 0 0.39,-0.15 0.59,0.59 0 0 0 0.16,-0.42 2,2 0 0 0 -0.46,-1.07 2.24,2.24 0 0 0 -1.88,-0.88 2.44,2.44 0 0 0 -1.7099998,0.71 c -0.67,0.67 -0.71,1.24 -0.71,2.8 0,1.56 0,2.12 0.71,2.8000003 a 2.4,2.4 0 0 0 1.7099998,0.69 z"
     id="path4"
     inkscape:connector-curvature="0" />
  <path
     d="m 3.4922034,10.372034 h 2.38 v 0.65 a 0.56,0.56 0 1 0 1.12,0 v -0.65 h 0.18 a 0.56,0.56 0 0 0 0,-1.1200001 h -0.18 v -4.35 a 0.56,0.56 0 0 0 -0.56,-0.58 h -1.15 a 0.55,0.55 0 0 0 -0.53,0.37 l -1.82,4.93 a 0.56,0.56 0 0 0 0.53,0.7500001 z m 2.18,-4.9100001 h 0.2 v 3.79 h -1.58 z"
     id="path6"
     inkscape:connector-curvature="0" />
</svg>
