<svg id="icon" xmlns="http://www.w3.org/2000/svg" viewBox="0 0 32 32"><defs><style>.cls-1{fill-rule:evenodd;}</style></defs><title>email-reply-all</title><path class="cls-1" d="M5.56,16.74a1,1,0,0,1,0-1.46l6.07-5.56a1,1,0,0,0,.05-1.4,1,1,0,0,0-1.41-.05L3,14.9a1.54,1.54,0,0,0,0,2.25l7.22,6.59a1,1,0,0,0,.67.26,1,1,0,0,0,.74-.32,1,1,0,0,0-.06-1.41Z"/><path class="cls-1" d="M29.37,22.57c-1-7-4-9.66-7.82-9.66H17V9a1,1,0,0,0-1.68-.77l-7.58,7a1.06,1.06,0,0,0-.07,1.46l.07.08,7.58,7a1,1,0,0,0,1.43-.08A1.08,1.08,0,0,0,17,23V19.09h4.55c2.44,0,4.33,1.3,5.67,4.14a1.16,1.16,0,0,0,1.45.72C29.55,23.73,29.41,22.86,29.37,22.57Z"/></svg>