<svg id="icon" xmlns="http://www.w3.org/2000/svg" viewBox="0 0 32 32"><path d="M8,17a1.5,1.5,0,0,0,1.5-1.5A4.51,4.51,0,0,1,14,11h6v1.69a.5.5,0,0,0,.78.42l4.36-2.93h0a.87.87,0,0,0,0-1.36h0L20.78,5.89a.5.5,0,0,0-.78.42V8H14a7.5,7.5,0,0,0-7.5,7.5A1.5,1.5,0,0,0,8,17Z"/><path d="M24.25,15a1.5,1.5,0,0,0-1.5,1.5,4.51,4.51,0,0,1-4.5,4.5H12V19.31a.5.5,0,0,0-.78-.42L6.86,21.82h0a.87.87,0,0,0,0,1.36h0l4.36,2.93a.5.5,0,0,0,.78-.42V24h6.25a7.5,7.5,0,0,0,7.5-7.5A1.5,1.5,0,0,0,24.25,15Z"/><path d="M16.25,19.5a.76.76,0,0,0,.75-.75v-5.5a.76.76,0,0,0-.75-.75h-1.5a.75.75,0,0,0,0,1.5h.75v4.75A.76.76,0,0,0,16.25,19.5Z"/></svg>