<svg id="icon" xmlns="http://www.w3.org/2000/svg" viewBox="0 0 32 32"><title>media-shuffle</title><path d="M25.64,20.82l-4.35-2.93a.5.5,0,0,0-.78.42V20h-1a2.28,2.28,0,0,1-2-1.09L15.81,16l1.75-2.91a2.28,2.28,0,0,1,2-1.09h1v1.69a.51.51,0,0,0,.79.42l4.38-2.93h0a.87.87,0,0,0,0-1.36h0L21.28,6.89a.51.51,0,0,0-.79.42V9h-1A5.32,5.32,0,0,0,15,11.55l-.91,1.53-.92-1.53A5.31,5.31,0,0,0,8.61,9H7.51a1.5,1.5,0,1,0,0,3h1.1a2.31,2.31,0,0,1,2,1.09L12.32,16l-1.75,2.91a2.28,2.28,0,0,1-2,1.09H7.51a1.5,1.5,0,1,0,0,3h1.1a5.31,5.31,0,0,0,4.54-2.55l.92-1.53L15,20.45A5.32,5.32,0,0,0,19.52,23h1v1.69a.5.5,0,0,0,.78.42l4.35-2.93h0a.85.85,0,0,0,0-1.36Z"/></svg>