<svg id="icon" xmlns="http://www.w3.org/2000/svg" viewBox="0 0 32 32"><title>media-optical</title><path d="M27,15.31a.53.53,0,0,1,0-.13,11.13,11.13,0,0,0-.59-2.83c0-.08-.06-.17-.1-.26a11.41,11.41,0,0,0-.55-1.24l0-.06a10.45,10.45,0,0,0-.76-1.19l-.21-.29a11.47,11.47,0,0,0-2-2l-.29-.21a10.45,10.45,0,0,0-1.19-.76l-.06,0a11.41,11.41,0,0,0-1.24-.55l-.26-.1A11.13,11.13,0,0,0,16.82,5h-.13L16,5c-.24,0-.48,0-.72,0h-.07a10.84,10.84,0,0,0-3,.63h-.06a11.6,11.6,0,0,0-1.81.87l-.3.18-.06,0c-.2.13-.4.28-.59.42l-.18.13,0,0a11.5,11.5,0,0,0-1,.87h0L8,8.43a7.32,7.32,0,0,0-.59.66l0,.06-.2.27a5.92,5.92,0,0,0-.35.48L6.79,10c-.07.11-.13.23-.2.35s-.21.33-.3.5-.14.3-.21.45-.17.34-.24.51,0,0,0,.05l0,.05s0,.1,0,.14c-.15.39-.27.78-.38,1.18,0,.11,0,.21-.08.31a12.78,12.78,0,0,0-.24,1.4h0v0c0,.3,0,.61,0,.91,0,0,0,.09,0,.14v0c0,.34,0,.69,0,1h0v0a12.53,12.53,0,0,0,.2,1.25c0,.15.08.3.12.45a6.29,6.29,0,0,0,.22.74c0,.1,0,.2.08.29h0v0a8.5,8.5,0,0,0,.42,1l0,.11c.15.29.3.57.47.84a1.37,1.37,0,0,0,.13.2q.24.38.51.72l.17.24a11.42,11.42,0,0,0,1.63,1.63l.24.17q.35.27.72.51a1.37,1.37,0,0,0,.2.13c.27.17.55.32.84.47l.11.05a8.5,8.5,0,0,0,1,.42h0v0l.29.08a6.29,6.29,0,0,0,.74.22l.45.12a12.53,12.53,0,0,0,1.25.2h0c.34,0,.69.05,1,.05h.16c.3,0,.61,0,.91,0h0a12.78,12.78,0,0,0,1.4-.24l.31-.08c.4-.11.79-.23,1.18-.38l.14-.05.05,0,.05,0,.51-.24.45-.21c.17-.09.33-.2.5-.3l.35-.2.08-.06a5.92,5.92,0,0,0,.48-.35l.27-.2.06-.05a7.32,7.32,0,0,0,.66-.59l.19-.17h0a11.5,11.5,0,0,0,.87-1l0,0,.13-.18c.14-.19.29-.39.42-.59l0-.06.18-.3a11.6,11.6,0,0,0,.87-1.81v-.05h0a10.84,10.84,0,0,0,.63-3v-.07c0-.24,0-.48,0-.72S27,15.54,27,15.31ZM16,18.49A2.49,2.49,0,1,1,18.49,16,2.5,2.5,0,0,1,16,18.49ZM12.71,24.9A9.53,9.53,0,0,1,7.1,19.29l5.35-2a3.83,3.83,0,0,0,2.23,2.23Zm6.84-10.2a3.79,3.79,0,0,0-2.25-2.25l2-5.36a9.53,9.53,0,0,1,5.64,5.64Z"/></svg>