<svg id="icon" xmlns="http://www.w3.org/2000/svg" viewBox="0 0 32 32"><title>messages-sim1</title><path d="M24.5,6H12v5.5A1.5,1.5,0,0,1,10.5,13H5v7.5A2.5,2.5,0,0,0,7.5,23H10v4.3a.7.7,0,0,0,1.19.49L16,23h8.5A2.5,2.5,0,0,0,27,20.5V8.5A2.5,2.5,0,0,0,24.5,6ZM21,18H11a1,1,0,0,1,0-2H21a1,1,0,0,1,0,2Zm0-5H16a1,1,0,0,1,0-2h5a1,1,0,0,1,0,2Z"/><path d="M10,10.28V5.12a.35.35,0,0,0-.14-.28L7.64,3.09A.39.39,0,0,0,7.38,3H3.78A.75.75,0,0,0,3,3.72v6.56a.75.75,0,0,0,.78.72H9.22A.75.75,0,0,0,10,10.28ZM7,10H6V5.18l-.86.64-.48-.6L6.17,4H7Z"/></svg>