<svg id="icon" xmlns="http://www.w3.org/2000/svg" viewBox="0 0 32 32"><path d="M24.5,6H12v5.5A1.5,1.5,0,0,1,10.5,13H5v7.5A2.5,2.5,0,0,0,7.5,23H10v4.3a.7.7,0,0,0,1.19.49L16,23h8.5A2.5,2.5,0,0,0,27,20.5V8.5A2.5,2.5,0,0,0,24.5,6ZM21,18H11a1,1,0,0,1,0-2H21a1,1,0,0,1,0,2Zm0-5H16a1,1,0,0,1,0-2h5a1,1,0,0,1,0,2Z"/><path d="M9.72,4.82,8.16,3.32A1.13,1.13,0,0,0,7.45,3H4.27A1.28,1.28,0,0,0,3,4.29V9.71A1.28,1.28,0,0,0,4.27,11H8.73A1.28,1.28,0,0,0,10,9.71V5.57A1.38,1.38,0,0,0,9.72,4.82ZM7.29,9.36A.64.64,0,0,1,6,9.36V5.12H5.07A.56.56,0,1,1,5.07,4H6.65a.64.64,0,0,1,.64.64Z"/></svg>