<svg id="icon" xmlns="http://www.w3.org/2000/svg" viewBox="0 0 32 32"><path d="M24.5,6H12v5.5A1.5,1.5,0,0,1,10.5,13H5v7.5A2.5,2.5,0,0,0,7.5,23H10v4.3a.7.7,0,0,0,1.19.49L16,23h8.5A2.5,2.5,0,0,0,27,20.5V8.5A2.5,2.5,0,0,0,24.5,6ZM21,18H11a1,1,0,0,1,0-2H21a1,1,0,0,1,0,2Zm0-5H16a1,1,0,0,1,0-2h5a1,1,0,0,1,0,2Z"/><path d="M9.72,4.82,8.16,3.32A1.13,1.13,0,0,0,7.45,3H4.27A1.28,1.28,0,0,0,3,4.29V9.71A1.28,1.28,0,0,0,4.27,11H8.73A1.28,1.28,0,0,0,10,9.71V5.57A1.38,1.38,0,0,0,9.72,4.82Zm-1.6,5.1a.67.67,0,0,1-.39.08H5.3a.7.7,0,0,1-.53-.16.55.55,0,0,1-.15-.38A.78.78,0,0,1,4.85,9l2-2.51a1.13,1.13,0,0,0,.31-.77.59.59,0,0,0-.67-.62.62.62,0,0,0-.69.49.78.78,0,0,1-.17.37.52.52,0,0,1-.42.19.54.54,0,0,1-.56-.57A1.6,1.6,0,0,1,5.2,4.46,2,2,0,0,1,6.52,4,1.62,1.62,0,0,1,8.34,5.66a2,2,0,0,1-.58,1.41L6.26,9H7.73A.65.65,0,0,1,8.12,9a.47.47,0,0,1,.26.44A.49.49,0,0,1,8.12,9.92Z"/></svg>