<svg id="icon" xmlns="http://www.w3.org/2000/svg" viewBox="0 0 32 32"><title>messages-sim2</title><path d="M24.5,6H12v5.5A1.5,1.5,0,0,1,10.5,13H5v7.5A2.5,2.5,0,0,0,7.5,23H10v4.3a.7.7,0,0,0,1.19.49L16,23h8.5A2.5,2.5,0,0,0,27,20.5V8.5A2.5,2.5,0,0,0,24.5,6ZM21,18H11a1,1,0,0,1,0-2H21a1,1,0,0,1,0,2Zm0-5H16a1,1,0,0,1,0-2h5a1,1,0,0,1,0,2Z"/><path d="M10,10.28V5.12a.35.35,0,0,0-.14-.28L7.64,3.09A.39.39,0,0,0,7.38,3H3.78A.75.75,0,0,0,3,3.72v6.56a.75.75,0,0,0,.78.72H9.22A.75.75,0,0,0,10,10.28ZM8.5,10h-4V9.13L6,7.63c.42-.45.7-.76.83-.94a2,2,0,0,0,.28-.48,1.44,1.44,0,0,0,.08-.46A.66.66,0,0,0,7,5.22.68.68,0,0,0,6.45,5a1.44,1.44,0,0,0-.64.16,3.88,3.88,0,0,0-.66.45l-.65-.8a3.87,3.87,0,0,1,.7-.53,2.69,2.69,0,0,1,.6-.24A3.29,3.29,0,0,1,6.54,4a2.16,2.16,0,0,1,.94.2,1.58,1.58,0,0,1,.63.57,1.54,1.54,0,0,1,.23.83,2.19,2.19,0,0,1-.14.77,2.68,2.68,0,0,1-.43.73,10.61,10.61,0,0,1-1,1.08L6,8.89V9H8.5Z"/></svg>