<svg id="icon" xmlns="http://www.w3.org/2000/svg" viewBox="0 0 32 32"><defs><style>.cls-1{fill-rule:evenodd;}</style></defs><path class="cls-1" d="M29.6,7.36C28.43,5.56,26,5.29,24,5.62S19.67,7.34,20.23,7.2a14.26,14.26,0,0,1,5-.44c1.86.18,3.56,1.45,3.4,3.61s-1.58,3.83-2.87,5.46a25.51,25.51,0,0,1-6.71,5.8c-2.38,1.46-6.66,3.62-9.6,3a2.19,2.19,0,0,1-1.66-3,8,8,0,0,1,1-2.13l.93,2.06a1.53,1.53,0,0,0,2.73.12l1.76-3.23a1.5,1.5,0,0,1,1.17-.77l3.72-.37a1.47,1.47,0,0,0,1.2-.82,1.5,1.5,0,0,0-.27-1.7l-2.59-2.7a1.48,1.48,0,0,1-.38-1.34l.75-3.61A1.53,1.53,0,0,0,15.7,5.45L12.33,7A1.53,1.53,0,0,1,10.92,7L7.68,5.09a1.52,1.52,0,0,0-2.13.63,1.5,1.5,0,0,0-.13.85l.5,3.67a1.37,1.37,0,0,1-.13.85,1.41,1.41,0,0,1-.35.46L2.68,14a1.28,1.28,0,0,0-.35.46,1.51,1.51,0,0,0,1.1,2.13l3,.58C5,19.28,4,21.81,4.74,24.24c.9,3,2.85,4,5.64,4.24,6.11.43,12-5,16-9.34C28.85,16.42,32.1,11.19,29.6,7.36Z"/></svg>