<svg id="icon" xmlns="http://www.w3.org/2000/svg" viewBox="0 0 32 32"><defs><style>.cls-1{fill-rule:evenodd;}</style></defs><title>mic-off</title><path class="cls-1" d="M26.5,8l2.24-2.25a1,1,0,0,0,0-1.41l-.06-.07a1,1,0,0,0-1.41,0L25,6.54,22.77,4.29a1,1,0,0,0-1.41,0l-.07.07a1,1,0,0,0,0,1.41L23.54,8l-2.25,2.25a1,1,0,0,0,0,1.41l.07.06a1,1,0,0,0,1.41,0L25,9.5l2.25,2.24a1,1,0,0,0,1.41,0l.06-.06a1,1,0,0,0,0-1.41Z"/><path d="M16,20a4,4,0,0,0,4-4V8a4,4,0,0,0-8,0v8A4,4,0,0,0,16,20Z"/><path d="M23,14a1,1,0,0,0-1,1v1a6,6,0,0,1-12,0V15a1,1,0,0,0-2,0v1a8,8,0,0,0,7,7.93V27a1,1,0,0,0,2,0V23.93A8,8,0,0,0,24,16V15A1,1,0,0,0,23,14Z"/></svg>