<svg id="icon" xmlns="http://www.w3.org/2000/svg" viewBox="0 0 32 32"><defs><style>.cls-1{fill:#040000;}</style></defs><title>minimize</title><path class="cls-1" d="M14,12.84v-.15a1.5,1.5,0,0,0-3,.15V20a1.52,1.52,0,0,0,.43.91,1.5,1.5,0,0,0,1.06.44h7.15a1.5,1.5,0,0,0-.15-3H16.12L27.58,6.88l.1-.12a1.5,1.5,0,0,0-2.22-2L14,16.22Z"/><path class="cls-1" d="M28,16.21a1.5,1.5,0,0,0-3,.14v4.74a4.48,4.48,0,0,1-4.5,4.26H11.25A4.5,4.5,0,0,1,7,20.85V11.62a4.5,4.5,0,0,1,4.49-4.27h4.65a1.5,1.5,0,0,0-.15-3H11.24A7.5,7.5,0,0,0,4,11.85V21.1a7.49,7.49,0,0,0,7.49,7.25h9.25A7.49,7.49,0,0,0,28,20.85V16.21Z"/></svg>