<svg id="icon" xmlns="http://www.w3.org/2000/svg" viewBox="0 0 32 32"><title>modem</title><path d="M16.61,14.47a.85.85,0,0,0,1.54.5,5.2,5.2,0,0,0,0-6,.85.85,0,1,0-1.38,1,3.46,3.46,0,0,1,0,4A.85.85,0,0,0,16.61,14.47Z"/><path d="M19.32,16.44a.85.85,0,0,0,1.54.5,8.48,8.48,0,0,0,0-9.94.85.85,0,1,0-1.38,1,6.85,6.85,0,0,1,0,7.94A.85.85,0,0,0,19.32,16.44Z"/><path d="M24.5,19H15V12a1,1,0,0,0-2,0v7H7.5a3.5,3.5,0,0,0,0,7h17a3.5,3.5,0,0,0,0-7ZM10,23.5a1,1,0,1,1,1-1A1,1,0,0,1,10,23.5Zm4,0a1,1,0,1,1,1-1A1,1,0,0,1,14,23.5Zm4,0a1,1,0,1,1,1-1A1,1,0,0,1,18,23.5Zm4,0a1,1,0,1,1,1-1A1,1,0,0,1,22,23.5Z"/><path d="M11,15.16A.86.86,0,0,0,11.23,14a3.46,3.46,0,0,1,0-4,.83.83,0,0,0,.16-.5A.85.85,0,0,0,9.85,9a5.2,5.2,0,0,0,0,6A.85.85,0,0,0,11,15.16Z"/><path d="M8.33,17.13a.86.86,0,0,0,.19-1.19A6.85,6.85,0,0,1,8.52,8a.86.86,0,0,0-.19-1.19A.86.86,0,0,0,7.14,7a8.48,8.48,0,0,0,0,9.94A.85.85,0,0,0,8.33,17.13Z"/></svg>