<svg id="icon" xmlns="http://www.w3.org/2000/svg" viewBox="0 0 32 32"><defs><style>.cls-1{fill-rule:evenodd;}</style></defs><title>move</title><rect x="8" y="9" width="15" height="3" rx="1.5"/><rect x="9" y="20" width="15" height="3" rx="1.5"/><path class="cls-1" d="M8.14,14.78,3.51,11.51a1.26,1.26,0,0,1,0-2L8.14,6.22a1.18,1.18,0,0,1,1.86,1v6.56A1.18,1.18,0,0,1,8.14,14.78Z"/><path class="cls-1" d="M23.86,17.22l4.63,3.27a1.26,1.26,0,0,1,0,2l-4.63,3.27a1.18,1.18,0,0,1-1.86-1V18.22A1.18,1.18,0,0,1,23.86,17.22Z"/></svg>