<svg id="Icon" xmlns="http://www.w3.org/2000/svg" viewBox="0 0 16 16"><defs><style>.cls-1{fill-rule:evenodd;}</style></defs><title>mute</title><path class="cls-1" d="M6.82,3.12,3.76,6H2A1,1,0,0,0,1,7V9a1,1,0,0,0,1,1H3.76l3.06,2.88A.7.7,0,0,0,8,12.37V3.63A.7.7,0,0,0,6.82,3.12Z"/><path class="cls-1" d="M15.77,10.05,13.74,8l2-2a.79.79,0,0,0,0-1.12.8.8,0,0,0-1.13,0l-2,2-2-2a.8.8,0,0,0-1.13,0A.79.79,0,0,0,9.49,6l2,2.05-2,2.05a.8.8,0,0,0,1.13,1.12l2-2,2,2a.8.8,0,0,0,1.13,0A.79.79,0,0,0,15.77,10.05Z"/></svg>