<svg id="icon" xmlns="http://www.w3.org/2000/svg" viewBox="0 0 32 32"><defs><style>.cls-1{fill-rule:evenodd;}</style></defs><title>mute-32px</title><path class="cls-1" d="M7.9,11H4.5A1.47,1.47,0,0,0,3,12.44v7.12A1.47,1.47,0,0,0,4.5,21H7.9L13,26.16A2.8,2.8,0,0,0,15,27V5a2.8,2.8,0,0,0-2,.84Z"/><path class="cls-1" d="M25.27,16.07l2.93-3a1.15,1.15,0,0,0,0-1.61h0a1.15,1.15,0,0,0-1.63,0l-2.91,2.95-2.91-2.95a1.15,1.15,0,0,0-1.63,0h0a1.15,1.15,0,0,0,0,1.61l2.93,3-2.93,3a1.15,1.15,0,0,0,0,1.61h0a1.15,1.15,0,0,0,1.63,0l2.91-2.95,2.91,2.95a1.15,1.15,0,0,0,1.63,0h0a1.15,1.15,0,0,0,0-1.61Z"/></svg>