<svg id="icon" xmlns="http://www.w3.org/2000/svg" viewBox="0 0 32 32"><title>network-wireless</title><path d="M6,12.58a9.94,9.94,0,0,1,2-6,1,1,0,1,0-1.6-1.2,12,12,0,0,0,.78,15.29,1,1,0,0,0,1.48-1.35A9.92,9.92,0,0,1,6,12.58Z"/><path d="M10,12.58a6,6,0,0,1,1.52-4A1,1,0,0,0,10,7.25a8,8,0,0,0,.17,10.84,1,1,0,0,0,1.45-1.38A6,6,0,0,1,10,12.58Z"/><path d="M25.55,5.4A1,1,0,0,0,24,6.6a10,10,0,0,1-.66,12.74,1,1,0,0,0,1.48,1.35A12,12,0,0,0,25.55,5.4Z"/><path d="M16,9.58a3,3,0,0,0-1,5.82V25.94a1,1,0,0,0,2,0V15.4a3,3,0,0,0-1-5.82Z"/><path d="M21.9,7.25a1,1,0,1,0-1.49,1.33,6,6,0,0,1-.13,8.13,1,1,0,0,0,1.44,1.38A8,8,0,0,0,21.9,7.25Z"/></svg>