<svg id="icon" xmlns="http://www.w3.org/2000/svg" viewBox="0 0 32 32"><title>network-activity-off</title><path d="M7.76,6a1.24,1.24,0,0,0-.88-.36A1.28,1.28,0,0,0,6,6,1.25,1.25,0,0,0,6,7.76L24.23,26A1.23,1.23,0,0,0,26,26a1.24,1.24,0,0,0,0-1.76Z"/><path d="M26.58,12.5l-4.26-7a1,1,0,0,0-1.64,0L16.42,12.5a1,1,0,0,0-.17.57,1,1,0,0,0,.92.92H20v2.82l3,3V14h2.76A1,1,0,0,0,26.58,12.5Z"/><path d="M14.83,18H12V15.18l-3-3V18H6.24a1,1,0,0,0-.82,1.5l4.26,7.05a1,1,0,0,0,1.64,0l4.26-7a1,1,0,0,0,.17-.57A1,1,0,0,0,14.83,18Z"/></svg>