<svg xmlns="http://www.w3.org/2000/svg" viewBox="0 0 16 16"><title>no-sim</title><g id="Icon"><rect x="12.53" y="13" width="1.47" height="1.53"/><rect x="12.53" y="7.03" width="1.47" height="4.5"/><path d="M8.83,2.37A1.27,1.27,0,0,0,8,2H3.5A1.5,1.5,0,0,0,2,3.5v9A1.5,1.5,0,0,0,3.5,14h6a1.5,1.5,0,0,0,1.5-1.5V5a1.52,1.52,0,0,0-.33-.88ZM6,11.49a.51.51,0,0,1-.51.51h-1A.51.51,0,0,1,4,11.49v-4A.51.51,0,0,1,4.51,7h1A.51.51,0,0,1,6,7.51Zm3,0a.51.51,0,0,1-.51.51h-1A.51.51,0,0,1,7,11.49v-4A.51.51,0,0,1,7.51,7h1a.51.51,0,0,1,.5.5Z"/></g></svg>