<svg id="Layer_1" data-name="Layer 1" xmlns="http://www.w3.org/2000/svg" viewBox="0 0 44 44"><title>numeric_9_rounded_bold</title><path d="M15.94,38.42l6-12.11a7.89,7.89,0,0,1-1.49.06c-7.2,0-11.87-5.55-11.87-12.94C8.56,5.76,13.38,0,21.13,0s12.7,5.34,12.7,13.19c0,2.79-.77,5.76-2.63,9.59-3,6-6.38,12.6-9.34,18.64h.06C21.28,42.77,20.43,44,18.57,44a3.39,3.39,0,0,1-3.33-3.25A4.91,4.91,0,0,1,15.94,38.42ZM21.19,6.53c-3.45,0-5.77,2.55-5.77,6.72,0,3.71,2,6.71,5.77,6.71,3.45,0,5.68-2.51,5.68-6.71S24.64,6.53,21.19,6.53Z"/></svg>