<svg id="Layer_1" data-name="Layer 1" xmlns="http://www.w3.org/2000/svg" viewBox="0 0 44 44"><title>numeric_3_rounded_semibold</title><path d="M28.66,21.23c3.34-1.83,5.09-5.07,5.09-9.44,0-7-4.9-11.79-12.19-11.79-3.78,0-6.46,1-8.68,3.1A10.21,10.21,0,0,0,10,9a5,5,0,0,0,.13,1.89,2.29,2.29,0,0,0,2.27,1.67A2.19,2.19,0,0,0,14,11.9a3.86,3.86,0,0,0,1.07-2.09c.78-3.47,2.72-4.95,6.49-4.95,4.14,0,6.81,2.77,6.81,7,0,4.65-2.42,7.22-6.81,7.22a3.19,3.19,0,0,0-1.81.37h0a2.36,2.36,0,0,0,0,3.94,3.19,3.19,0,0,0,1.81.38c4.86,0,7.53,2.73,7.53,7.7a7.33,7.33,0,0,1-7.71,7.62c-4.36,0-6.49-1.63-7.11-5.46a4.05,4.05,0,0,0-1-2.05A2.09,2.09,0,0,0,11.65,31a2.55,2.55,0,0,0-1.87.72A3.2,3.2,0,0,0,9,34.13a9.29,9.29,0,0,0,2.89,6.59C14.31,43.05,17.07,44,21.44,44c7.5,0,13-5.2,13-12.37C34.39,25.37,31.48,22.52,28.66,21.23Z"/></svg>