<svg id="Layer_1" data-name="Layer 1" xmlns="http://www.w3.org/2000/svg" viewBox="0 0 44 44"><title>numeric_6_rounded_bold</title><path d="M26.58,5.55l-6,12.19a8.48,8.48,0,0,1,1.53-.06c7.2,0,11.87,5.49,11.87,12.88C34,38.25,29.07,44,21.32,44S8.62,38.62,8.62,30.87c0-2.81.82-5.8,2.68-9.62,2.93-5.95,6.43-12.77,9.33-18.69h-.06C21.21,1.12,22.1,0,24,0a3.36,3.36,0,0,1,3.32,3.18A4.81,4.81,0,0,1,26.58,5.55ZM21.25,37.49c3.45,0,5.8-2.59,5.8-6.75,0-3.69-2-6.62-5.74-6.62-3.44,0-5.67,2.47-5.67,6.62S17.81,37.49,21.25,37.49Z"/></svg>