<svg id="Layer_1" data-name="Layer 1" xmlns="http://www.w3.org/2000/svg" viewBox="0 0 44 44"><title>numeric_8_bold</title><path d="M22,44c-7.56,0-14-4.55-14-12.4,0-5.18,3.37-8.49,6.47-10.31A10.51,10.51,0,0,1,9,12C9,4.78,14.81,0,22,0S35,4.73,35,12a10.6,10.6,0,0,1-5.47,9.29c3.1,1.83,6.47,4.84,6.47,10C36,39.14,29.56,44,22,44Zm0-20a7.27,7.27,0,0,0-7.29,7.32A7.13,7.13,0,0,0,22,38.5a7.13,7.13,0,0,0,7.25-7.19A7.22,7.22,0,0,0,22,24ZM22,5.5a6.36,6.36,0,0,0-6.51,6.64A6.27,6.27,0,0,0,22,18.71a6.32,6.32,0,0,0,6.57-6.58A6.41,6.41,0,0,0,22,5.5Z"/></svg>