<svg id="Layer_1" data-name="Layer 1" xmlns="http://www.w3.org/2000/svg" viewBox="0 0 44 44"><title>numeric_2_rounded_semibold</title><path d="M33.4,39.07a3.81,3.81,0,0,0-2-.4H17l13.3-17.26c2.59-3.36,4-5.95,4-10C34.24,4.45,29.67.15,22.3.15a12.15,12.15,0,0,0-8.73,3.19,11,11,0,0,0-3.35,7.11,2.78,2.78,0,0,0,.59,1.82,2.28,2.28,0,0,0,1.93.89,2,2,0,0,0,1.79-.75,5,5,0,0,0,1-2.23c1-4.3,4.21-5.2,6.77-5.2C26.5,5,29,7.39,29,11.43c0,2.9-1.05,4.86-2.74,7.07L11.22,38h0c-.9,1.18-1.4,1.9-1.4,2.9a2.34,2.34,0,0,0,.65,1.74c.75.83,1.84.83,3.22.83H31.38a3.8,3.8,0,0,0,2.07-.43,2.23,2.23,0,0,0,1-2A2.33,2.33,0,0,0,33.4,39.07Z"/></svg>