<svg id="Layer_1" data-name="Layer 1" xmlns="http://www.w3.org/2000/svg" viewBox="0 0 44 44"><title>numeric_5_rounded_bold</title><path d="M31.93,6.42a4,4,0,0,1-2.44.52h-13V15.3A11.73,11.73,0,0,1,22.32,14c3.45,0,6.2,1,8,2.87,3.29,3.32,3.87,7.85,3.87,12,0,4.37-.43,8.49-3.69,11.75-2.08,2.11-5,3.36-9.19,3.36-3.9,0-6.68-.92-9-3.11A10.77,10.77,0,0,1,9,33.75a3.73,3.73,0,0,1,.92-2.51,3.27,3.27,0,0,1,2.56-1.09,3,3,0,0,1,2.32.91,4.94,4.94,0,0,1,1.25,2.63c.68,2.53,2.35,3.81,5.25,3.81a5.9,5.9,0,0,0,4.12-1.43c1.68-1.68,1.77-4.55,1.77-7.18,0-4.15-.76-8.4-5.52-8.4-2.23,0-3.88.48-5.13,2.32h.06a6,6,0,0,1-1.31,1.31,2.9,2.9,0,0,1-1.8.55,3.23,3.23,0,0,1-2.5-1l.12.06a3.52,3.52,0,0,1-1.06-2.87V4.31A3.69,3.69,0,0,1,11,1.38a3.7,3.7,0,0,1,2.93-1H29.49a4.87,4.87,0,0,1,2.44.54,3.12,3.12,0,0,1,1.44,2.69A3.2,3.2,0,0,1,31.93,6.42Z"/></svg>