<svg id="Layer_1" data-name="Layer 1" xmlns="http://www.w3.org/2000/svg" viewBox="0 0 44 44"><title>numeric_4_rounded_semibold</title><path d="M34.93,32.56a3.51,3.51,0,0,0-2-.45H30.21V23.3A3.5,3.5,0,0,0,29.7,21a2.68,2.68,0,0,0-4.35,0,3.5,3.5,0,0,0-.52,2.3v8.81H14.42L28,4.87a4.27,4.27,0,0,0,.63-2A2.47,2.47,0,0,0,26.17.48c-1.35,0-2.06,1.06-2.58,2.09l-15,29.94A4.42,4.42,0,0,0,8,34.4a2.8,2.8,0,0,0,1,2,3.53,3.53,0,0,0,2.26.51H24.83V40.6a3.24,3.24,0,0,0,.51,2.2A2.5,2.5,0,0,0,27.52,44a2.47,2.47,0,0,0,2.17-1.17,3.21,3.21,0,0,0,.52-2.21V37h2.67A3.84,3.84,0,0,0,35,36.57a2.33,2.33,0,0,0,1-2.06A2.12,2.12,0,0,0,34.93,32.56Z"/></svg>