<svg id="Layer_1" data-name="Layer 1" xmlns="http://www.w3.org/2000/svg" viewBox="0 0 44 44"><title>numeric_5_extrabold</title><path d="M31.41,40.49c-1.94,1.94-5,3.51-9.5,3.51s-7.75-1.57-9.62-3.45C9.63,37.89,9,34.74,8.78,31.6h7.87c.42,3.39,2,5.32,5.26,5.32a5.06,5.06,0,0,0,3.75-1.39c1.39-1.39,1.69-3.69,1.69-6.41,0-5-1.45-7.75-5.26-7.75-3.21,0-5.55,1.94-6.09,3.63H9.69V.5H34V8H17l0,8.76a9.43,9.43,0,0,1,6.32-2,11.13,11.13,0,0,1,8.05,2.9c3.39,3.39,3.87,7.44,3.87,11.5C35.22,34,34.55,37.35,31.41,40.49Z"/></svg>