<svg id="Layer_1" data-name="Layer 1" xmlns="http://www.w3.org/2000/svg" viewBox="0 0 44 44"><title>numeric_3_rounded_bold</title><path d="M18.44,18.81a3.76,3.76,0,0,1,2.26-.49c3.76,0,5.62-2.36,5.62-6S23.94,6.5,20.7,6.5c-3,0-4.67,1.13-5.34,4.06a4,4,0,0,1-1,2.16,3.49,3.49,0,0,1-2.51,1.07A3,3,0,0,1,8.8,11.53a5.35,5.35,0,0,1-.18-2.1,11.16,11.16,0,0,1,3.14-6.2C14.11.94,17,0,20.7,0c7.24,0,12.67,4.52,12.67,12.18,0,3.91-1.34,7-4,9,3,1.86,4.58,5,4.58,10C34,39.05,27.87,44,20.55,44c-4.67,0-7.42-1.06-9.8-3.35a9.86,9.86,0,0,1-3-7,3.73,3.73,0,0,1,.92-2.93,3.44,3.44,0,0,1,2.5-.94,2.78,2.78,0,0,1,2.26.82,5.27,5.27,0,0,1,1.19,2.5c.55,2.94,2.65,4.43,5.92,4.43a6.18,6.18,0,0,0,6.44-6.38c0-3.94-2.05-6.44-6.23-6.44a3.53,3.53,0,0,1-2.26-.49,3.24,3.24,0,0,1,0-5.37Z"/></svg>