<svg id="Layer_1" data-name="Layer 1" xmlns="http://www.w3.org/2000/svg" viewBox="0 0 44 44"><title>numeric_4_rounded_bold</title><path d="M10.82,37.12a3.88,3.88,0,0,1-2.75-.7A3.77,3.77,0,0,1,6.7,33.67a4.76,4.76,0,0,1,.67-2.17L21.86,2.76H21.8C22.44,1.32,23.33.19,25.19.19a3.37,3.37,0,0,1,3.33,3.18,5.31,5.31,0,0,1-.77,2.38L15.3,30.56h7.63V23a4.24,4.24,0,0,1,.64-2.69,3.13,3.13,0,0,1,2.87-1.49,3.2,3.2,0,0,1,2.93,1.49A4.24,4.24,0,0,1,30,23v7.57h1.62a4.76,4.76,0,0,1,2.44.55,3.07,3.07,0,0,1,1.5,2.68,3.24,3.24,0,0,1-1.5,2.84,4,4,0,0,1-2.44.49H30v2.64a3.85,3.85,0,0,1-.64,2.68,3.48,3.48,0,0,1-5.8,0,3.85,3.85,0,0,1-.64-2.68V37.12Z"/></svg>