<svg id="Layer_1" data-name="Layer 1" xmlns="http://www.w3.org/2000/svg" viewBox="0 0 44 44"><title>numeric_7_rounded_semibold</title><path d="M34.43,1.22C33.68.5,32.76.5,31.49.5H13.6a2.91,2.91,0,0,0-2.28.73,3,3,0,0,0-.72,2.38V8.83A3.55,3.55,0,0,0,11,11.07a2.46,2.46,0,0,0,2.18,1.1,2.49,2.49,0,0,0,2.21-1.1,3.55,3.55,0,0,0,.42-2.24V5.36H29.24L16.39,39.82A4,4,0,0,0,16,42.06,2.57,2.57,0,0,0,18.59,44a2.64,2.64,0,0,0,1.4-.48,4.74,4.74,0,0,0,1.11-1.9L34.55,5.44l.09-.23a6.22,6.22,0,0,0,.55-2.06A2.42,2.42,0,0,0,34.43,1.22Z"/></svg>