<svg id="Layer_1" data-name="Layer 1" xmlns="http://www.w3.org/2000/svg" viewBox="0 0 44 44"><title>numeric_8_rounded_semibold</title><path d="M29.06,21.16a10.59,10.59,0,0,0,5.1-9.31C34.16,5,29.05,0,22,0S9.84,5,9.84,11.85a10.6,10.6,0,0,0,5.1,9.31A12,12,0,0,0,9,31.51C9,38.75,14.47,44,22,44s13-5.25,13-12.49A12,12,0,0,0,29.06,21.16Zm-7,18a7.51,7.51,0,0,1-7.61-7.76A7.48,7.48,0,0,1,22,23.69a7.47,7.47,0,0,1,7.59,7.68A7.5,7.5,0,0,1,22,39.13ZM22,4.86c4,0,6.81,2.9,6.81,7a6.7,6.7,0,0,1-6.81,7,6.71,6.71,0,0,1-6.83-7C15.18,7.76,18,4.86,22,4.86Z"/></svg>