<svg id="Layer_1" data-name="Layer 1" xmlns="http://www.w3.org/2000/svg" viewBox="0 0 44 44"><title>numeric_8_rounded_bold</title><path d="M7.89,31.05a11.54,11.54,0,0,1,4.91-9.86,10.76,10.76,0,0,1-4.24-9C8.56,5,13.93,0,21.2,0S33.77,5,33.77,12.24a10.68,10.68,0,0,1-4.09,9,11.38,11.38,0,0,1,4.94,9.86c0,7.7-5.86,13-13.43,13S7.89,38.75,7.89,31.05Zm7-.06a6.26,6.26,0,0,0,6.32,6.5A6.36,6.36,0,0,0,27.63,31a6.26,6.26,0,0,0-6.38-6.44A6.26,6.26,0,0,0,14.87,31Zm.71-18.68a5.54,5.54,0,0,0,5.67,5.79,5.47,5.47,0,0,0,5.56-5.79A5.49,5.49,0,0,0,21.2,6.5,5.48,5.48,0,0,0,15.58,12.31Z"/></svg>