<svg id="icon" xmlns="http://www.w3.org/2000/svg" viewBox="0 0 32 32"><path d="M22.94,12.37a7.12,7.12,0,0,0-13.81,0A5.32,5.32,0,0,0,9,23H9a1,1,0,0,0,0-2H9A3.28,3.28,0,0,1,6,17.67a3.38,3.38,0,0,1,3.22-3.31l1.48-.09.34-1.44a5.12,5.12,0,0,1,9.91,0l.34,1.44,1.48.09A3.39,3.39,0,0,1,26,17.67,3.29,3.29,0,0,1,23,21H23a1,1,0,1,0,0,2H23a5.32,5.32,0,0,0-.1-10.63Z"/><path d="M15.54,23h-1V19.5a1,1,0,0,0-2,0V23h-1a.51.51,0,0,0-.3.1.5.5,0,0,0-.1.7l2,2.67a.94.94,0,0,0,.1.1.51.51,0,0,0,.7-.1l2-2.67a.54.54,0,0,0,.1-.3A.5.5,0,0,0,15.54,23Z"/><path d="M18.94,18a.51.51,0,0,0-.7-.1l-.1.1-2,2.67a.5.5,0,0,0,.1.7l.07,0a.46.46,0,0,0,.23.06h1V25a1,1,0,0,0,2,0V21.5h1A.5.5,0,0,0,21,21a.54.54,0,0,0-.1-.3Z"/></svg>