<svg id="icon" xmlns="http://www.w3.org/2000/svg" viewBox="0 0 32 32"><defs><style>.cls-1{fill-rule:evenodd;}</style></defs><title>pda-phone</title><path class="cls-1" d="M21,4H11A3,3,0,0,0,8,7V25a3,3,0,0,0,3,3H21a3,3,0,0,0,3-3V7A3,3,0,0,0,21,4ZM10,7.47A1.5,1.5,0,0,1,11.5,6h9A1.5,1.5,0,0,1,22,7.47V17.53A1.5,1.5,0,0,1,20.5,19h-9a1.5,1.5,0,0,1-1.5-1.5ZM12,26H11a1,1,0,0,1,0-2h1a1,1,0,0,1,0,2Zm0-3H11a1,1,0,0,1,0-2h1a1,1,0,0,1,0,2Zm4.57,3h-1a1,1,0,0,1,0-2h1a1,1,0,0,1,0,2Zm0-3h-1a1,1,0,0,1,0-2h1a1,1,0,0,1,0,2Zm4.58,3h-1a1,1,0,0,1,0-2h1a1,1,0,0,1,0,2Zm0-3h-1a1,1,0,0,1,0-2h1a1,1,0,0,1,0,2Z"/></svg>