<svg id="icon" xmlns="http://www.w3.org/2000/svg" viewBox="0 0 32 32"><title>pin</title><path d="M18.72,3.56,17.46,4.85a6.35,6.35,0,0,0-2,4.53v.26l-1.61,1.61c-3-1.26-6.07-1-8.23,1.16L4.59,13.47l5.66,5.66L3.82,25.55l.36,1.77,1.76.36,6.43-6.43L18,26.91l1.06-1.06c2.16-2.16,2.42-5.24,1.16-8.23L21.86,16a6.37,6.37,0,0,0,5-2.18l1.06-1.06Zm4.65,9.19a2.32,2.32,0,0,1-1.65.2l-.83-.22-4.31,4.32.54,1a5.55,5.55,0,0,1,.67,4.4L9.07,13.71a5.55,5.55,0,0,1,4.4.67l1,.54,4.31-4.31-.21-.83a2.35,2.35,0,0,1,.31-1.84l4.7,4.7Z"/></svg>