<svg id="Icon" xmlns="http://www.w3.org/2000/svg" viewBox="0 0 16 16"><title>predictive-text</title><polygon points="6.02 13.99 16 13.99 16 11.99 6.81 11.99 6.02 13.99"/><polygon points="8 8.99 7.6 9.99 16 9.99 16 8.99 8 8.99"/><path d="M6.89,4.75l-2.6-1a.55.55,0,0,0-.72.3L.08,12.67a1.16,1.16,0,0,0,0,.69l.51,2.21a.56.56,0,0,0,.85.33l1.89-1.23a1.07,1.07,0,0,0,.43-.51L7.2,5.48A.57.57,0,0,0,6.89,4.75Z"/><path d="M4.71,2.66l2.6,1A.55.55,0,0,0,8,3.4l.29-.7A2,2,0,0,0,7.23.14,2,2,0,0,0,4.68,1.22l-.28.7A.58.58,0,0,0,4.71,2.66Z"/></svg>