<svg id="icon" xmlns="http://www.w3.org/2000/svg" viewBox="0 0 32 32"><defs><style>.cls-1{fill-rule:evenodd;}</style></defs><title>privacy</title><path class="cls-1" d="M26.76,9.33a1.05,1.05,0,0,0-.58-.8L16.41,4.09a1,1,0,0,0-.86,0q-5.3,2.64-9.69,4.41a1,1,0,0,0-.62.81C4,19.83,7.49,24.86,15.64,28a1,1,0,0,0,.72,0C24.51,24.86,28,19.83,26.76,9.33ZM23.62,12.6,15.9,21.49a1.46,1.46,0,0,1-2.17.05L9.44,17.1a1.59,1.59,0,0,1,0-2.2,1.46,1.46,0,0,1,2.12,0l3.17,3.28,6.65-7.67a1.47,1.47,0,0,1,2.12-.11A1.6,1.6,0,0,1,23.62,12.6Z"/></svg>