<svg id="Icon" xmlns="http://www.w3.org/2000/svg" viewBox="0 0 16 16"><title>question-mark</title><path d="M8.09,11.5a1,1,0,0,0-1,1,1,1,0,0,0,1,1,1,1,0,0,0,1-1A1,1,0,0,0,8.09,11.5Z"/><path d="M8,2.5a3,3,0,0,0-2.14.82,2.7,2.7,0,0,0-.81,1.81.74.74,0,0,0,.16.55A.71.71,0,0,0,5.78,6a.7.7,0,0,0,.6-.25,1,1,0,0,0,.18-.41l0-.1A1.52,1.52,0,0,1,7,4.33a1.47,1.47,0,0,1,1-.41A1.4,1.4,0,0,1,9.4,5.35,1.83,1.83,0,0,1,9,6.44L7.8,8.12a2.17,2.17,0,0,0-.49,1.55,1,1,0,0,0,.16.58.71.71,0,0,0,.61.32.81.81,0,0,0,.56-.23,1,1,0,0,0,.24-.57,1.82,1.82,0,0,1,.27-.93c.18-.28.39-.59.61-.89l.5-.73A3.43,3.43,0,0,0,11,5.35,2.81,2.81,0,0,0,8,2.5Z"/></svg>