<svg id="icon" xmlns="http://www.w3.org/2000/svg" xmlns:xlink="http://www.w3.org/1999/xlink" viewBox="0 0 32 32"><defs><style>.cls-1{clip-rule:evenodd;}.cls-2{fill-rule:evenodd;}.cls-3{clip-path:url(#clip-path);}</style><clipPath id="clip-path"><path class="cls-1" d="M6,23h7a2,2,0,0,1,0,4H6a2,2,0,0,1,0-4ZM6,5H24a2,2,0,0,1,0,4H6A2,2,0,0,1,6,5Zm0,9H20a2,2,0,0,1,0,4H6a2,2,0,0,1,0-4Zm14.88,8.12,4.95-4.95A2,2,0,0,1,28.66,20l-6.37,6.36a2,2,0,0,1-2.83,0l-2.82-2.82a2,2,0,1,1,2.82-2.83Z"/></clipPath></defs><title>read-all</title><path class="cls-2" d="M6,23h7a2,2,0,0,1,0,4H6a2,2,0,0,1,0-4ZM6,5H24a2,2,0,0,1,0,4H6A2,2,0,0,1,6,5Zm0,9H20a2,2,0,0,1,0,4H6a2,2,0,0,1,0-4Zm14.88,8.12,4.95-4.95A2,2,0,0,1,28.66,20l-6.37,6.36a2,2,0,0,1-2.83,0l-2.82-2.82a2,2,0,1,1,2.82-2.83Z"/><g class="cls-3"><rect x="-1" width="35.24" height="32"/></g></svg>