<svg id="Icon" xmlns="http://www.w3.org/2000/svg" viewBox="0 0 16 16"><title>refresh</title><path d="M3.07,7.73l2.5-1A.81.81,0,0,0,5,5.25l-.73.29a4.35,4.35,0,0,1,3.6-1.93,4.4,4.4,0,0,1,4,2.51.8.8,0,1,0,1.45-.69A6,6,0,0,0,2.79,4.82l-.24-.63a.8.8,0,1,0-1.49.59l1,2.5s0,.09.07.13h0a.78.78,0,0,0,.66.37A.72.72,0,0,0,3.07,7.73Z"/><path d="M14.92,10.7,13.78,8.27l0-.06a.61.61,0,0,0-.12-.16L13.54,8a.78.78,0,0,0-.18-.11l-.09,0a.28.28,0,0,0-.12,0H13a.55.55,0,0,0-.22.06h0L10.29,9a.8.8,0,0,0,.35,1.53.83.83,0,0,0,.34-.07l.76-.36a4.37,4.37,0,0,1-7.92-.59.8.8,0,0,0-1-.48.82.82,0,0,0-.47,1,6,6,0,0,0,10.88.71l.27.58a.81.81,0,0,0,.73.46.84.84,0,0,0,.34-.08A.8.8,0,0,0,14.92,10.7Z"/></svg>