<svg id="icon" xmlns="http://www.w3.org/2000/svg" viewBox="0 0 32 32"><title>restaurant</title><path d="M11.6,19h-.3a3.75,3.75,0,0,1-.82-.1L4.33,25a.77.77,0,0,0,0,1.09l1.6,1.59a.77.77,0,0,0,1.09,0l7.39-7.39L13,18.86Z"/><path d="M27.78,9.13a.73.73,0,0,0-1,0l-4,4a1,1,0,0,1-1.37-1.36l4-4a.77.77,0,0,0,0-1.09.76.76,0,0,0-1.08,0l-4,4A1,1,0,0,1,18.94,9.3l4-4a.76.76,0,0,0,0-1.05.74.74,0,0,0-1.05,0L17.4,8.75a4.14,4.14,0,0,0-1.07,4l3,3a4.18,4.18,0,0,0,4-1.07l4.48-4.49A.73.73,0,0,0,27.78,9.13Z"/><path d="M6,4.68a.78.78,0,0,0-.57-.24H5.3a.78.78,0,0,0-.59.45A7.07,7.07,0,0,0,6.07,13L9.89,16.8a2,2,0,0,0,1.41.59h.17l2.21-.19L23.33,27.6a.8.8,0,0,0,.58.26h0a.82.82,0,0,0,.58-.24L26.16,26a.81.81,0,0,0,0-1.15Z"/></svg>