<svg xmlns="http://www.w3.org/2000/svg" viewBox="0 0 16 16"><defs><style>.cls-1{fill-rule:evenodd;}</style></defs><title>roaming</title><g id="Icon"><path class="cls-1" d="M8,1a7,7,0,1,0,7,7A7,7,0,0,0,8,1ZM2.2,8a5.79,5.79,0,0,1,.16-1.34A3,3,0,0,1,3,7.55c.19.6.6.58.72.58s.65.38.94.43a.8.8,0,0,1,.5.36c.1.13.35.54.58.65-.33.2-.49.64-.49,1.43s1,1,1,1.22c0,.43,0,.58,0,1a1.55,1.55,0,0,0,0,.33A5.8,5.8,0,0,1,2.2,8ZM8,13.8H7.71l.45-.4c.13-.12.54-.23.79-.48,0,0,1-1.23,1.17-1.39a1.32,1.32,0,0,0,0-.43c0-.26-.12-.37-.38-.37h-.6s-1-.77-1.49-1.22a1.56,1.56,0,0,0-1.38-.26c-.12,0-.56-.33-.56-.33l-.56-.81V7.76l-.24-.15a1.54,1.54,0,0,0-.16.15.61.61,0,0,1-.58.14c-.27-.06.09-.83.29-.94s.71-.23.72-.07a.34.34,0,0,0,.43.22c.16-.07,0-.4.14-.51a2.15,2.15,0,0,0,.58-.94c.07-.33.54-.58.79-.65s.35.33.58.36l.79-.71v0h.24c.1,0,.18-.14.19-.4s0-.37-.13-.41L8,3.57l-.73-1,.23-.38L8,2.2a5.78,5.78,0,0,1,4.44,2.07.35.35,0,0,0-.1.23c0,.33-.26.76.36.94l.09,0,0,0a.8.8,0,0,0-.36.22h0l-.82.41-.28,1.11.45.75c.2.53.53.88,1.6,1a.37.37,0,0,1,.28.1A5.8,5.8,0,0,1,8,13.8Z"/></g></svg>