<svg id="icon" xmlns="http://www.w3.org/2000/svg" viewBox="0 0 32 32"><title>rocket</title><path d="M7.45,23a6,6,0,0,0-1.2,4,6,6,0,0,0,3.82-1.61c1.39-1.54,1-2.45.36-3S8.84,21.49,7.45,23Z"/><path d="M26,5.07s-6.73-.88-10.8,3.64a18.85,18.85,0,0,0-2.6,3.7c-1.08,0-3.91.14-5.49,1.9-2,2.21-1.26,6.09-1.26,6.09a9.07,9.07,0,0,0,5.1-1.18,2.81,2.81,0,0,0,.81,1.66,2.77,2.77,0,0,0,1.74.63,9,9,0,0,0-.64,5.2s3.94.32,5.92-1.88c1.58-1.76,1.44-4.59,1.32-5.66a18.88,18.88,0,0,0,3.41-3C27.57,11.68,26,5.07,26,5.07Zm-4.4,8.56a2.46,2.46,0,1,1-.16-3.5A2.47,2.47,0,0,1,21.59,13.63Z"/></svg>