<svg id="icon" xmlns="http://www.w3.org/2000/svg" viewBox="0 0 32 32"><path d="M28.55,23.09l-5.46-5.45a1.53,1.53,0,0,0-2.18,0l-1.09,1.09-1.09-1.09,3.82-3.82a3.09,3.09,0,1,0-4.37-4.37l-3.82,3.82-1.09-1.09,1.09-1.09a1.53,1.53,0,0,0,0-2.18L8.91,3.45a1.55,1.55,0,0,0-2.18,0L3.45,6.73a1.55,1.55,0,0,0,0,2.18l5.46,5.45a1.53,1.53,0,0,0,2.18,0l1.09-1.09,1.09,1.09-1.09,1.09a3.1,3.1,0,0,0-.48,3.75l-1.21,1.22a3.87,3.87,0,0,0-4.86.49l-.54.55,2.18,2.18L5.63,25.27a.78.78,0,1,0,1.1,1.1l1.63-1.64,2.18,2.18.55-.54a3.87,3.87,0,0,0,.49-4.86L12.8,20.3a3.1,3.1,0,0,0,3.75-.48l1.09-1.09,1.09,1.09-1.09,1.09a1.53,1.53,0,0,0,0,2.18l5.45,5.46a1.55,1.55,0,0,0,2.18,0l3.28-3.28A1.55,1.55,0,0,0,28.55,23.09ZM7.82,4.54,10,6.73,8.91,7.82,6.73,5.64ZM4.54,7.82,5.63,6.73,7.82,8.91,6.73,10ZM10,13.27,7.82,11.09,8.91,10l2.18,2.18Zm2.18-2.18L10,8.91l1.09-1.09L13.27,10ZM22,18.73l2.18,2.18L23.09,22l-2.18-2.18ZM18.73,22l1.09-1.09L22,23.09l-1.09,1.09Zm5.45,5.46L22,25.28l1.09-1.1,2.18,2.19Zm2.19-2.18-2.19-2.19L25.27,22l2.19,2.18Z"/></svg>