<svg id="icon" xmlns="http://www.w3.org/2000/svg" viewBox="0 0 32 32"><title>screen-rotation</title><path d="M15.28,6.81a3,3,0,0,0-4.24,0L6.8,11.05a3,3,0,0,0,0,4.24l9.9,9.9a3,3,0,0,0,4.24,0L25.18,21a3,3,0,0,0,0-4.24ZM18.47,22a1.49,1.49,0,0,1-2.12,0L8.57,14.23a1.49,1.49,0,0,1,0-2.12L12.1,8.58a1.49,1.49,0,0,1,2.12,0L22,16.36a1.49,1.49,0,0,1,0,2.12Zm3.89.36a1,1,0,1,1,0-1.42A1,1,0,0,1,22.36,22.37Z"/><path d="M13.4,25.53a.24.24,0,0,0-.44.08l-.24.9a11.06,11.06,0,0,1-7.38-7.74,1,1,0,1,0-1.93.5,13,13,0,0,0,8.79,9.17l-.26,1a.33.33,0,0,0,0,.17.26.26,0,0,0,.34.12l2.78-1.29,0,0a.25.25,0,0,0,.06-.35Z"/><path d="M28.59,12.8a13,13,0,0,0-8.8-9.24l.26-1a.26.26,0,0,0,0-.17.25.25,0,0,0-.33-.12L16.91,3.59l0,0a.25.25,0,0,0-.06.35l1.77,2.51a.33.33,0,0,0,.14.1A.25.25,0,0,0,19,6.39l.24-.89a11,11,0,0,1,7.39,7.79,1,1,0,1,0,1.93-.49Z"/></svg>