<svg id="icon" xmlns="http://www.w3.org/2000/svg" viewBox="0 0 32 32"><title>screen-rotation-lock</title><path d="M28.59,12.8a13,13,0,0,0-8.8-9.24l.26-1a.26.26,0,0,0,0-.17.25.25,0,0,0-.33-.12L16.91,3.59l0,0a.25.25,0,0,0-.06.35l1.77,2.51a.33.33,0,0,0,.14.1A.25.25,0,0,0,19,6.39l.24-.89a11,11,0,0,1,7.39,7.79,1,1,0,1,0,1.93-.49Z"/><path d="M21,14V12a5,5,0,1,0-10,0v2a1.06,1.06,0,0,0-1,1v6.88a1.08,1.08,0,0,0,.28.79,1.07,1.07,0,0,0,.78.33h9.87A1.05,1.05,0,0,0,22,21.94V15.06A1,1,0,0,0,21,14Zm-2,0H13V12.16A3.09,3.09,0,0,1,16,9a3.1,3.1,0,0,1,3,3.16Z"/><path d="M13.4,25.53a.24.24,0,0,0-.44.08l-.24.9a11.06,11.06,0,0,1-7.38-7.74,1,1,0,1,0-1.93.5,13,13,0,0,0,8.79,9.17l-.26,1a.33.33,0,0,0,0,.17.26.26,0,0,0,.34.12l2.78-1.29,0,0a.25.25,0,0,0,.06-.35Z"/></svg>