<svg id="icon" xmlns="http://www.w3.org/2000/svg" viewBox="0 0 32 32"><title>security</title><path d="M16,11.36a2,2,0,0,0-2,2.11v1.18h4V13.47A2.08,2.08,0,0,0,17.44,12,2,2,0,0,0,16,11.36Z"/><path d="M26.76,9.33a1.05,1.05,0,0,0-.58-.8L16.41,4.09a1,1,0,0,0-.86,0q-5.3,2.64-9.69,4.41a1,1,0,0,0-.62.81C4,19.83,7.49,24.86,15.64,28a1,1,0,0,0,.72,0C24.51,24.86,28,19.83,26.76,9.33ZM20,20a.75.75,0,0,1-.21.5.7.7,0,0,1-.5.2H12.71A.7.7,0,0,1,12,20V15.36a.69.69,0,0,1,.67-.69V13.33a3.33,3.33,0,1,1,6.66,0v1.34a.69.69,0,0,1,.67.69Z"/></svg>