<svg id="icon" xmlns="http://www.w3.org/2000/svg" viewBox="0 0 32 32"><title>settings</title><circle cx="16" cy="16" r="3.5"/><path d="M26.62,14.15H25.41A.44.44,0,0,1,25,13.8a9.4,9.4,0,0,0-1.08-2.59.44.44,0,0,1,.06-.55l.79-.79a1.41,1.41,0,0,0,.07-2l-.65-.65a1.39,1.39,0,0,0-2,0L21.34,8a.44.44,0,0,1-.56.07A9.34,9.34,0,0,0,18.2,7a.44.44,0,0,1-.35-.43V5.49A1.41,1.41,0,0,0,16.46,4h-.92a1.38,1.38,0,0,0-1.39,1.38V6.59A.44.44,0,0,1,13.8,7a9.34,9.34,0,0,0-2.58,1.08A.44.44,0,0,1,10.66,8L9.8,7.19a1.39,1.39,0,0,0-2,0l-.65.65a1.39,1.39,0,0,0,0,2l.85.86a.44.44,0,0,1,.07.56A9.34,9.34,0,0,0,7,13.8a.44.44,0,0,1-.43.35H5.49A1.41,1.41,0,0,0,4,15.54v.92a1.38,1.38,0,0,0,1.38,1.39H6.59A.44.44,0,0,1,7,18.2a9.4,9.4,0,0,0,1.08,2.59.44.44,0,0,1-.06.55l-.79.79a1.41,1.41,0,0,0-.07,2l.65.65a1.39,1.39,0,0,0,2,0l.86-.85a.44.44,0,0,1,.56-.07A9.34,9.34,0,0,0,13.8,25a.44.44,0,0,1,.35.43v1.11A1.41,1.41,0,0,0,15.54,28h.92a1.38,1.38,0,0,0,1.39-1.38V25.41A.44.44,0,0,1,18.2,25a9.34,9.34,0,0,0,2.58-1.08.44.44,0,0,1,.56.07l.86.85a1.39,1.39,0,0,0,2,0l.65-.65a1.39,1.39,0,0,0,0-2L24,21.34a.44.44,0,0,1-.07-.56A9.34,9.34,0,0,0,25,18.2a.44.44,0,0,1,.43-.35h1.11A1.41,1.41,0,0,0,28,16.46v-.92A1.38,1.38,0,0,0,26.62,14.15ZM22.4,16.86l0,.18a5.88,5.88,0,0,1-.18.81h0a6.55,6.55,0,0,1-.51,1.22h0a6.54,6.54,0,0,1-.45.71l-.12.16a6.48,6.48,0,0,1-1.17,1.17l-.16.12a6.54,6.54,0,0,1-.71.45h0a6.55,6.55,0,0,1-1.22.51h0a5.88,5.88,0,0,1-.81.18l-.18,0a6.19,6.19,0,0,1-1.72,0l-.18,0a5.88,5.88,0,0,1-.81-.18h0a6.55,6.55,0,0,1-1.22-.51h0a6.54,6.54,0,0,1-.71-.45l-.16-.12a6.48,6.48,0,0,1-1.17-1.17l-.12-.16a6.54,6.54,0,0,1-.45-.71h0a6.55,6.55,0,0,1-.51-1.22h0A5.88,5.88,0,0,1,9.63,17l0-.18a6.19,6.19,0,0,1,0-1.72l0-.18a5.88,5.88,0,0,1,.18-.81h0a6.55,6.55,0,0,1,.51-1.22h0a6.54,6.54,0,0,1,.45-.71l.12-.16a6.48,6.48,0,0,1,1.17-1.17l.16-.12a6.54,6.54,0,0,1,.71-.45h0a6.55,6.55,0,0,1,1.22-.51h0A5.88,5.88,0,0,1,15,9.63l.18,0a6.19,6.19,0,0,1,1.72,0l.18,0a5.88,5.88,0,0,1,.81.18h0a6.55,6.55,0,0,1,1.22.51h0a6.54,6.54,0,0,1,.71.45l.16.12a6.48,6.48,0,0,1,1.17,1.17l.12.16a6.54,6.54,0,0,1,.45.71h0a6.55,6.55,0,0,1,.51,1.22h0a5.88,5.88,0,0,1,.18.81l0,.18a6.19,6.19,0,0,1,0,1.72Z"/></svg>