<svg id="icon" xmlns="http://www.w3.org/2000/svg" viewBox="0 0 32 32"><defs><style>.cls-1{fill-rule:evenodd;}</style></defs><title>settings</title><path class="cls-1" d="M16,10.5A5.5,5.5,0,1,0,21.5,16,5.51,5.51,0,0,0,16,10.5ZM16,19a3,3,0,1,1,3-3A3,3,0,0,1,16,19Z"/><path class="cls-1" d="M26,14.12a10.13,10.13,0,0,0-1.58-3.82L25.66,8.7,23.33,6.37l-1.6,1.24A10.07,10.07,0,0,0,17.94,6l-.27-2H14.4l-.26,2a10.07,10.07,0,0,0-3.78,1.57L8.68,6.32,6.36,8.65l1.28,1.67A10.13,10.13,0,0,0,6.09,14L4,14.32v3.29l2.07.27A10.13,10.13,0,0,0,7.6,21.67L6.34,23.3l2.32,2.33,1.6-1.24A10.07,10.07,0,0,0,14.06,26l.26,2H17.6l.26-2a10.07,10.07,0,0,0,3.86-1.58l1.59,1.23,2.32-2.33-1.22-1.59A10.13,10.13,0,0,0,26,17.94l2-.26V14.38ZM16,23a7,7,0,1,1,7-7A7,7,0,0,1,16,23Z"/></svg>