<svg id="icon" xmlns="http://www.w3.org/2000/svg" viewBox="0 0 32 32"><title>shopping</title><path d="M23,9V8.89A4.89,4.89,0,0,0,18.14,4H13.86A4.89,4.89,0,0,0,9,8.89V9H5V24.5A3.5,3.5,0,0,0,8.53,28H23.47A3.5,3.5,0,0,0,27,24.5V9ZM12,8.68a2,2,0,0,1,2-2h4a2,2,0,0,1,2,2V9H12ZM20.5,19.16,16.21,23a.3.3,0,0,1-.21.09.31.31,0,0,1-.22-.09L11.5,19.15A3.12,3.12,0,0,1,10.62,17a3.07,3.07,0,0,1,.88-2.17,2.88,2.88,0,0,1,4.2,0l.3.31.3-.31a2.91,2.91,0,0,1,4.21,0A3.13,3.13,0,0,1,21.38,17,3.1,3.1,0,0,1,20.5,19.16Z"/></svg>