<svg xmlns="http://www.w3.org/2000/svg" viewBox="0 0 16 16"><title>shuffle</title><g id="Icon"><path d="M15.76,12.5,12,10v2H11a1.53,1.53,0,0,1-1.21-.63c-.3-.5-1.16-1.94-2.1-3.48C8.61,6.39,9.47,5,9.78,4.62A1.55,1.55,0,0,1,11,4h1V6L15.76,3.5h0a.63.63,0,0,0,0-1h0L12,0V2H11A3.28,3.28,0,0,0,8.21,3.38C7.88,3.8,7.23,4.81,6.5,6,5.76,4.81,5.11,3.8,4.78,3.38A3.28,3.28,0,0,0,2,2H1A1,1,0,0,0,0,3H0A1,1,0,0,0,1,4H2a1.54,1.54,0,0,1,1.21.62c.31.39,1.18,1.77,2.1,3.27-.94,1.54-1.8,3-2.1,3.48A1.53,1.53,0,0,1,2,12H1a1,1,0,0,0,0,2H2a3.29,3.29,0,0,0,2.86-1.48c.09-.12.79-1.29,1.64-2.69.85,1.4,1.56,2.56,1.64,2.69A3.3,3.3,0,0,0,11,14h1v2l3.74-2.51h0a.63.63,0,0,0,0-1Z"/></g></svg>