<svg xmlns="http://www.w3.org/2000/svg" viewBox="0 0 16 16"><title>signal-sim2</title><g id="Icon"><path d="M2.78,6.37V6.3l.86-.78a12,12,0,0,0,1.2-1.16,3.18,3.18,0,0,0,.5-.8,2.14,2.14,0,0,0,.16-.83,1.59,1.59,0,0,0-.26-.91,1.75,1.75,0,0,0-.74-.62A2.63,2.63,0,0,0,3.38,1a3.77,3.77,0,0,0-.86.09,3.07,3.07,0,0,0-.71.26A5,5,0,0,0,1,1.91l.77.87a3.9,3.9,0,0,1,.76-.49,1.75,1.75,0,0,1,.75-.17.88.88,0,0,1,.59.19.72.72,0,0,1,.22.58,1.3,1.3,0,0,1-.1.5,2.22,2.22,0,0,1-.33.53q-.23.28-1,1L1,6.56v.94H5.68V6.37Z"/></g></svg>