<svg id="Icon" xmlns="http://www.w3.org/2000/svg" viewBox="0 0 16 16"><title>sim-2</title><path d="M11.56,3.84,9.11,1.5A1.8,1.8,0,0,0,8,1H3A2,2,0,0,0,1,3V13a2,2,0,0,0,2,2h7a2,2,0,0,0,2-2V5A2,2,0,0,0,11.56,3.84Zm-2.9,8.05a.89.89,0,0,1-.52.11H4.9a.86.86,0,0,1-.7-.22.72.72,0,0,1-.2-.5,1,1,0,0,1,.3-.68L7,7.26a1.51,1.51,0,0,0,.42-1,.78.78,0,0,0-.89-.83.83.83,0,0,0-.92.66,1,1,0,0,1-.23.49.69.69,0,0,1-.56.25.73.73,0,0,1-.58-.26.7.7,0,0,1-.17-.49,2.14,2.14,0,0,1,.69-1.43A2.56,2.56,0,0,1,6.53,4,2.15,2.15,0,0,1,9,6.21,2.77,2.77,0,0,1,8.19,8.1l-2,2.5h2a.87.87,0,0,1,.52.12.67.67,0,0,1,0,1.17Z"/></svg>