<svg id="icon" xmlns="http://www.w3.org/2000/svg" viewBox="0 0 32 32"><title>sim-card-2</title><path d="M25.26,8.64,21.8,4.82A2.82,2.82,0,0,0,20,4H9.33A3.3,3.3,0,0,0,6,7.27V24.73A3.31,3.31,0,0,0,9.34,28H22.66A3.31,3.31,0,0,0,26,24.73V10.55A3.26,3.26,0,0,0,25.26,8.64ZM22,22.5A1.5,1.5,0,0,1,20.5,24h-9A1.5,1.5,0,0,1,10,22.5v-7A1.5,1.5,0,0,1,11.5,14h9A1.5,1.5,0,0,1,22,15.5Z"/><path d="M17.73,21a.73.73,0,0,0-.42-.09H15.74l1.61-2A2.19,2.19,0,0,0,18,17.37,1.73,1.73,0,0,0,16,15.6a2,2,0,0,0-1.41.5,1.67,1.67,0,0,0-.55,1.14.58.58,0,0,0,.13.39.61.61,0,0,0,.47.21.56.56,0,0,0,.44-.2.83.83,0,0,0,.19-.39.65.65,0,0,1,.73-.53.63.63,0,0,1,.72.66,1.22,1.22,0,0,1-.34.83l-2.16,2.67a.82.82,0,0,0-.24.54.59.59,0,0,0,.16.41.72.72,0,0,0,.56.17h2.59a.78.78,0,0,0,.42-.08.53.53,0,0,0,.27-.48A.51.51,0,0,0,17.73,21Z"/></svg>