<svg id="Icon" xmlns="http://www.w3.org/2000/svg" viewBox="0 0 16 16"><title>sim-2</title><path d="M12.56,3.84,10.11,1.5A1.8,1.8,0,0,0,9,1H3A2,2,0,0,0,1,3V13a2,2,0,0,0,2,2h8a2,2,0,0,0,2-2V5A2,2,0,0,0,12.56,3.84ZM10,12H4V10.84l2.15-2c.64-.6,1-1,1.25-1.25A3.16,3.16,0,0,0,7.84,7,1.68,1.68,0,0,0,8,6.33a.85.85,0,0,0-.29-.7,1.13,1.13,0,0,0-.76-.23,2.31,2.31,0,0,0-1,.21A5.54,5.54,0,0,0,5,6.2L4,5.13a6.5,6.5,0,0,1,1-.7A4.15,4.15,0,0,1,6,4.12,4.71,4.71,0,0,1,7.05,4a3.49,3.49,0,0,1,1.42.27A2.19,2.19,0,0,1,9.42,5a1.85,1.85,0,0,1,.34,1.11,2.52,2.52,0,0,1-.21,1,4,4,0,0,1-.64,1A14.25,14.25,0,0,1,7.37,9.56l-1.1,1v.07H10Z"/></svg>