<svg id="icon" xmlns="http://www.w3.org/2000/svg" viewBox="0 0 32 32"><defs><style>.cls-1{fill-rule:evenodd;}</style></defs><title>sim-card-2</title><path class="cls-1" d="M15.52,20.89l.73-.71a10.61,10.61,0,0,0,1-1.08,2.68,2.68,0,0,0,.43-.73,2.19,2.19,0,0,0,.14-.77,1.54,1.54,0,0,0-.23-.83A1.58,1.58,0,0,0,17,16.2,2.16,2.16,0,0,0,16,16a3.29,3.29,0,0,0-.74.08,2.69,2.69,0,0,0-.6.24,3.87,3.87,0,0,0-.7.53l.65.8a3.88,3.88,0,0,1,.66-.45A1.44,1.44,0,0,1,16,17a.68.68,0,0,1,.5.18.66.66,0,0,1,.19.53,1.44,1.44,0,0,1-.08.46,2,2,0,0,1-.28.48c-.13.18-.41.49-.83.94L14,21.13V22h4V21H15.52Z"/><path class="cls-1" d="M25.26,8.64,21.8,4.82A2.82,2.82,0,0,0,20,4H9.33A3.3,3.3,0,0,0,6,7.27V24.73A3.31,3.31,0,0,0,9.34,28H22.66A3.31,3.31,0,0,0,26,24.73V10.55A3.26,3.26,0,0,0,25.26,8.64ZM22,22.5A1.5,1.5,0,0,1,20.5,24h-9A1.5,1.5,0,0,1,10,22.5v-7A1.5,1.5,0,0,1,11.5,14h9A1.5,1.5,0,0,1,22,15.5Z"/></svg>