<svg id="icon" xmlns="http://www.w3.org/2000/svg" viewBox="0 0 32 32"><defs><style>.cls-1{fill-rule:evenodd;}</style></defs><title>sound-max</title><path class="cls-1" d="M17.39,13.1a.82.82,0,0,0,0,1.17,2.48,2.48,0,0,1,0,3.5.82.82,0,0,0,1.17,1.17,4.13,4.13,0,0,0,0-5.83A.82.82,0,0,0,17.39,13.1Z"/><path class="cls-1" d="M21.49,10.19a.84.84,0,1,0-1.19,1.19,6.55,6.55,0,0,1,0,9.25.84.84,0,1,0,1.19,1.19A8.24,8.24,0,0,0,21.49,10.19Z"/><path class="cls-1" d="M24.37,7.24A.82.82,0,0,0,23.2,8.41a10.75,10.75,0,0,1,0,15.18.82.82,0,0,0,1.17,1.17A12.4,12.4,0,0,0,24.37,7.24Z"/><path class="cls-1" d="M7.9,11H4.5A1.47,1.47,0,0,0,3,12.44v7.12A1.47,1.47,0,0,0,4.5,21H7.9L13,26.16A2.8,2.8,0,0,0,15,27V5a2.8,2.8,0,0,0-2,.84Z"/></svg>