<svg id="icon" xmlns="http://www.w3.org/2000/svg" viewBox="0 0 32 32"><defs><style>.cls-1{fill-rule:evenodd;}</style></defs><title>sound-mid</title><path class="cls-1" d="M18.7,13a1,1,0,0,0-.73-.3,1,1,0,0,0-.72,1.75,2.29,2.29,0,0,1,0,3.22A1,1,0,0,0,18,19.37a1,1,0,0,0,.73-.3A4.35,4.35,0,0,0,18.7,13Z"/><path class="cls-1" d="M21.63,10.05a1.06,1.06,0,0,0-1.48,0,1,1,0,0,0,0,1.48,6.33,6.33,0,0,1,0,9,1,1,0,0,0-.3.74,1,1,0,0,0,.3.74,1,1,0,0,0,1.48,0A8.45,8.45,0,0,0,21.63,10.05Z"/><path class="cls-1" d="M13.07,8.26,8.21,12H5a2,2,0,0,0-2,2v4a2,2,0,0,0,2,2H8.18l4.89,3.76a1.2,1.2,0,0,0,1.93-1V9.21A1.2,1.2,0,0,0,13.07,8.26Z"/></svg>