<svg id="icon" xmlns="http://www.w3.org/2000/svg" viewBox="0 0 32 32"><defs><style>.cls-1{fill-rule:evenodd;}</style></defs><title>stb-preference</title><path class="cls-1" d="M26.48,19.43v1.71H24.77v4.29a.86.86,0,0,1-1.72,0V21.14H21.34V19.43ZM13.63,12.57V10.86h5.14v1.71H17.05V25.43a.86.86,0,1,1-1.71,0V12.57Zm-7.72,6V16.86h5.14v1.71H9.34v6.86a.86.86,0,1,1-1.71,0V18.57Zm18-12.86a.86.86,0,0,1,.86.86v12H23.05v-12A.87.87,0,0,1,23.91,5.71Zm-7.71,0a.86.86,0,0,1,.85.86V10H15.34V6.57A.86.86,0,0,1,16.2,5.71Zm-7.72,0a.86.86,0,0,1,.86.86V16H7.63V6.57A.86.86,0,0,1,8.48,5.71Z"/></svg>