<svg id="icon" xmlns="http://www.w3.org/2000/svg" viewBox="0 0 32 32"><defs><style>.cls-1{fill-rule:evenodd;}</style></defs><title>stb-remote</title><path class="cls-1" d="M11,12.14a.86.86,0,1,0,.86.86A.86.86,0,0,0,11,12.14Zm2.14-6.43a.86.86,0,0,1,.86.86V25.43a.86.86,0,0,1-.86.86H8.84A.86.86,0,0,1,8,25.43V6.57a.86.86,0,0,1,.86-.86Zm-1.61,9.36a2.15,2.15,0,1,1,1.55-1.55,2.15,2.15,0,0,1-1.55,1.55m14-3.77L21.45,7.19A.86.86,0,0,0,20,7.79v6.1l-2.8-2.8a.86.86,0,0,0-1.21,0l0,0a.86.86,0,0,0,0,1.21L19.61,16l-3.67,3.68a.86.86,0,0,0,0,1.21l0,0a.86.86,0,0,0,1.21,0l2.8-2.8v6.1a.86.86,0,0,0,1.46.61l4.12-4.12a.86.86,0,0,0,0-1.21L22.08,16l3.49-3.48A.86.86,0,0,0,25.57,11.31Zm-1.87.62-2,2V10Zm0,8.15-2,2v-4Z"/></svg>