<svg id="icon" xmlns="http://www.w3.org/2000/svg" viewBox="0 0 32 32"><defs><style>.cls-1{fill-rule:evenodd;}</style></defs><title>stb-remote</title><path class="cls-1" d="M10,12.14a.86.86,0,1,0,.85.86A.86.86,0,0,0,10,12.14Zm2.14-6.43a.87.87,0,0,1,.86.86V25.43a.87.87,0,0,1-.86.86H7.84A.86.86,0,0,1,7,25.43V6.57a.86.86,0,0,1,.85-.86Zm-1.61,9.37a2.15,2.15,0,0,1-2.61-2.61,2.13,2.13,0,0,1,1.54-1.55,2.15,2.15,0,1,1,1.07,4.16m14.05-3.77L20.45,7.19a.86.86,0,0,0-1.47.6v6.1l-2.8-2.8a.85.85,0,0,0-1.21,0l0,0a.85.85,0,0,0,0,1.21L18.61,16l-3.67,3.68a.86.86,0,0,0,0,1.21l0,0a.85.85,0,0,0,1.21,0l2.8-2.8v6.1a.86.86,0,0,0,1.47.6l4.12-4.12a.85.85,0,0,0,0-1.21L21.08,16l3.49-3.48A.85.85,0,0,0,24.57,11.31Zm-1.87.62-2,2V10Zm0,8.15-2,2v-4Z"/></svg>