<svg id="icon" xmlns="http://www.w3.org/2000/svg" xmlns:xlink="http://www.w3.org/1999/xlink" viewBox="0 0 32 32"><defs><style>.cls-1{clip-rule:evenodd;}.cls-2{fill-rule:evenodd;}.cls-3{clip-path:url(#clip-path);}</style><clipPath id="clip-path"><path class="cls-1" d="M11.5,9a1.5,1.5,0,0,0,0,3h9a1.5,1.5,0,0,0,0-3Zm13-3A2.5,2.5,0,0,1,27,8.5v12A2.5,2.5,0,0,1,24.5,23H16l-4.79,4.79A.7.7,0,0,1,10,27.3V23H7.5A2.5,2.5,0,0,1,5,20.5V8.5A2.5,2.5,0,0,1,7.5,6Z"/></clipPath></defs><title>subject</title><path class="cls-2" d="M11.5,9a1.5,1.5,0,0,0,0,3h9a1.5,1.5,0,0,0,0-3Zm13-3A2.5,2.5,0,0,1,27,8.5v12A2.5,2.5,0,0,1,24.5,23H16l-4.79,4.79A.7.7,0,0,1,10,27.3V23H7.5A2.5,2.5,0,0,1,5,20.5V8.5A2.5,2.5,0,0,1,7.5,6Z"/><g class="cls-3"><rect y="1" width="32" height="32"/></g></svg>