<svg id="Icon" xmlns="http://www.w3.org/2000/svg" viewBox="0 0 16 16"><title>tethering</title><path d="M7.5,0A7.5,7.5,0,1,0,15,7.5,7.5,7.5,0,0,0,7.5,0Zm.62,13.72V8.93a1.56,1.56,0,1,0-1.24,0v4.79a6.25,6.25,0,1,1,1.24,0Z"/><path d="M10.81,4.19a4.68,4.68,0,0,0-6.62,6.63,4.83,4.83,0,0,0,.42.37.62.62,0,0,0,.88-.1.63.63,0,0,0-.1-.88c-.11-.09-.22-.18-.32-.28a3.44,3.44,0,1,1,4.86,0c-.1.1-.21.19-.32.28a.63.63,0,0,0-.1.88.62.62,0,0,0,.49.24.64.64,0,0,0,.39-.14,4.83,4.83,0,0,0,.42-.37A4.69,4.69,0,0,0,10.81,4.19Z"/></svg>