<svg id="icon" xmlns="http://www.w3.org/2000/svg" viewBox="0 0 32 32"><defs><style>.cls-1{fill-rule:evenodd;}</style></defs><path class="cls-1" d="M28.69,18.37a2.48,2.48,0,0,0-1.18-2.12,2.51,2.51,0,0,0-2-4.06H21.73c-1-.22-2.34-.6-2.72-1.49a2.14,2.14,0,0,0,.38-.81A9.32,9.32,0,0,0,19.62,8c.1-2,0-4.11-1.67-5.46-.89-.72-1.77-1-2.14-.16-.12.26,0,1.14-.26,3.25a14.73,14.73,0,0,1-1.46,4c-2,2-3.69,2.94-3.69,4.87V24.71c0,1.5,5.5,2.77,8.22,2.77l4.63-.05h1.18a2.5,2.5,0,0,0,2.5-2.51,2.46,2.46,0,0,0-.18-.94,2.52,2.52,0,0,0,1.3-2.2,2.46,2.46,0,0,0-.41-1.37A2.5,2.5,0,0,0,28.69,18.37Z"/><rect x="4.7" y="13.73" width="3.94" height="11.69" rx="0.99"/></svg>