<svg id="icon" xmlns="http://www.w3.org/2000/svg" xmlns:xlink="http://www.w3.org/1999/xlink" viewBox="0 0 32 32"><defs><style>.cls-1{clip-rule:evenodd;}.cls-2{fill-rule:evenodd;}.cls-3{clip-path:url(#clip-path);}</style><clipPath id="clip-path"><path class="cls-1" d="M12.39,6a2,2,0,0,0-1.5,3.33l3.19,3.58.2.2a2.5,2.5,0,0,0,3.53-.2L21,9.33A2,2,0,0,0,19.51,6Zm-.64-2h8.48a3.67,3.67,0,0,1,2.84,6l-3.81,4.67a2,2,0,0,0,.06,2.61L23.58,22a3.59,3.59,0,0,1-2.67,6H11.08a3.58,3.58,0,0,1-2.64-6l4.32-4.71a2,2,0,0,0,.06-2.63L8.94,10a3.66,3.66,0,0,1,2.81-6Z"/></clipPath></defs><title>timer</title><path class="cls-2" d="M12.39,6a2,2,0,0,0-1.5,3.33l3.19,3.58.2.2a2.5,2.5,0,0,0,3.53-.2L21,9.33A2,2,0,0,0,19.51,6Zm-.64-2h8.48a3.67,3.67,0,0,1,2.84,6l-3.81,4.67a2,2,0,0,0,.06,2.61L23.58,22a3.59,3.59,0,0,1-2.67,6H11.08a3.58,3.58,0,0,1-2.64-6l4.32-4.71a2,2,0,0,0,.06-2.63L8.94,10a3.66,3.66,0,0,1,2.81-6Z"/><g class="cls-3"><rect x="2.5" y="-1" width="27" height="34"/></g></svg>