<svg xmlns="http://www.w3.org/2000/svg" viewBox="0 0 16 16"><defs><style>.cls-1{fill-rule:evenodd;}</style></defs><title>tty-mode</title><g id="Icon"><path class="cls-1" d="M1.33,4.16,2,5.75A.39.39,0,0,0,2.5,6L5.67,4.56A.39.39,0,0,0,5.86,4L5.3,2.77a11.49,11.49,0,0,1,5.4,0l-.57,1.4a.39.39,0,0,0,.21.51L13.55,6a.39.39,0,0,0,.51-.22s.57-1.55.61-1.72a1.23,1.23,0,0,0-.46-1.49,12.89,12.89,0,0,0-12.39,0,1.31,1.31,0,0,0-.49,1.55Z"/><rect x="2" y="8" width="2" height="2" rx="0.5" ry="0.5"/><rect x="5" y="8" width="2" height="2" rx="0.5" ry="0.5"/><rect x="8" y="8" width="2" height="2" rx="0.5" ry="0.5"/><rect x="11" y="8" width="2" height="2" rx="0.5" ry="0.5"/><rect x="1" y="11" width="2" height="2" rx="0.5" ry="0.5"/><path class="cls-1" d="M14.5,14H1.5a.5.5,0,1,0,0,1h13a.5.5,0,1,0,0-1Z"/><polygon class="cls-1" points="1 14.5 1 14.5 1 14.5 1 14.5"/><polygon class="cls-1" points="15 14.5 15 14.5 15 14.5 15 14.5"/><rect x="4" y="11" width="2" height="2" rx="0.5" ry="0.5"/><rect x="7" y="11" width="2" height="2" rx="0.5" ry="0.5"/><rect x="10" y="11" width="2" height="2" rx="0.5" ry="0.5"/><rect x="13" y="11" width="2" height="2" rx="0.5" ry="0.5"/></g></svg>