<svg id="icon" xmlns="http://www.w3.org/2000/svg" viewBox="0 0 32 32"><defs><style>.cls-1{fill-rule:evenodd;}</style></defs><title>unit-length</title><path class="cls-1" d="M20.78,4.22,5.22,19.78a2.07,2.07,0,0,0,.08,2.91L9,26.43a2.07,2.07,0,0,0,2.91.08L27.51,11A2.07,2.07,0,0,0,27.43,8L23.69,4.3A2.07,2.07,0,0,0,20.78,4.22Zm-11,15.92a1,1,0,1,1-1.42,1.42l-.7-.71a1,1,0,0,1,0-1.41,1,1,0,0,1,1.41,0Zm4.24-4.24a1,1,0,1,1-1.41,1.41l-.71-.7a1,1,0,0,1,0-1.42,1,1,0,0,1,1.41,0Zm4.24-4.24a1,1,0,0,1-1.41,1.41l-.71-.71a1,1,0,0,1,0-1.41,1,1,0,0,1,1.42,0Zm4.25-4.25a1,1,0,1,1-1.42,1.42l-.7-.71a1,1,0,0,1,0-1.41,1,1,0,0,1,1.41,0Z"/></svg>