<svg id="icon" xmlns="http://www.w3.org/2000/svg" viewBox="0 0 32 32"><defs><style>.cls-1{fill-rule:evenodd;}</style></defs><title>unit-speed</title><path class="cls-1" d="M15.5,4A11.5,11.5,0,1,0,27,15.5,11.5,11.5,0,0,0,15.5,4Zm6.75,14.82-.5.87,1.72,1a9.49,9.49,0,0,1-15.92,0l1.72-1-.5-.87L7,19.81a9.44,9.44,0,0,1,0-8.61l1.71,1,.5-.87-1.72-1A9.48,9.48,0,0,1,15,6V8h1V6a9.48,9.48,0,0,1,7.46,4.3l-1.72,1,.5.87,1.71-1a9.44,9.44,0,0,1,0,8.61ZM18,8.34,15.65,13l-.15,0a2.53,2.53,0,1,0,1.93.93l2.34-4.7Z"/></svg>