<svg id="icon" xmlns="http://www.w3.org/2000/svg" viewBox="0 0 32 32"><title>unit-speed</title><path d="M16,4A12,12,0,1,0,28,16,12,12,0,0,0,16,4Zm0,21.5a9.49,9.49,0,0,1-8.25-4.81l1.31-.58a1,1,0,0,0,.52-1.32h0a1,1,0,0,0-1.31-.51l-1.33.57A9.6,9.6,0,0,1,6.5,16a9.5,9.5,0,0,1,1.06-4.34l1.2.79a1,1,0,0,0,1.1-1.67L8.65,10A9.5,9.5,0,0,1,15,6.55V8a1,1,0,0,0,2,0V6.55a9.49,9.49,0,0,1,6.29,3.37l-1.19.8a1,1,0,1,0,1.11,1.67l1.2-.8a9.47,9.47,0,0,1,.7,7.1l-1.34-.55a1,1,0,0,0-1.3.54A1,1,0,0,0,23,20l1.33.55A9.5,9.5,0,0,1,16,25.5Z"/><path d="M19.61,8.86h0a1.12,1.12,0,0,0-1.43.39L14.39,15.2a1.81,1.81,0,1,0,3.21,1.62l2.55-6.57A1.12,1.12,0,0,0,19.61,8.86Z"/></svg>