<svg id="icon" xmlns="http://www.w3.org/2000/svg" viewBox="0 0 32 32"><title>update</title><path d="M24.79,9.39A11,11,0,0,0,10,6.8V6.58a1.5,1.5,0,0,0-3,0v4a1.5,1.5,0,0,0,1.5,1.5h4a1.5,1.5,0,0,0,0-3H12a8,8,0,0,1,10.38,2.11A7.9,7.9,0,0,1,24,16a1.5,1.5,0,0,0,1.5,1.49h0A1.5,1.5,0,0,0,27,16,10.87,10.87,0,0,0,24.79,9.39Z"/><path d="M23.5,20h-4a1.5,1.5,0,0,0,0,3h.36A8,8,0,0,1,9.61,20.81,7.89,7.89,0,0,1,8,16a1.5,1.5,0,0,0-1.5-1.5h0A1.5,1.5,0,0,0,5,16a11,11,0,0,0,17,9.21v.29a1.5,1.5,0,0,0,3,0v-4A1.5,1.5,0,0,0,23.5,20Z"/></svg>