<svg xmlns="http://www.w3.org/2000/svg" viewBox="0 0 16 16"><defs><style>.cls-1{fill-rule:evenodd;}</style></defs><title>vibrate</title><g id="Icon"><path class="cls-1" d="M5,4.7a.4.4,0,0,1,0-.4L6.88,1.6A.4.4,0,0,0,6.53,1H5a.4.4,0,0,0-.35.2L2.55,4.3a.4.4,0,0,0,0,.4L4.67,7.8a.4.4,0,0,1,0,.4L2.4,11.3a.4.4,0,0,0,0,.4l2.27,3.1A.4.4,0,0,0,5,15H6.53a.4.4,0,0,0,.35-.6l-2-2.7a.4.4,0,0,1,0-.4L7.11,8.2a.4.4,0,0,0,0-.4Z"/><path class="cls-1" d="M12.44,8.2a.4.4,0,0,0,0-.4L10.32,4.7a.4.4,0,0,1,0-.4l1.89-2.7a.4.4,0,0,0-.35-.6H10.35a.4.4,0,0,0-.35.2L7.89,4.3a.4.4,0,0,0,0,.4L10,7.8a.4.4,0,0,1,0,.4L7.73,11.3a.4.4,0,0,0,0,.4L10,14.8a.4.4,0,0,0,.35.2h1.51a.4.4,0,0,0,.35-.6l-2-2.7a.4.4,0,0,1,0-.4Z"/></g></svg>