<svg id="icon" xmlns="http://www.w3.org/2000/svg" viewBox="0 0 32 32"><title>vibrate-32px</title><path d="M14,17.09a1.5,1.5,0,0,0,0-2.18l-2.85-2.69a.31.31,0,0,1,0-.44L14,9.09A1.5,1.5,0,1,0,12,6.91l-4.23,4a1.5,1.5,0,0,0,0,2.18l2.85,2.69a.31.31,0,0,1,0,.44L7.74,18.91a1.5,1.5,0,0,0,0,2.18l4.23,4A1.5,1.5,0,1,0,14,22.91l-2.85-2.69a.31.31,0,0,1,0-.44Z"/><path d="M20.41,20.22a.31.31,0,0,1,0-.44l2.85-2.69a1.5,1.5,0,0,0,0-2.18l-2.85-2.69a.31.31,0,0,1,0-.44l2.85-2.69A1.5,1.5,0,0,0,21.2,6.91l-4.23,4a1.5,1.5,0,0,0,0,2.18l2.85,2.69a.31.31,0,0,1,0,.44L17,18.91a1.5,1.5,0,0,0,0,2.18l4.23,4a1.51,1.51,0,0,0,1,.41,1.5,1.5,0,0,0,1-2.59Z"/></svg>