<svg id="icon" xmlns="http://www.w3.org/2000/svg" viewBox="0 0 32 32"><defs><style>.cls-1{fill-rule:evenodd;}</style></defs><title>vibrate-32px</title><path class="cls-1" d="M20.61,11.59l4,3.52a1.21,1.21,0,0,1,0,1.79l-4,3.52,4,3.52a1.21,1.21,0,0,1,.14,1.65,1.08,1.08,0,0,1-1.57.14l-5-4.41a1.21,1.21,0,0,1,0-1.79l4-3.52-4-3.52a1.21,1.21,0,0,1,0-1.79l5-4.41a1.08,1.08,0,0,1,1.57.14,1.21,1.21,0,0,1-.14,1.65ZM14.24,16a1.2,1.2,0,0,1-.4.9l-4,3.52,4,3.52A1.21,1.21,0,0,1,14,25.59a1.08,1.08,0,0,1-1.57.14l-5-4.41a1.21,1.21,0,0,1,0-1.79l4-3.52-4-3.52a1.21,1.21,0,0,1,0-1.79l5-4.41A1.08,1.08,0,0,1,14,6.43a1.21,1.21,0,0,1-.14,1.65l-4,3.52,4,3.52A1.2,1.2,0,0,1,14.24,16Z"/></svg>