<svg id="icon" xmlns="http://www.w3.org/2000/svg" viewBox="0 0 32 32"><path d="M20,14.5A1.5,1.5,0,0,0,18.5,13H5.5A1.5,1.5,0,0,0,4,14.5v11A1.5,1.5,0,0,0,5.5,27h13A1.5,1.5,0,0,0,20,25.5V24l5,2V14l-5,2Z"/><path d="M26,4H21a1,1,0,0,0,0,2h2.59l-4.28,4.28a1,1,0,0,0,1.41,1.41L25,7.41V10a1,1,0,0,0,2,0V5A1,1,0,0,0,26,4Z"/><path d="M9.72,5.82,8.16,4.32A1.13,1.13,0,0,0,7.45,4H4.27A1.28,1.28,0,0,0,3,5.29v5.42A1.28,1.28,0,0,0,4.27,12H8.73A1.28,1.28,0,0,0,10,10.71V6.57A1.38,1.38,0,0,0,9.72,5.82Zm-1.6,5.1a.67.67,0,0,1-.39.08H5.3a.7.7,0,0,1-.53-.16.55.55,0,0,1-.15-.38A.78.78,0,0,1,4.85,10l2-2.51a1.13,1.13,0,0,0,.31-.77.59.59,0,0,0-.67-.62.62.62,0,0,0-.69.49.78.78,0,0,1-.17.37.52.52,0,0,1-.42.19.54.54,0,0,1-.56-.57A1.6,1.6,0,0,1,5.2,5.46,2,2,0,0,1,6.52,5,1.62,1.62,0,0,1,8.34,6.66a2,2,0,0,1-.58,1.41L6.26,10H7.73a.65.65,0,0,1,.39.09.47.47,0,0,1,.26.44A.49.49,0,0,1,8.12,10.92Z"/></svg>