<svg id="icon" xmlns="http://www.w3.org/2000/svg" viewBox="0 0 32 32"><path d="M20,14.5A1.5,1.5,0,0,0,18.5,13H5.5A1.5,1.5,0,0,0,4,14.5v11A1.5,1.5,0,0,0,5.5,27h13A1.5,1.5,0,0,0,20,25.5V24l5,2V14l-5,2Z"/><path d="M24.4,8l2.31-2.31a1,1,0,0,0-1.4-1.4L23,6.6,20.69,4.29a1,1,0,0,0-1.4,1.4L21.6,8l-2.31,2.31a1,1,0,0,0,1.4,1.4L23,9.4l2.31,2.31a1,1,0,0,0,1.4-1.4Z"/><path d="M9.72,5.82,8.16,4.32A1.13,1.13,0,0,0,7.45,4H4.27A1.28,1.28,0,0,0,3,5.29v5.42A1.28,1.28,0,0,0,4.27,12H8.73A1.28,1.28,0,0,0,10,10.71V6.57A1.38,1.38,0,0,0,9.72,5.82ZM7.29,10.36a.64.64,0,0,1-1.28,0V6.12H5.07A.56.56,0,1,1,5.07,5H6.65a.64.64,0,0,1,.64.64Z"/></svg>