<svg id="icon" xmlns="http://www.w3.org/2000/svg" viewBox="0 0 32 32"><title>video-call-missed-sim2</title><path d="M20,14.5A1.5,1.5,0,0,0,18.5,13H5.5A1.5,1.5,0,0,0,4,14.5v11A1.5,1.5,0,0,0,5.5,27h13A1.5,1.5,0,0,0,20,25.5V24l5,2V14l-5,2Z"/><path d="M24.4,8l2.31-2.31a1,1,0,0,0-1.4-1.4L23,6.6,20.69,4.29a1,1,0,0,0-1.4,1.4L21.6,8l-2.31,2.31a1,1,0,0,0,1.4,1.4L23,9.4l2.31,2.31a1,1,0,0,0,1.4-1.4Z"/><path d="M7.64,4.09A.39.39,0,0,0,7.38,4H3.78A.75.75,0,0,0,3,4.72v6.56a.75.75,0,0,0,.78.72H9.22a.75.75,0,0,0,.78-.72V6.12a.35.35,0,0,0-.14-.28ZM8.5,11h-4v-.87L6,8.63c.42-.45.7-.76.83-.94a2,2,0,0,0,.28-.48,1.44,1.44,0,0,0,.08-.46A.66.66,0,0,0,7,6.22.68.68,0,0,0,6.45,6a1.44,1.44,0,0,0-.64.16,3.88,3.88,0,0,0-.66.45l-.65-.8a3.87,3.87,0,0,1,.7-.53,2.69,2.69,0,0,1,.6-.24A3.29,3.29,0,0,1,6.54,5a2.16,2.16,0,0,1,.94.2,1.58,1.58,0,0,1,.63.57,1.54,1.54,0,0,1,.23.83,2.19,2.19,0,0,1-.14.77,2.68,2.68,0,0,1-.43.73,10.61,10.61,0,0,1-1,1.08L6,9.89V10H8.5Z"/></svg>