<svg id="icon" xmlns="http://www.w3.org/2000/svg" viewBox="0 0 32 32"><title>video-call-missed-sim1</title><path d="M20,14.5A1.5,1.5,0,0,0,18.5,13H5.5A1.5,1.5,0,0,0,4,14.5v11A1.5,1.5,0,0,0,5.5,27h13A1.5,1.5,0,0,0,20,25.5V24l5,2V14l-5,2Z"/><path d="M24.4,8l2.31-2.31a1,1,0,0,0-1.4-1.4L23,6.6,20.69,4.29a1,1,0,0,0-1.4,1.4L21.6,8l-2.31,2.31a1,1,0,0,0,1.4,1.4L23,9.4l2.31,2.31a1,1,0,0,0,1.4-1.4Z"/><path d="M9.86,5.84,7.64,4.09A.39.39,0,0,0,7.38,4H3.78A.75.75,0,0,0,3,4.72v6.56a.75.75,0,0,0,.78.72H9.22a.75.75,0,0,0,.78-.72V6.12A.35.35,0,0,0,9.86,5.84ZM7,11H6V6.18l-.86.64-.48-.6L6.17,5H7Z"/></svg>