<svg id="icon" xmlns="http://www.w3.org/2000/svg" viewBox="0 0 32 32"><title>video-call-incoming-sim2</title><path d="M20,14.5A1.5,1.5,0,0,0,18.5,13H5.5A1.5,1.5,0,0,0,4,14.5v11A1.5,1.5,0,0,0,5.5,27h13A1.5,1.5,0,0,0,20,25.5V24l5,2V14l-5,2Z"/><path d="M26.71,4.29a1,1,0,0,0-1.41,0L21,8.57V6a1,1,0,0,0-2,0v5a1,1,0,0,0,1,1h5a1,1,0,1,0,0-2H22.43l4.28-4.28A1,1,0,0,0,26.71,4.29Z"/><path d="M7.64,4.09A.41.41,0,0,0,7.38,4H3.78A.75.75,0,0,0,3,4.72v6.56a.75.75,0,0,0,.78.72H9.22a.75.75,0,0,0,.78-.72V6.12a.35.35,0,0,0-.14-.27ZM8.5,11h-4v-.87l1.43-1.5q.64-.68.83-.94a2.08,2.08,0,0,0,.28-.48,1.27,1.27,0,0,0,.09-.46A.69.69,0,0,0,7,6.22.72.72,0,0,0,6.45,6a1.41,1.41,0,0,0-.64.16,3.31,3.31,0,0,0-.65.45L4.5,5.85a4.28,4.28,0,0,1,.7-.53,2.5,2.5,0,0,1,.6-.24A3,3,0,0,1,6.54,5a2.1,2.1,0,0,1,.94.2,1.52,1.52,0,0,1,.64.57,1.55,1.55,0,0,1,.23.83,2.11,2.11,0,0,1-.14.77,3,3,0,0,1-.43.73,10.69,10.69,0,0,1-1,1.07L6,9.89v.06H8.5Z"/></svg>