<svg id="Icon" xmlns="http://www.w3.org/2000/svg" viewBox="0 0 16 16"><title>volte</title><path d="M9,4.5A1.5,1.5,0,1,0,10.5,6,1.5,1.5,0,0,0,9,4.5Z"/><path d="M5.35,13.7h-2v-4a.65.65,0,1,0-1.3,0v4.7a.65.65,0,0,0,.65.65h2.7a.65.65,0,0,0,0-1.3Z"/><path d="M9.35,9H6.15a.65.65,0,0,0,0,1.3H7.1v4a.65.65,0,1,0,1.3,0v-4h.95a.65.65,0,0,0,0-1.3Z"/><path d="M13.85,10.3a.65.65,0,0,0,0-1.3h-2.7a.65.65,0,0,0-.65.65v4.7a.65.65,0,0,0,.65.65h2.7a.65.65,0,0,0,0-1.3h-2v-1h1.75a.65.65,0,1,0,0-1.3H11.8v-1Z"/><path d="M3.8,8h.4a.71.71,0,0,0,.65-.42L6.94,2.78a.7.7,0,1,0-1.28-.56L4,6,2.33,2.22a.7.7,0,0,0-1.28.56l2.1,4.81A.71.71,0,0,0,3.8,8Z"/><path d="M9.88,3.46a2.67,2.67,0,0,1,1.65,3.39.6.6,0,0,0,.37.76.69.69,0,0,0,.2,0,.6.6,0,0,0,.57-.4,3.89,3.89,0,0,0-2.4-4.92.6.6,0,0,0-.39,1.14Z"/><path d="M11.41.37a.6.6,0,0,0-.79.32.59.59,0,0,0,.32.78,4.93,4.93,0,0,1,2.88,5.45.6.6,0,0,0,.47.71h.12A.61.61,0,0,0,15,7.16,6.14,6.14,0,0,0,11.41.37Z"/></svg>