<svg xmlns="http://www.w3.org/2000/svg" viewBox="0 0 16 16"><title>volte</title><g id="Icon"><polygon points="3.24 9.97 2.03 9.97 2.03 14.97 5.56 14.97 5.56 13.97 3.24 13.97 3.24 9.97"/><polygon points="5.56 10.98 7.11 10.98 7.11 14.97 8.32 14.97 8.32 10.98 9.87 10.98 9.87 9.97 5.56 9.97 5.56 10.98"/><polygon points="11.09 14.97 14.38 14.97 14.38 13.97 12.3 13.97 12.3 12.97 14.23 12.97 14.23 11.98 12.3 11.98 12.3 10.96 14.38 10.96 14.38 9.97 11.09 9.97 11.09 14.97"/><polygon points="4.82 7.98 7.03 2 5.37 2 4.03 6.28 2.64 2 0.98 2 3.19 7.98 4.82 7.98"/><circle cx="9.02" cy="5.98" r="1.6"/><path d="M11.24,8h1.22a4,4,0,0,0-.62-4.83l-.71.71A3,3,0,0,1,11.24,8Z"/><path d="M13.26,1.74l-.71.71a5,5,0,0,1,1,5.54h1.05a5.89,5.89,0,0,0-1.39-6.24Z"/></g></svg>