<svg id="Icon" xmlns="http://www.w3.org/2000/svg" viewBox="0 0 16 16"><title>vowifi</title><polygon points="8 15 9.31 15 9.32 11.52 8.01 11.52 8 15"/><rect x="8" y="10" width="1.34" height="1"/><polygon points="6.33 10 5.5 13.42 4.67 10 4.5 10 3.5 10 3.33 10 2.5 13.42 1.67 10 0.5 10 1.91 14.97 1.9 15 1.92 15 3.07 15 3.09 15 3.08 14.97 4 11.75 4.91 14.97 4.9 15 4.92 15 6.07 15 6.09 15 6.08 14.97 7.5 10 6.33 10"/><polygon points="14 15 15.31 15 15.31 11.52 14 11.52 14 15"/><rect x="14" y="10" width="1.34" height="1"/><polygon points="10.31 10 10 10 10 15 11.31 15 11.31 13.06 13.27 13.06 13.27 12.14 11.31 12.14 11.31 10.91 13.27 10.91 13.27 10 11.31 10 10.31 10"/><polygon points="4.82 7.98 7.03 2 5.37 2 4.03 6.27 2.64 2 0.98 2 3.19 7.98 4.82 7.98"/><path d="M10.62,6A1.6,1.6,0,1,0,9,7.57,1.6,1.6,0,0,0,10.62,6Z"/><path d="M11.24,8h1.22a3.93,3.93,0,0,0-.62-4.83l-.7.71A3,3,0,0,1,11.24,8Z"/><path d="M14.65,8A6,6,0,0,0,15,6a6,6,0,0,0-1.76-4.24l-.71.7a5,5,0,0,1,1,5.54Z"/></svg>