<svg id="Icon" xmlns="http://www.w3.org/2000/svg" viewBox="0 0 16 16"><title>vowifi</title><path d="M15.35,11a.65.65,0,0,0-.65.65v2.7a.65.65,0,0,0,1.3,0v-2.7A.65.65,0,0,0,15.35,11Z"/><path d="M14.7,9.65A.65.65,0,1,0,15.35,9,.66.66,0,0,0,14.7,9.65Z"/><path d="M8.35,11a.65.65,0,0,0-.65.65v2.7a.65.65,0,0,0,1.3,0v-2.7A.65.65,0,0,0,8.35,11Z"/><path d="M8.35,9A.65.65,0,1,0,9,9.65.65.65,0,0,0,8.35,9Z"/><path d="M13.35,9h-2.7a.65.65,0,0,0-.65.65v4.7a.65.65,0,0,0,1.3,0v-1.7h1.75a.65.65,0,1,0,0-1.3H11.3v-1h2a.65.65,0,0,0,0-1.3Z"/><path d="M10.5,6A1.5,1.5,0,1,0,9,7.5,1.5,1.5,0,0,0,10.5,6Z"/><path d="M6.58,1.86a.7.7,0,0,0-.92.36L4,6,2.33,2.22a.69.69,0,0,0-.92-.36.71.71,0,0,0-.36.92l2.1,4.81A.71.71,0,0,0,3.8,8h.4a.71.71,0,0,0,.65-.42L6.94,2.78A.7.7,0,0,0,6.58,1.86Z"/><path d="M9.88,3.46a2.67,2.67,0,0,1,1.65,3.39.6.6,0,0,0,.37.76.69.69,0,0,0,.2,0,.6.6,0,0,0,.57-.4,3.89,3.89,0,0,0-2.4-4.92.6.6,0,0,0-.39,1.14Z"/><path d="M15,7.16A6.14,6.14,0,0,0,11.41.37a.6.6,0,0,0-.79.32.59.59,0,0,0,.32.78,4.93,4.93,0,0,1,2.88,5.45.6.6,0,0,0,.47.71h.12A.61.61,0,0,0,15,7.16Z"/><path d="M6.57,9a.58.58,0,0,0-.74.4L5,12.33l-.88-2.9a.62.62,0,0,0-1.14,0l-.88,2.9-.88-2.9A.58.58,0,0,0,.43,9a.59.59,0,0,0-.4.75l1.45,4.8a.62.62,0,0,0,1.14,0l.88-2.9.88,2.9a.6.6,0,0,0,1.14,0L7,9.78A.59.59,0,0,0,6.57,9Z"/></svg>