<svg id="icon" xmlns="http://www.w3.org/2000/svg" viewBox="0 0 32 32"><title>wifi-32px</title><path d="M16,10.8a13.38,13.38,0,0,0-8.42,2.95,1.2,1.2,0,0,0,.74,2.14,1.14,1.14,0,0,0,.73-.26,11.15,11.15,0,0,1,13.9,0,1.14,1.14,0,0,0,.73.26,1.2,1.2,0,0,0,.74-2.14A13.38,13.38,0,0,0,16,10.8Z"/><path d="M16,15.8a8.21,8.21,0,0,0-5.31,2,1.2,1.2,0,0,0-.16,1.66,1.21,1.21,0,0,0,1.73.14,5.82,5.82,0,0,1,7.48,0,1.21,1.21,0,0,0,1.73-.14,1.2,1.2,0,0,0-.16-1.66A8.21,8.21,0,0,0,16,15.8Z"/><path d="M27.51,9.9a18.21,18.21,0,0,0-23,0,1.21,1.21,0,0,0-.17,1.67,1.24,1.24,0,0,0,1,.47A1.17,1.17,0,0,0,6,11.78a15.7,15.7,0,0,1,20,0,1.17,1.17,0,0,0,.74.26,1.24,1.24,0,0,0,1-.47A1.21,1.21,0,0,0,27.51,9.9Z"/><circle cx="16" cy="23.5" r="2.5"/></svg>