<svg id="icon" xmlns="http://www.w3.org/2000/svg" viewBox="0 0 32 32"><title>wifi-off-32px</title><path d="M10.7,11.88a12.49,12.49,0,0,0-3.12,1.87,1.2,1.2,0,0,0,.74,2.14,1.14,1.14,0,0,0,.73-.26,10.66,10.66,0,0,1,3.51-1.89Z"/><path d="M18.72,13.54A10.63,10.63,0,0,1,23,15.63a1.14,1.14,0,0,0,.73.26,1.2,1.2,0,0,0,.74-2.14A13.38,13.38,0,0,0,16,10.8h0l2.73,2.73Z"/><path d="M17.13,18.32l-2.41-2.41a8.15,8.15,0,0,0-4,1.85,1.2,1.2,0,0,0-.16,1.66,1.21,1.21,0,0,0,1.73.14A5.81,5.81,0,0,1,16,18.2,5.35,5.35,0,0,1,17.13,18.32Z"/><path d="M7,8.19A16.43,16.43,0,0,0,4.49,9.9a1.21,1.21,0,0,0-.17,1.67,1.24,1.24,0,0,0,1,.47A1.17,1.17,0,0,0,6,11.78,14.8,14.8,0,0,1,8.78,10Z"/><path d="M27.51,9.9A18.28,18.28,0,0,0,16,5.8a18,18,0,0,0-4.46.56l2,2A14,14,0,0,1,16,8.2a15.77,15.77,0,0,1,10,3.58,1.17,1.17,0,0,0,.74.26,1.24,1.24,0,0,0,1-.47A1.21,1.21,0,0,0,27.51,9.9Z"/><circle cx="16" cy="23.5" r="2.5"/><path d="M17,13.25h0l-2.36-2.37L12.39,8.63,9.13,5.37a1.23,1.23,0,0,0-1.76,0,1.24,1.24,0,0,0,0,1.76l.56.56L9.74,9.51l2,2L16,15.8l3.88,3.89L24.21,24a1.29,1.29,0,0,0,.89.37A1.26,1.26,0,0,0,26,22.21Z"/></svg>