<svg id="Icon" xmlns="http://www.w3.org/2000/svg" viewBox="0 0 16 16"><title>wifi-4</title><path d="M5,8.88a.85.85,0,0,0-.19,1.18A.86.86,0,0,0,6,10.25a3.46,3.46,0,0,1,4,0,.85.85,0,1,0,1-1.37A5.17,5.17,0,0,0,5,8.88Z"/><circle cx="8" cy="13" r="1.75"/><path d="M8,4.55A8.37,8.37,0,0,0,3,6.17.85.85,0,1,0,4,7.54a6.85,6.85,0,0,1,7.94,0,.85.85,0,1,0,1-1.37A8.37,8.37,0,0,0,8,4.55Z"/><path d="M15,3.42A11.69,11.69,0,0,0,8,1.15,11.69,11.69,0,0,0,1,3.42.85.85,0,1,0,2,4.79,10.16,10.16,0,0,1,14,4.79a.85.85,0,1,0,1-1.37Z"/></svg>